999
"DXF R12 Output" (www.mydxf.blogspot.com)
 0 
SECTION
 2 
HEADER
 9 
$ACADVER
 1 
AC1009
 9 
$EXTMIN
 10 
 0 
 20 
 0 
 9 
$EXTMAX
 10 
 8.5 
 20 
 11 
 0 
ENDSEC
 0 
SECTION
 2 
ENTITIES
0
POLYLINE
8
Image
62
7
70
0
10
0.000000
20
0.000000
66
1
0
VERTEX
8
Image
10
10.487640
20
5.424021
70
0
0
VERTEX
8
Image
10
10.261060
20
5.704314
70
0
0
VERTEX
8
Image
10
9.930166
20
5.820896
70
0
0
VERTEX
8
Image
10
9.633145
20
5.991186
70
0
0
VERTEX
8
Image
10
9.524988
20
6.458835
70
0
0
VERTEX
8
Image
10
9.757966
20
7.155121
70
0
0
VERTEX
8
Image
10
10.436505
20
7.824055
70
0
0
VERTEX
8
Image
10
11.530007
20
8.443392
70
0
0
VERTEX
8
Image
10
13.007879
20
8.990891
70
0
0
VERTEX
8
Image
10
15.802872
20
10.041293
70
0
0
VERTEX
8
Image
10
17.707746
20
11.014827
70
0
0
VERTEX
8
Image
10
17.310872
20
11.490841
70
0
0
VERTEX
8
Image
10
16.947480
20
11.898230
70
0
0
VERTEX
8
Image
10
17.396332
20
12.497346
70
0
0
VERTEX
8
Image
10
17.967358
20
13.296774
70
0
0
VERTEX
8
Image
10
17.928958
20
13.458403
70
0
0
VERTEX
8
Image
10
17.660915
20
13.413846
70
0
0
VERTEX
8
Image
10
16.338000
20
12.852822
70
0
0
VERTEX
8
Image
10
15.510412
20
12.566152
70
0
0
VERTEX
8
Image
10
15.376533
20
12.631513
70
0
0
VERTEX
8
Image
10
15.345814
20
12.834460
70
0
0
VERTEX
8
Image
10
15.555853
20
13.216751
70
0
0
VERTEX
8
Image
10
16.060839
20
13.565613
70
0
0
VERTEX
8
Image
10
17.398167
20
14.512421
70
0
0
VERTEX
8
Image
10
17.862597
20
15.095032
70
0
0
VERTEX
8
Image
10
17.543036
20
15.483282
70
0
0
VERTEX
8
Image
10
17.218631
20
15.872997
70
0
0
VERTEX
8
Image
10
17.660915
20
16.466091
70
0
0
VERTEX
8
Image
10
18.137971
20
17.067820
70
0
0
VERTEX
8
Image
10
18.206696
20
17.456336
70
0
0
VERTEX
8
Image
10
17.851067
20
17.664990
70
0
0
VERTEX
8
Image
10
17.055063
20
17.727131
70
0
0
VERTEX
8
Image
10
15.887519
20
17.883281
70
0
0
VERTEX
8
Image
10
14.771614
20
18.279271
70
0
0
VERTEX
8
Image
10
13.729034
20
18.666149
70
0
0
VERTEX
8
Image
10
12.780653
20
18.660945
70
0
0
VERTEX
8
Image
10
11.597325
20
18.599675
70
0
0
VERTEX
8
Image
10
10.344568
20
18.809068
70
0
0
VERTEX
8
Image
10
9.092412
20
19.245622
70
0
0
VERTEX
8
Image
10
7.910886
20
19.865833
70
0
0
VERTEX
8
Image
10
6.870018
20
20.626198
70
0
0
VERTEX
8
Image
10
6.039839
20
21.483215
70
0
0
VERTEX
8
Image
10
5.490376
20
22.393381
70
0
0
VERTEX
8
Image
10
5.291660
20
23.313193
70
0
0
VERTEX
8
Image
10
5.393958
20
23.884632
70
0
0
VERTEX
8
Image
10
5.763737
20
24.266642
70
0
0
VERTEX
8
Image
10
6.495321
20
24.513041
70
0
0
VERTEX
8
Image
10
7.683035
20
24.677650
70
0
0
VERTEX
8
Image
10
9.134299
20
24.955693
70
0
0
VERTEX
8
Image
10
10.708071
20
25.471203
70
0
0
VERTEX
8
Image
10
12.163793
20
26.130865
70
0
0
VERTEX
8
Image
10
13.260905
20
26.841364
70
0
0
VERTEX
8
Image
10
13.957786
20
27.318383
70
0
0
VERTEX
8
Image
10
14.506219
20
27.516911
70
0
0
VERTEX
8
Image
10
16.621298
20
28.308276
70
0
0
VERTEX
8
Image
10
17.969339
20
29.063725
70
0
0
VERTEX
8
Image
10
18.188685
20
29.361601
70
0
0
VERTEX
8
Image
10
18.208796
20
29.697128
70
0
0
VERTEX
8
Image
10
18.106139
20
30.021296
70
0
0
VERTEX
8
Image
10
17.830291
20
30.229225
70
0
0
VERTEX
8
Image
10
16.271854
20
30.497732
70
0
0
VERTEX
8
Image
10
11.914293
20
31.277150
70
0
0
VERTEX
8
Image
10
7.728617
20
32.556977
70
0
0
VERTEX
8
Image
10
4.197288
20
34.157157
70
0
0
VERTEX
8
Image
10
2.827773
20
35.021112
70
0
0
VERTEX
8
Image
10
1.802768
20
35.897633
70
0
0
VERTEX
8
Image
10
1.184819
20
36.693283
70
0
0
VERTEX
8
Image
10
0.774740
20
37.539032
70
0
0
VERTEX
8
Image
10
0.568978
20
38.403406
70
0
0
VERTEX
8
Image
10
0.563983
20
39.254932
70
0
0
VERTEX
8
Image
10
0.756200
20
40.062139
70
0
0
VERTEX
8
Image
10
1.142078
20
40.793554
70
0
0
VERTEX
8
Image
10
1.718065
20
41.417703
70
0
0
VERTEX
8
Image
10
2.480608
20
41.903114
70
0
0
VERTEX
8
Image
10
3.751870
20
42.299919
70
0
0
VERTEX
8
Image
10
5.790236
20
42.615870
70
0
0
VERTEX
8
Image
10
12.699984
20
43.065697
70
0
0
VERTEX
8
Image
10
17.594770
20
43.259390
70
0
0
VERTEX
8
Image
10
17.677109
20
44.255307
70
0
0
VERTEX
8
Image
10
17.616581
20
45.587916
70
0
0
VERTEX
8
Image
10
17.355430
20
47.393328
70
0
0
VERTEX
8
Image
10
17.141440
20
49.110630
70
0
0
VERTEX
8
Image
10
17.187017
20
50.617672
70
0
0
VERTEX
8
Image
10
17.492217
20
51.914901
70
0
0
VERTEX
8
Image
10
18.057097
20
53.002765
70
0
0
VERTEX
8
Image
10
18.460853
20
53.941344
70
0
0
VERTEX
8
Image
10
18.404292
20
55.586782
70
0
0
VERTEX
8
Image
10
18.384599
20
57.449400
70
0
0
VERTEX
8
Image
10
18.645572
20
59.246380
70
0
0
VERTEX
8
Image
10
19.131226
20
60.731604
70
0
0
VERTEX
8
Image
10
19.785573
20
61.658957
70
0
0
VERTEX
8
Image
10
20.330540
20
62.009874
70
0
0
VERTEX
8
Image
10
20.859463
20
62.185538
70
0
0
VERTEX
8
Image
10
21.380417
20
62.181614
70
0
0
VERTEX
8
Image
10
21.901476
20
61.993765
70
0
0
VERTEX
8
Image
10
22.976208
20
61.048953
70
0
0
VERTEX
8
Image
10
24.148258
20
59.316414
70
0
0
VERTEX
8
Image
10
25.446512
20
57.390677
70
0
0
VERTEX
8
Image
10
27.365790
20
55.012948
70
0
0
VERTEX
8
Image
10
33.062752
20
48.906962
70
0
0
VERTEX
8
Image
10
36.115580
20
45.823295
70
0
0
VERTEX
8
Image
10
37.570786
20
46.057194
70
0
0
VERTEX
8
Image
10
43.620909
20
47.270798
70
0
0
VERTEX
8
Image
10
46.195513
20
47.981038
70
0
0
VERTEX
8
Image
10
48.418689
20
48.747559
70
0
0
VERTEX
8
Image
10
52.038218
20
50.041624
70
0
0
VERTEX
8
Image
10
54.940001
20
50.523453
70
0
0
VERTEX
8
Image
10
56.958303
20
50.938823
70
0
0
VERTEX
8
Image
10
59.183238
20
51.741128
70
0
0
VERTEX
8
Image
10
61.473505
20
52.568872
70
0
0
VERTEX
8
Image
10
63.632212
20
52.847050
70
0
0
VERTEX
8
Image
10
65.482167
20
53.054327
70
0
0
VERTEX
8
Image
10
66.756201
20
53.487741
70
0
0
VERTEX
8
Image
10
67.600435
20
53.796075
70
0
0
VERTEX
8
Image
10
68.565914
20
53.922374
70
0
0
VERTEX
8
Image
10
69.536981
20
53.862659
70
0
0
VERTEX
8
Image
10
70.397977
20
53.612955
70
0
0
VERTEX
8
Image
10
70.626172
20
53.607106
70
0
0
VERTEX
8
Image
10
70.822883
20
53.880316
70
0
0
VERTEX
8
Image
10
71.277313
20
55.618468
70
0
0
VERTEX
8
Image
10
73.179126
20
62.863427
70
0
0
VERTEX
8
Image
10
75.587913
20
70.114565
70
0
0
VERTEX
8
Image
10
78.382145
20
76.756357
70
0
0
VERTEX
8
Image
10
79.399299
20
78.682378
70
0
0
VERTEX
8
Image
10
80.017950
20
79.374970
70
0
0
VERTEX
8
Image
10
80.311243
20
79.294687
70
0
0
VERTEX
8
Image
10
80.433232
20
79.101667
70
0
0
VERTEX
8
Image
10
78.863289
20
75.199068
70
0
0
VERTEX
8
Image
10
77.286336
20
71.313408
70
0
0
VERTEX
8
Image
10
75.836905
20
67.252749
70
0
0
VERTEX
8
Image
10
74.538141
20
63.086378
70
0
0
VERTEX
8
Image
10
73.413189
20
58.883580
70
0
0
VERTEX
8
Image
10
72.347234
20
54.035316
70
0
0
VERTEX
8
Image
10
74.671130
20
58.519434
70
0
0
VERTEX
8
Image
10
77.238479
20
63.474209
70
0
0
VERTEX
8
Image
10
80.015394
20
68.352879
70
0
0
VERTEX
8
Image
10
82.357778
20
72.073504
70
0
0
VERTEX
8
Image
10
83.164740
20
73.161444
70
0
0
VERTEX
8
Image
10
83.621534
20
73.554144
70
0
0
VERTEX
8
Image
10
83.971824
20
73.353662
70
0
0
VERTEX
8
Image
10
83.888812
20
72.717869
70
0
0
VERTEX
8
Image
10
83.354411
20
71.595247
70
0
0
VERTEX
8
Image
10
82.350530
20
69.934278
70
0
0
VERTEX
8
Image
10
79.579092
20
65.426793
70
0
0
VERTEX
8
Image
10
77.257279
20
61.261596
70
0
0
VERTEX
8
Image
10
75.304429
20
57.285058
70
0
0
VERTEX
8
Image
10
73.639886
20
53.343551
70
0
0
VERTEX
8
Image
10
72.884271
20
51.053120
70
0
0
VERTEX
8
Image
10
72.876014
20
50.229776
70
0
0
VERTEX
8
Image
10
73.042064
20
49.110800
70
0
0
VERTEX
8
Image
10
73.250037
20
46.059360
70
0
0
VERTEX
8
Image
10
72.933496
20
42.796410
70
0
0
VERTEX
8
Image
10
72.132741
20
39.556508
70
0
0
VERTEX
8
Image
10
70.888072
20
36.574214
70
0
0
VERTEX
8
Image
10
70.206508
20
35.111970
70
0
0
VERTEX
8
Image
10
70.065378
20
34.456330
70
0
0
VERTEX
8
Image
10
71.795020
20
33.587336
70
0
0
VERTEX
8
Image
10
72.435754
20
33.085624
70
0
0
VERTEX
8
Image
10
72.722651
20
32.676070
70
0
0
VERTEX
8
Image
10
73.119526
20
31.783084
70
0
0
VERTEX
8
Image
10
75.435225
20
27.152882
70
0
0
VERTEX
8
Image
10
77.448670
20
22.886499
70
0
0
VERTEX
8
Image
10
78.530076
20
22.805825
70
0
0
VERTEX
8
Image
10
81.014542
20
22.980170
70
0
0
VERTEX
8
Image
10
82.290683
20
23.102679
70
0
0
VERTEX
8
Image
10
83.245199
20
22.889405
70
0
0
VERTEX
8
Image
10
83.887952
20
22.556498
70
0
0
VERTEX
8
Image
10
84.250255
20
22.219149
70
0
0
VERTEX
8
Image
10
84.322548
20
21.891975
70
0
0
VERTEX
8
Image
10
84.095272
20
21.589593
70
0
0
VERTEX
8
Image
10
83.518780
20
20.796347
70
0
0
VERTEX
8
Image
10
83.272940
20
20.440934
70
0
0
VERTEX
8
Image
10
82.728296
20
20.858809
70
0
0
VERTEX
8
Image
10
82.147252
20
21.276399
70
0
0
VERTEX
8
Image
10
81.667536
20
20.964590
70
0
0
VERTEX
8
Image
10
81.247730
20
20.698893
70
0
0
VERTEX
8
Image
10
80.513253
20
20.568586
70
0
0
VERTEX
8
Image
10
77.186068
20
20.649958
70
0
0
VERTEX
8
Image
10
76.378929
20
20.825336
70
0
0
VERTEX
8
Image
10
75.730913
20
21.406221
70
0
0
VERTEX
8
Image
10
75.068999
20
22.631130
70
0
0
VERTEX
8
Image
10
74.220167
20
24.738580
70
0
0
VERTEX
8
Image
10
72.536761
20
28.690688
70
0
0
VERTEX
8
Image
10
71.858023
20
29.787587
70
0
0
VERTEX
8
Image
10
71.170761
20
30.520545
70
0
0
VERTEX
8
Image
10
69.783986
20
31.228799
70
0
0
VERTEX
8
Image
10
67.488117
20
32.098874
70
0
0
VERTEX
8
Image
10
65.233796
20
32.802076
70
0
0
VERTEX
8
Image
10
63.971666
20
33.009707
70
0
0
VERTEX
8
Image
10
64.026445
20
32.755896
70
0
0
VERTEX
8
Image
10
64.578358
20
32.285736
70
0
0
VERTEX
8
Image
10
66.724459
20
30.703064
70
0
0
VERTEX
8
Image
10
68.612404
20
29.121236
70
0
0
VERTEX
8
Image
10
70.022156
20
27.738090
70
0
0
VERTEX
8
Image
10
70.733675
20
26.751464
70
0
0
VERTEX
8
Image
10
72.850077
20
23.116816
70
0
0
VERTEX
8
Image
10
75.562082
20
18.653171
70
0
0
VERTEX
8
Image
10
76.846492
20
16.601455
70
0
0
VERTEX
8
Image
10
78.782687
20
15.881503
70
0
0
VERTEX
8
Image
10
80.927528
20
15.077728
70
0
0
VERTEX
8
Image
10
81.445540
20
14.707446
70
0
0
VERTEX
8
Image
10
81.769114
20
14.263321
70
0
0
VERTEX
8
Image
10
81.872010
20
13.699718
70
0
0
VERTEX
8
Image
10
81.345340
20
13.060842
70
0
0
VERTEX
8
Image
10
80.631884
20
12.399636
70
0
0
VERTEX
8
Image
10
79.932001
20
13.070166
70
0
0
VERTEX
8
Image
10
79.251089
20
13.549929
70
0
0
VERTEX
8
Image
10
78.614967
20
13.579308
70
0
0
VERTEX
8
Image
10
78.128772
20
13.536347
70
0
0
VERTEX
8
Image
10
77.826465
20
13.659686
70
0
0
VERTEX
8
Image
10
76.993653
20
14.224872
70
0
0
VERTEX
8
Image
10
75.935321
20
14.795707
70
0
0
VERTEX
8
Image
10
75.065354
20
15.190063
70
0
0
VERTEX
8
Image
10
74.430101
20
15.938838
70
0
0
VERTEX
8
Image
10
73.545200
20
17.614138
70
0
0
VERTEX
8
Image
10
72.351421
20
19.946866
70
0
0
VERTEX
8
Image
10
71.041626
20
22.108159
70
0
0
VERTEX
8
Image
10
69.851367
20
23.740577
70
0
0
VERTEX
8
Image
10
69.016198
20
24.486682
70
0
0
VERTEX
8
Image
10
67.415976
20
25.739989
70
0
0
VERTEX
8
Image
10
64.430006
20
28.479871
70
0
0
VERTEX
8
Image
10
61.532308
20
31.162686
70
0
0
VERTEX
8
Image
10
60.144317
20
32.278786
70
0
0
VERTEX
8
Image
10
59.876030
20
32.130042
70
0
0
VERTEX
8
Image
10
59.670391
20
31.771848
70
0
0
VERTEX
8
Image
10
59.341323
20
31.089669
70
0
0
VERTEX
8
Image
10
58.811859
20
30.425022
70
0
0
VERTEX
8
Image
10
58.124901
20
29.822596
70
0
0
VERTEX
8
Image
10
57.323354
20
29.327079
70
0
0
VERTEX
8
Image
10
56.223620
20
28.638453
70
0
0
VERTEX
8
Image
10
55.123513
20
27.763733
70
0
0
VERTEX
8
Image
10
54.434294
20
27.216883
70
0
0
VERTEX
8
Image
10
53.586117
20
26.747133
70
0
0
VERTEX
8
Image
10
50.686710
20
25.701380
70
0
0
VERTEX
8
Image
10
47.700747
20
24.619469
70
0
0
VERTEX
8
Image
10
46.822602
20
24.104396
70
0
0
VERTEX
8
Image
10
46.007205
20
23.438727
70
0
0
VERTEX
8
Image
10
44.747083
20
22.492549
70
0
0
VERTEX
8
Image
10
43.603453
20
21.913398
70
0
0
VERTEX
8
Image
10
42.817191
20
21.592118
70
0
0
VERTEX
8
Image
10
42.416269
20
21.265931
70
0
0
VERTEX
8
Image
10
43.096126
20
16.025010
70
0
0
VERTEX
8
Image
10
43.902493
20
11.113768
70
0
0
VERTEX
8
Image
10
43.381190
20
9.897617
70
0
0
VERTEX
8
Image
10
42.780231
20
8.756298
70
0
0
VERTEX
8
Image
10
42.067416
20
7.720062
70
0
0
VERTEX
8
Image
10
41.507735
20
6.869064
70
0
0
VERTEX
8
Image
10
41.274948
20
6.173101
70
0
0
VERTEX
8
Image
10
41.199856
20
5.714778
70
0
0
VERTEX
8
Image
10
40.999360
20
5.438764
70
0
0
VERTEX
8
Image
10
40.710635
20
5.371168
70
0
0
VERTEX
8
Image
10
40.370852
20
5.538099
70
0
0
VERTEX
8
Image
10
40.006027
20
5.699604
70
0
0
VERTEX
8
Image
10
39.622836
20
5.677963
70
0
0
VERTEX
8
Image
10
39.259113
20
5.688020
70
0
0
VERTEX
8
Image
10
39.065205
20
6.005095
70
0
0
VERTEX
8
Image
10
39.059431
20
6.550111
70
0
0
VERTEX
8
Image
10
39.260106
20
7.243987
70
0
0
VERTEX
8
Image
10
40.487015
20
9.094383
70
0
0
VERTEX
8
Image
10
41.352775
20
10.080431
70
0
0
VERTEX
8
Image
10
41.166609
20
12.647010
70
0
0
VERTEX
8
Image
10
40.521133
20
17.859422
70
0
0
VERTEX
8
Image
10
40.061822
20
20.505252
70
0
0
VERTEX
8
Image
10
39.163118
20
20.415477
70
0
0
VERTEX
8
Image
10
38.153799
20
20.156194
70
0
0
VERTEX
8
Image
10
36.989145
20
19.658881
70
0
0
VERTEX
8
Image
10
35.787648
20
19.170454
70
0
0
VERTEX
8
Image
10
34.786328
20
19.166071
70
0
0
VERTEX
8
Image
10
33.589526
20
19.154817
70
0
0
VERTEX
8
Image
10
31.865416
20
18.780740
70
0
0
VERTEX
8
Image
10
28.231321
20
18.040411
70
0
0
VERTEX
8
Image
10
26.806391
20
17.774175
70
0
0
VERTEX
8
Image
10
26.585710
20
17.515736
70
0
0
VERTEX
8
Image
10
26.501033
20
17.065673
70
0
0
VERTEX
8
Image
10
26.138584
20
15.968797
70
0
0
VERTEX
8
Image
10
25.845748
20
15.717493
70
0
0
VERTEX
8
Image
10
25.514132
20
15.713104
70
0
0
VERTEX
8
Image
10
25.234313
20
15.624418
70
0
0
VERTEX
8
Image
10
25.028361
20
15.220067
70
0
0
VERTEX
8
Image
10
24.618334
20
14.688274
70
0
0
VERTEX
8
Image
10
23.703017
20
14.073549
70
0
0
VERTEX
8
Image
10
22.402260
20
13.443226
70
0
0
VERTEX
8
Image
10
20.835911
20
12.864641
70
0
0
VERTEX
8
Image
10
20.492818
20
12.561235
70
0
0
VERTEX
8
Image
10
20.363516
20
11.980753
70
0
0
VERTEX
8
Image
10
20.032787
20
10.679233
70
0
0
VERTEX
8
Image
10
19.457414
20
9.981091
70
0
0
VERTEX
8
Image
10
18.517178
20
9.131617
70
0
0
VERTEX
8
Image
10
16.428457
20
7.709071
70
0
0
VERTEX
8
Image
10
14.885120
20
6.867166
70
0
0
VERTEX
8
Image
10
14.322938
20
6.642514
70
0
0
VERTEX
8
Image
10
13.891213
20
7.062655
70
0
0
VERTEX
8
Image
10
13.411251
20
7.488524
70
0
0
VERTEX
8
Image
10
12.650720
20
7.394265
70
0
0
VERTEX
8
Image
10
11.680345
20
6.887142
70
0
0
VERTEX
8
Image
10
11.514637
20
6.555024
70
0
0
VERTEX
8
Image
10
11.563440
20
6.172249
70
0
0
VERTEX
8
Image
10
11.562059
20
5.839318
70
0
0
VERTEX
8
Image
10
11.394722
20
5.462801
70
0
0
VERTEX
8
Image
10
11.131839
20
5.154733
70
0
0
VERTEX
8
Image
10
10.843814
20
5.027147
70
0
0
VERTEX
8
Image
10
10.487640
20
5.424021
70
0
0
VERTEX
8
Image
10
10.487640
20
5.424021
70
0
0
SEQEND
8
Image
0
POLYLINE
8
Image
62
7
70
0
10
0.000000
20
0.000000
66
1
0
VERTEX
8
Image
10
16.499826
20
8.863600
70
0
0
VERTEX
8
Image
10
16.532103
20
9.143893
70
0
0
VERTEX
8
Image
10
16.395842
20
9.260475
70
0
0
VERTEX
8
Image
10
16.214845
20
9.143893
70
0
0
VERTEX
8
Image
10
16.139563
20
8.863600
70
0
0
VERTEX
8
Image
10
16.243547
20
8.466726
70
0
0
VERTEX
8
Image
10
16.499826
20
8.863600
70
0
0
VERTEX
8
Image
10
16.499826
20
8.863600
70
0
0
SEQEND
8
Image
0
POLYLINE
8
Image
62
7
70
0
10
0.000000
20
0.000000
66
1
0
VERTEX
8
Image
10
18.256227
20
10.054224
70
0
0
VERTEX
8
Image
10
18.178506
20
10.241086
70
0
0
VERTEX
8
Image
10
17.991644
20
10.318807
70
0
0
VERTEX
8
Image
10
17.804782
20
10.241086
70
0
0
VERTEX
8
Image
10
17.727061
20
10.054224
70
0
0
VERTEX
8
Image
10
17.804782
20
9.867362
70
0
0
VERTEX
8
Image
10
17.991644
20
9.789641
70
0
0
VERTEX
8
Image
10
18.178506
20
9.867362
70
0
0
VERTEX
8
Image
10
18.256227
20
10.054224
70
0
0
VERTEX
8
Image
10
18.256227
20
10.054224
70
0
0
SEQEND
8
Image
0
POLYLINE
8
Image
62
7
70
0
10
0.000000
20
0.000000
66
1
0
VERTEX
8
Image
10
42.862446
20
11.503681
70
0
0
VERTEX
8
Image
10
42.291850
20
15.383022
70
0
0
VERTEX
8
Image
10
41.546363
20
19.120012
70
0
0
VERTEX
8
Image
10
41.358423
20
19.493695
70
0
0
VERTEX
8
Image
10
41.311582
20
19.252069
70
0
0
VERTEX
8
Image
10
41.663581
20
16.404216
70
0
0
VERTEX
8
Image
10
42.210479
20
12.369325
70
0
0
VERTEX
8
Image
10
42.393065
20
11.481732
70
0
0
VERTEX
8
Image
10
42.614074
20
11.112556
70
0
0
VERTEX
8
Image
10
42.789487
20
11.227449
70
0
0
VERTEX
8
Image
10
42.862446
20
11.503681
70
0
0
VERTEX
8
Image
10
42.862446
20
11.503681
70
0
0
SEQEND
8
Image
0
POLYLINE
8
Image
62
7
70
0
10
0.000000
20
0.000000
66
1
0
VERTEX
8
Image
10
19.722390
20
16.602653
70
0
0
VERTEX
8
Image
10
19.738827
20
23.766513
70
0
0
VERTEX
8
Image
10
19.540467
20
34.463278
70
0
0
VERTEX
8
Image
10
19.234282
20
44.332585
70
0
0
VERTEX
8
Image
10
18.927245
20
49.014071
70
0
0
VERTEX
8
Image
10
18.637954
20
49.402831
70
0
0
VERTEX
8
Image
10
18.320869
20
49.489613
70
0
0
VERTEX
8
Image
10
18.097959
20
49.298076
70
0
0
VERTEX
8
Image
10
18.091195
20
48.851884
70
0
0
VERTEX
8
Image
10
18.410186
20
47.092759
70
0
0
VERTEX
8
Image
10
18.663624
20
44.447004
70
0
0
VERTEX
8
Image
10
19.076578
20
35.057317
70
0
0
VERTEX
8
Image
10
19.228784
20
21.121685
70
0
0
VERTEX
8
Image
10
19.117070
20
15.563175
70
0
0
VERTEX
8
Image
10
18.892832
20
12.501617
70
0
0
VERTEX
8
Image
10
18.844514
20
11.822878
70
0
0
VERTEX
8
Image
10
19.123552
20
11.641722
70
0
0
VERTEX
8
Image
10
19.334110
20
11.833005
70
0
0
VERTEX
8
Image
10
19.484986
20
12.565222
70
0
0
VERTEX
8
Image
10
19.722390
20
16.602653
70
0
0
VERTEX
8
Image
10
19.722390
20
16.602653
70
0
0
SEQEND
8
Image
0
POLYLINE
8
Image
62
7
70
1
10
0.000000
20
0.000000
66
1
0
VERTEX
8
Image
10
22.489555
20
14.816718
70
0
0
VERTEX
8
Image
10
22.240587
20
15.081301
70
0
0
VERTEX
8
Image
10
21.828098
20
14.816718
70
0
0
VERTEX
8
Image
10
21.833779
20
14.629856
70
0
0
VERTEX
8
Image
10
22.077066
20
14.552135
70
0
0
VERTEX
8
Image
10
22.368386
20
14.629856
70
0
0
VERTEX
8
Image
10
22.489555
20
14.816718
70
0
0
VERTEX
8
Image
10
22.489555
20
14.816718
70
0
0
SEQEND
8
Image
0
POLYLINE
8
Image
62
7
70
0
10
0.000000
20
0.000000
66
1
0
VERTEX
8
Image
10
24.077053
20
15.462560
70
0
0
VERTEX
8
Image
10
23.812470
20
15.742758
70
0
0
VERTEX
8
Image
10
23.625608
20
15.775938
70
0
0
VERTEX
8
Image
10
23.547887
20
15.626083
70
0
0
VERTEX
8
Image
10
23.625608
20
15.428192
70
0
0
VERTEX
8
Image
10
23.812470
20
15.345884
70
0
0
VERTEX
8
Image
10
24.077053
20
15.462560
70
0
0
VERTEX
8
Image
10
24.077053
20
15.462560
70
0
0
SEQEND
8
Image
0
POLYLINE
8
Image
62
7
70
0
10
0.000000
20
0.000000
66
1
0
VERTEX
8
Image
10
23.126091
20
16.489769
70
0
0
VERTEX
8
Image
10
23.843828
20
16.974223
70
0
0
VERTEX
8
Image
10
24.118277
20
17.330256
70
0
0
VERTEX
8
Image
10
23.603405
20
17.517118
70
0
0
VERTEX
8
Image
10
22.423409
20
17.594839
70
0
0
VERTEX
8
Image
10
20.769766
20
17.594839
70
0
0
VERTEX
8
Image
10
20.685670
20
16.569464
70
0
0
VERTEX
8
Image
10
20.711630
20
15.704635
70
0
0
VERTEX
8
Image
10
20.924079
20
15.642645
70
0
0
VERTEX
8
Image
10
21.347127
20
15.728976
70
0
0
VERTEX
8
Image
10
23.126091
20
16.489769
70
0
0
VERTEX
8
Image
10
23.126091
20
16.489769
70
0
0
SEQEND
8
Image
0
POLYLINE
8
Image
62
7
70
0
10
0.000000
20
0.000000
66
1
0
VERTEX
8
Image
10
75.362057
20
16.867236
70
0
0
VERTEX
8
Image
10
73.971168
20
19.517380
70
0
0
VERTEX
8
Image
10
72.861819
20
21.356400
70
0
0
VERTEX
8
Image
10
73.133477
20
20.565778
70
0
0
VERTEX
8
Image
10
73.898070
20
18.973617
70
0
0
VERTEX
8
Image
10
75.229765
20
16.688868
70
0
0
VERTEX
8
Image
10
75.359578
20
16.732987
70
0
0
VERTEX
8
Image
10
75.362057
20
16.867236
70
0
0
VERTEX
8
Image
10
75.362057
20
16.867236
70
0
0
SEQEND
8
Image
0
POLYLINE
8
Image
62
7
70
1
10
0.000000
20
0.000000
66
1
0
VERTEX
8
Image
10
25.929134
20
17.478164
70
0
0
VERTEX
8
Image
10
25.812552
20
17.653997
70
0
0
VERTEX
8
Image
10
25.532260
20
17.727131
70
0
0
VERTEX
8
Image
10
25.153249
20
17.533786
70
0
0
VERTEX
8
Image
10
25.304581
20
17.116963
70
0
0
VERTEX
8
Image
10
25.696126
20
17.093182
70
0
0
VERTEX
8
Image
10
25.929134
20
17.478164
70
0
0
VERTEX
8
Image
10
25.929134
20
17.478164
70
0
0
SEQEND
8
Image
0
POLYLINE
8
Image
62
7
70
0
10
0.000000
20
0.000000
66
1
0
VERTEX
8
Image
10
16.672151
20
19.248483
70
0
0
VERTEX
8
Image
10
16.076840
20
21.628399
70
0
0
VERTEX
8
Image
10
15.486823
20
23.409928
70
0
0
VERTEX
8
Image
10
15.231794
20
23.728626
70
0
0
VERTEX
8
Image
10
14.926891
20
23.811209
70
0
0
VERTEX
8
Image
10
14.444571
20
23.760188
70
0
0
VERTEX
8
Image
10
14.223053
20
23.523399
70
0
0
VERTEX
8
Image
10
14.228930
20
22.980014
70
0
0
VERTEX
8
Image
10
14.428795
20
22.009208
70
0
0
VERTEX
8
Image
10
15.154018
20
19.589932
70
0
0
VERTEX
8
Image
10
15.522364
20
19.160029
70
0
0
VERTEX
8
Image
10
16.000723
20
19.050046
70
0
0
VERTEX
8
Image
10
16.473508
20
19.108337
70
0
0
VERTEX
8
Image
10
16.672151
20
19.248483
70
0
0
VERTEX
8
Image
10
16.672151
20
19.248483
70
0
0
SEQEND
8
Image
0
POLYLINE
8
Image
62
7
70
0
10
0.000000
20
0.000000
66
1
0
VERTEX
8
Image
10
29.434859
20
19.489857
70
0
0
VERTEX
8
Image
10
28.773401
20
19.489857
70
0
0
VERTEX
8
Image
10
28.734127
20
19.395606
70
0
0
VERTEX
8
Image
10
29.104130
20
19.356404
70
0
0
VERTEX
8
Image
10
29.474133
20
19.395606
70
0
0
VERTEX
8
Image
10
29.434859
20
19.489857
70
0
0
VERTEX
8
Image
10
29.434859
20
19.489857
70
0
0
SEQEND
8
Image
0
POLYLINE
8
Image
62
7
70
1
10
0.000000
20
0.000000
66
1
0
VERTEX
8
Image
10
22.754138
20
19.814903
70
0
0
VERTEX
8
Image
10
22.230783
20
21.203963
70
0
0
VERTEX
8
Image
10
21.859456
20
22.271125
70
0
0
VERTEX
8
Image
10
21.701617
20
23.217228
70
0
0
VERTEX
8
Image
10
21.589686
20
23.902764
70
0
0
VERTEX
8
Image
10
21.166640
20
24.077123
70
0
0
VERTEX
8
Image
10
20.879715
20
24.019934
70
0
0
VERTEX
8
Image
10
20.720508
20
23.751906
70
0
0
VERTEX
8
Image
10
20.637474
20
22.004557
70
0
0
VERTEX
8
Image
10
20.813863
20
19.755602
70
0
0
VERTEX
8
Image
10
21.228399
20
19.615241
70
0
0
VERTEX
8
Image
10
21.882995
20
19.584237
70
0
0
VERTEX
8
Image
10
22.488093
20
19.653741
70
0
0
VERTEX
8
Image
10
22.754138
20
19.814903
70
0
0
VERTEX
8
Image
10
22.754138
20
19.814903
70
0
0
SEQEND
8
Image
0
POLYLINE
8
Image
62
7
70
1
10
0.000000
20
0.000000
66
1
0
VERTEX
8
Image
10
27.516632
20
20.011707
70
0
0
VERTEX
8
Image
10
26.855135
20
21.375233
70
0
0
VERTEX
8
Image
10
26.026888
20
23.545925
70
0
0
VERTEX
8
Image
10
25.760473
20
24.503980
70
0
0
VERTEX
8
Image
10
25.334792
20
24.962812
70
0
0
VERTEX
8
Image
10
24.651945
20
24.962958
70
0
0
VERTEX
8
Image
10
23.614033
20
24.544951
70
0
0
VERTEX
8
Image
10
23.164262
20
24.142974
70
0
0
VERTEX
8
Image
10
23.018721
20
23.512495
70
0
0
VERTEX
8
Image
10
23.411893
20
21.628455
70
0
0
VERTEX
8
Image
10
24.082630
20
19.976086
70
0
0
VERTEX
8
Image
10
24.704466
20
19.839841
70
0
0
VERTEX
8
Image
10
25.875430
20
19.804422
70
0
0
VERTEX
8
Image
10
27.008494
20
19.863740
70
0
0
VERTEX
8
Image
10
27.516632
20
20.011707
70
0
0
VERTEX
8
Image
10
27.516632
20
20.011707
70
0
0
SEQEND
8
Image
0
POLYLINE
8
Image
62
7
70
0
10
0.000000
20
0.000000
66
1
0
VERTEX
8
Image
10
30.757774
20
19.754440
70
0
0
VERTEX
8
Image
10
30.096316
20
19.754440
70
0
0
VERTEX
8
Image
10
30.057042
20
19.660189
70
0
0
VERTEX
8
Image
10
30.427045
20
19.620987
70
0
0
VERTEX
8
Image
10
30.797048
20
19.660189
70
0
0
VERTEX
8
Image
10
30.757774
20
19.754440
70
0
0
VERTEX
8
Image
10
30.757774
20
19.754440
70
0
0
SEQEND
8
Image
0
POLYLINE
8
Image
62
7
70
1
10
0.000000
20
0.000000
66
1
0
VERTEX
8
Image
10
13.229150
20
20.068897
70
0
0
VERTEX
8
Image
10
12.943729
20
21.112756
70
0
0
VERTEX
8
Image
10
12.597251
20
21.756281
70
0
0
VERTEX
8
Image
10
12.000464
20
21.681406
70
0
0
VERTEX
8
Image
10
10.764533
20
21.427242
70
0
0
VERTEX
8
Image
10
9.823863
20
21.183033
70
0
0
VERTEX
8
Image
10
9.565371
20
20.966139
70
0
0
VERTEX
8
Image
10
9.579109
20
20.759813
70
0
0
VERTEX
8
Image
10
10.405536
20
20.326539
70
0
0
VERTEX
8
Image
10
11.631781
20
20.002143
70
0
0
VERTEX
8
Image
10
12.744200
20
19.883854
70
0
0
VERTEX
8
Image
10
13.097212
20
19.932382
70
0
0
VERTEX
8
Image
10
13.229150
20
20.068897
70
0
0
VERTEX
8
Image
10
13.229150
20
20.068897
70
0
0
SEQEND
8
Image
0
POLYLINE
8
Image
62
7
70
0
10
0.000000
20
0.000000
66
1
0
VERTEX
8
Image
10
33.337458
20
20.112810
70
0
0
VERTEX
8
Image
10
33.793415
20
20.169993
70
0
0
VERTEX
8
Image
10
33.562340
20
20.379353
70
0
0
VERTEX
8
Image
10
33.017159
20
20.473749
70
0
0
VERTEX
8
Image
10
32.239425
20
20.224503
70
0
0
VERTEX
8
Image
10
31.702221
20
19.939492
70
0
0
VERTEX
8
Image
10
32.014543
20
19.957960
70
0
0
VERTEX
8
Image
10
33.337458
20
20.112810
70
0
0
VERTEX
8
Image
10
33.337458
20
20.112810
70
0
0
SEQEND
8
Image
0
POLYLINE
8
Image
62
7
70
0
10
0.000000
20
0.000000
66
1
0
VERTEX
8
Image
10
41.191104
20
20.422570
70
0
0
VERTEX
8
Image
10
41.084267
20
20.537378
70
0
0
VERTEX
8
Image
10
41.031254
20
20.262717
70
0
0
VERTEX
8
Image
10
41.063460
20
19.951523
70
0
0
VERTEX
8
Image
10
41.170218
20
19.915452
70
0
0
VERTEX
8
Image
10
41.191094
20
20.422570
70
0
0
VERTEX
8
Image
10
41.191104
20
20.422570
70
0
0
SEQEND
8
Image
0
POLYLINE
8
Image
62
7
70
0
10
0.000000
20
0.000000
66
1
0
VERTEX
8
Image
10
36.919409
20
20.752111
70
0
0
VERTEX
8
Image
10
37.460567
20
21.189543
70
0
0
VERTEX
8
Image
10
37.543492
20
21.438607
70
0
0
VERTEX
8
Image
10
37.215272
20
21.449417
70
0
0
VERTEX
8
Image
10
36.522995
20
21.172086
70
0
0
VERTEX
8
Image
10
34.951113
20
20.637544
70
0
0
VERTEX
8
Image
10
34.525626
20
20.547994
70
0
0
VERTEX
8
Image
10
34.238609
20
20.332691
70
0
0
VERTEX
8
Image
10
34.240859
20
20.200059
70
0
0
VERTEX
8
Image
10
34.426235
20
20.134073
70
0
0
VERTEX
8
Image
10
35.170313
20
20.174495
70
0
0
VERTEX
8
Image
10
36.118739
20
20.398870
70
0
0
VERTEX
8
Image
10
36.919409
20
20.752111
70
0
0
VERTEX
8
Image
10
36.919409
20
20.752111
70
0
0
SEQEND
8
Image
0
POLYLINE
8
Image
62
7
70
1
10
0.000000
20
0.000000
66
1
0
VERTEX
8
Image
10
18.256227
20
20.843456
70
0
0
VERTEX
8
Image
10
17.818345
20
21.476605
70
0
0
VERTEX
8
Image
10
17.515934
20
21.964321
70
0
0
VERTEX
8
Image
10
17.841536
20
22.469940
70
0
0
VERTEX
8
Image
10
18.150381
20
22.977193
70
0
0
VERTEX
8
Image
10
18.190423
20
23.457093
70
0
0
VERTEX
8
Image
10
17.977117
20
23.833276
70
0
0
VERTEX
8
Image
10
17.525920
20
24.029379
70
0
0
VERTEX
8
Image
10
17.206119
20
24.041098
70
0
0
VERTEX
8
Image
10
17.027655
20
23.910732
70
0
0
VERTEX
8
Image
10
16.933312
20
22.922126
70
0
0
VERTEX
8
Image
10
17.002429
20
21.857082
70
0
0
VERTEX
8
Image
10
17.194089
20
21.064052
70
0
0
VERTEX
8
Image
10
17.484753
20
20.604181
70
0
0
VERTEX
8
Image
10
17.850882
20
20.538614
70
0
0
VERTEX
8
Image
10
18.256227
20
20.843456
70
0
0
VERTEX
8
Image
10
18.256227
20
20.843456
70
0
0
SEQEND
8
Image
0
POLYLINE
8
Image
62
7
70
0
10
0.000000
20
0.000000
66
1
0
VERTEX
8
Image
10
31.103631
20
20.668953
70
0
0
VERTEX
8
Image
10
31.933824
20
20.939140
70
0
0
VERTEX
8
Image
10
32.279126
20
21.173086
70
0
0
VERTEX
8
Image
10
31.368267
20
22.471453
70
0
0
VERTEX
8
Image
10
30.642907
20
23.583097
70
0
0
VERTEX
8
Image
10
30.281202
20
24.736731
70
0
0
VERTEX
8
Image
10
30.027337
20
25.672446
70
0
0
VERTEX
8
Image
10
29.599580
20
26.072198
70
0
0
VERTEX
8
Image
10
28.928609
20
26.045718
70
0
0
VERTEX
8
Image
10
28.109809
20
25.742245
70
0
0
VERTEX
8
Image
10
27.429269
20
25.303417
70
0
0
VERTEX
8
Image
10
27.173079
20
24.870872
70
0
0
VERTEX
8
Image
10
27.747749
20
22.655051
70
0
0
VERTEX
8
Image
10
28.410658
20
20.689344
70
0
0
VERTEX
8
Image
10
28.721008
20
20.465320
70
0
0
VERTEX
8
Image
10
29.279144
20
20.387202
70
0
0
VERTEX
8
Image
10
31.103631
20
20.668945
70
0
0
VERTEX
8
Image
10
31.103631
20
20.668953
70
0
0
SEQEND
8
Image
0
POLYLINE
8
Image
62
7
70
0
10
0.000000
20
0.000000
66
1
0
VERTEX
8
Image
10
36.139146
20
21.754756
70
0
0
VERTEX
8
Image
10
36.577704
20
22.005177
70
0
0
VERTEX
8
Image
10
36.746879
20
22.242660
70
0
0
VERTEX
8
Image
10
36.648736
20
22.481040
70
0
0
VERTEX
8
Image
10
36.285341
20
22.734155
70
0
0
VERTEX
8
Image
10
35.746394
20
23.169191
70
0
0
VERTEX
8
Image
10
35.261618
20
23.849324
70
0
0
VERTEX
8
Image
10
34.854540
20
24.733293
70
0
0
VERTEX
8
Image
10
34.548687
20
25.779836
70
0
0
VERTEX
8
Image
10
34.286657
20
26.666696
70
0
0
VERTEX
8
Image
10
33.913251
20
27.116568
70
0
0
VERTEX
8
Image
10
33.295155
20
27.201341
70
0
0
VERTEX
8
Image
10
32.299052
20
26.992902
70
0
0
VERTEX
8
Image
10
31.470671
20
26.655659
70
0
0
VERTEX
8
Image
10
31.220794
20
26.209842
70
0
0
VERTEX
8
Image
10
32.045551
20
24.139336
70
0
0
VERTEX
8
Image
10
33.439674
20
21.473677
70
0
0
VERTEX
8
Image
10
33.799720
20
21.281180
70
0
0
VERTEX
8
Image
10
34.443730
20
21.271575
70
0
0
VERTEX
8
Image
10
36.139146
20
21.754756
70
0
0
VERTEX
8
Image
10
36.139146
20
21.754756
70
0
0
SEQEND
8
Image
0
POLYLINE
8
Image
62
7
70
0
10
0.000000
20
0.000000
66
1
0
VERTEX
8
Image
10
39.846316
20
23.860337
70
0
0
VERTEX
8
Image
10
39.941577
20
25.892506
70
0
0
VERTEX
8
Image
10
39.025104
20
26.458920
70
0
0
VERTEX
8
Image
10
37.586246
20
27.689435
70
0
0
VERTEX
8
Image
10
37.132063
20
28.112040
70
0
0
VERTEX
8
Image
10
36.674943
20
28.242560
70
0
0
VERTEX
8
Image
10
36.230701
20
28.081529
70
0
0
VERTEX
8
Image
10
35.815156
20
27.629483
70
0
0
VERTEX
8
Image
10
35.653840
20
27.272934
70
0
0
VERTEX
8
Image
10
35.690227
20
26.827048
70
0
0
VERTEX
8
Image
10
36.544580
20
24.983653
70
0
0
VERTEX
8
Image
10
38.120323
20
22.399967
70
0
0
VERTEX
8
Image
10
38.714532
20
21.863670
70
0
0
VERTEX
8
Image
10
39.246544
20
21.751018
70
0
0
VERTEX
8
Image
10
39.512555
20
21.861840
70
0
0
VERTEX
8
Image
10
39.679010
20
22.172335
70
0
0
VERTEX
8
Image
10
39.846316
20
23.860337
70
0
0
VERTEX
8
Image
10
39.846316
20
23.860337
70
0
0
SEQEND
8
Image
0
POLYLINE
8
Image
62
7
70
0
10
0.000000
20
0.000000
66
1
0
VERTEX
8
Image
10
40.921010
20
22.555771
70
0
0
VERTEX
8
Image
10
40.826759
20
22.595045
70
0
0
VERTEX
8
Image
10
40.787557
20
22.225042
70
0
0
VERTEX
8
Image
10
40.826759
20
21.855039
70
0
0
VERTEX
8
Image
10
40.921010
20
21.894313
70
0
0
VERTEX
8
Image
10
40.921010
20
22.555771
70
0
0
VERTEX
8
Image
10
40.921010
20
22.555771
70
0
0
SEQEND
8
Image
0
POLYLINE
8
Image
62
7
70
0
10
0.000000
20
0.000000
66
1
0
VERTEX
8
Image
10
76.502553
20
22.688062
70
0
0
VERTEX
8
Image
10
75.828313
20
24.183893
70
0
0
VERTEX
8
Image
10
75.482011
20
24.870068
70
0
0
VERTEX
8
Image
10
75.251982
20
25.069479
70
0
0
VERTEX
8
Image
10
75.319736
20
24.538402
70
0
0
VERTEX
8
Image
10
75.691206
20
23.570253
70
0
0
VERTEX
8
Image
10
76.156662
20
22.640607
70
0
0
VERTEX
8
Image
10
76.506378
20
22.225042
70
0
0
VERTEX
8
Image
10
76.613244
20
22.353010
70
0
0
VERTEX
8
Image
10
76.502542
20
22.688062
70
0
0
VERTEX
8
Image
10
76.502553
20
22.688062
70
0
0
SEQEND
8
Image
0
POLYLINE
8
Image
62
7
70
0
10
0.000000
20
0.000000
66
1
0
VERTEX
8
Image
10
44.397607
20
23.338153
70
0
0
VERTEX
8
Image
10
45.411343
20
23.997666
70
0
0
VERTEX
8
Image
10
44.813677
20
23.902840
70
0
0
VERTEX
8
Image
10
43.675568
20
23.497947
70
0
0
VERTEX
8
Image
10
42.570656
20
23.011054
70
0
0
VERTEX
8
Image
10
42.072581
20
22.670232
70
0
0
VERTEX
8
Image
10
42.226423
20
22.562869
70
0
0
VERTEX
8
Image
10
42.680231
20
22.642714
70
0
0
VERTEX
8
Image
10
44.397607
20
23.338153
70
0
0
VERTEX
8
Image
10
44.397607
20
23.338153
70
0
0
SEQEND
8
Image
0
POLYLINE
8
Image
62
7
70
0
10
0.000000
20
0.000000
66
1
0
VERTEX
8
Image
10
11.443215
20
23.561869
70
0
0
VERTEX
8
Image
10
12.206975
20
23.892939
70
0
0
VERTEX
8
Image
10
12.435401
20
24.354141
70
0
0
VERTEX
8
Image
10
12.353820
20
24.719082
70
0
0
VERTEX
8
Image
10
12.157679
20
24.870872
70
0
0
VERTEX
8
Image
10
11.092424
20
24.455877
70
0
0
VERTEX
8
Image
10
10.068633
20
23.697695
70
0
0
VERTEX
8
Image
10
9.897975
20
23.403530
70
0
0
VERTEX
8
Image
10
10.046182
20
23.285209
70
0
0
VERTEX
8
Image
10
11.443215
20
23.561869
70
0
0
VERTEX
8
Image
10
11.443215
20
23.561869
70
0
0
SEQEND
8
Image
0
POLYLINE
8
Image
62
7
70
0
10
0.000000
20
0.000000
66
1
0
VERTEX
8
Image
10
44.155241
20
24.745685
70
0
0
VERTEX
8
Image
10
45.947771
20
25.410489
70
0
0
VERTEX
8
Image
10
48.256277
20
26.077278
70
0
0
VERTEX
8
Image
10
51.253699
20
26.869643
70
0
0
VERTEX
8
Image
10
52.929319
20
27.470399
70
0
0
VERTEX
8
Image
10
53.367257
20
27.746598
70
0
0
VERTEX
8
Image
10
53.589710
20
28.032106
70
0
0
VERTEX
8
Image
10
53.541447
20
28.707325
70
0
0
VERTEX
8
Image
10
53.329371
20
28.987618
70
0
0
VERTEX
8
Image
10
53.033350
20
29.104200
70
0
0
VERTEX
8
Image
10
47.145770
20
27.441676
70
0
0
VERTEX
8
Image
10
41.292739
20
25.472478
70
0
0
VERTEX
8
Image
10
40.649072
20
25.059890
70
0
0
VERTEX
8
Image
10
41.255903
20
24.568507
70
0
0
VERTEX
8
Image
10
41.803385
20
24.213269
70
0
0
VERTEX
8
Image
10
42.362354
20
24.117863
70
0
0
VERTEX
8
Image
10
43.092932
20
24.292073
70
0
0
VERTEX
8
Image
10
44.155241
20
24.745685
70
0
0
VERTEX
8
Image
10
44.155241
20
24.745685
70
0
0
SEQEND
8
Image
0
POLYLINE
8
Image
62
7
70
0
10
0.000000
20
0.000000
66
1
0
VERTEX
8
Image
10
15.098625
20
25.409346
70
0
0
VERTEX
8
Image
10
15.460064
20
25.760728
70
0
0
VERTEX
8
Image
10
15.610397
20
26.220925
70
0
0
VERTEX
8
Image
10
15.493468
20
26.617155
70
0
0
VERTEX
8
Image
10
15.015085
20
26.576109
70
0
0
VERTEX
8
Image
10
14.086103
20
26.111117
70
0
0
VERTEX
8
Image
10
13.841962
20
25.819434
70
0
0
VERTEX
8
Image
10
13.758316
20
25.499934
70
0
0
VERTEX
8
Image
10
13.867035
20
25.249779
70
0
0
VERTEX
8
Image
10
14.159925
20
25.149048
70
0
0
VERTEX
8
Image
10
15.098625
20
25.409346
70
0
0
VERTEX
8
Image
10
15.098625
20
25.409346
70
0
0
SEQEND
8
Image
0
POLYLINE
8
Image
62
7
70
1
10
0.000000
20
0.000000
66
1
0
VERTEX
8
Image
10
69.849912
20
26.297009
70
0
0
VERTEX
8
Image
10
69.572602
20
26.801124
70
0
0
VERTEX
8
Image
10
68.837438
20
27.590883
70
0
0
VERTEX
8
Image
10
66.574154
20
29.562842
70
0
0
VERTEX
8
Image
10
64.221262
20
31.283902
70
0
0
VERTEX
8
Image
10
63.374091
20
31.760037
70
0
0
VERTEX
8
Image
10
62.939970
20
31.825079
70
0
0
VERTEX
8
Image
10
63.021329
20
31.517756
70
0
0
VERTEX
8
Image
10
63.525871
20
30.859851
70
0
0
VERTEX
8
Image
10
65.794519
20
28.503909
70
0
0
VERTEX
8
Image
10
68.406734
20
26.077673
70
0
0
VERTEX
8
Image
10
69.019165
20
25.693849
70
0
0
VERTEX
8
Image
10
69.381166
20
25.696958
70
0
0
VERTEX
8
Image
10
69.712218
20
25.976704
70
0
0
VERTEX
8
Image
10
69.849912
20
26.297009
70
0
0
VERTEX
8
Image
10
69.849912
20
26.297009
70
0
0
SEQEND
8
Image
0
POLYLINE
8
Image
62
7
70
0
10
0.000000
20
0.000000
66
1
0
VERTEX
8
Image
10
18.198504
20
26.682075
70
0
0
VERTEX
8
Image
10
18.130479
20
26.890253
70
0
0
VERTEX
8
Image
10
17.825067
20
26.974874
70
0
0
VERTEX
8
Image
10
16.965561
20
26.748483
70
0
0
VERTEX
8
Image
10
16.759335
20
26.502382
70
0
0
VERTEX
8
Image
10
16.775544
20
26.235009
70
0
0
VERTEX
8
Image
10
17.064806
20
26.099083
70
0
0
VERTEX
8
Image
10
17.508981
20
26.163033
70
0
0
VERTEX
8
Image
10
17.942177
20
26.374738
70
0
0
VERTEX
8
Image
10
18.198504
20
26.682075
70
0
0
VERTEX
8
Image
10
18.198504
20
26.682075
70
0
0
SEQEND
8
Image
0
POLYLINE
8
Image
62
7
70
0
10
0.000000
20
0.000000
66
1
0
VERTEX
8
Image
10
21.077285
20
27.847431
70
0
0
VERTEX
8
Image
10
20.983035
20
27.886705
70
0
0
VERTEX
8
Image
10
20.943833
20
27.516702
70
0
0
VERTEX
8
Image
10
20.983035
20
27.146699
70
0
0
VERTEX
8
Image
10
21.077285
20
27.185973
70
0
0
VERTEX
8
Image
10
21.077285
20
27.847431
70
0
0
VERTEX
8
Image
10
21.077285
20
27.847431
70
0
0
SEQEND
8
Image
0
POLYLINE
8
Image
62
7
70
0
10
0.000000
20
0.000000
66
1
0
VERTEX
8
Image
10
44.383798
20
27.616220
70
0
0
VERTEX
8
Image
10
45.772859
20
28.283694
70
0
0
VERTEX
8
Image
10
45.236434
20
30.213957
70
0
0
VERTEX
8
Image
10
44.285929
20
32.329451
70
0
0
VERTEX
8
Image
10
42.994976
20
33.997189
70
0
0
VERTEX
8
Image
10
41.171432
20
35.819966
70
0
0
VERTEX
8
Image
10
38.961768
20
37.664599
70
0
0
VERTEX
8
Image
10
36.512454
20
39.397900
70
0
0
VERTEX
8
Image
10
35.953483
20
39.748461
70
0
0
VERTEX
8
Image
10
35.895730
20
39.760797
70
0
0
VERTEX
8
Image
10
36.020323
20
39.632792
70
0
0
VERTEX
8
Image
10
38.860043
20
37.241717
70
0
0
VERTEX
8
Image
10
40.588858
20
35.672759
70
0
0
VERTEX
8
Image
10
42.085997
20
34.054804
70
0
0
VERTEX
8
Image
10
43.279348
20
32.473597
70
0
0
VERTEX
8
Image
10
44.096800
20
31.014883
70
0
0
VERTEX
8
Image
10
44.595452
20
29.628887
70
0
0
VERTEX
8
Image
10
44.632327
20
28.746455
70
0
0
VERTEX
8
Image
10
44.475622
20
28.487650
70
0
0
VERTEX
8
Image
10
44.201101
20
28.347025
70
0
0
VERTEX
8
Image
10
43.295447
20
28.410032
70
0
0
VERTEX
8
Image
10
42.284957
20
29.027753
70
0
0
VERTEX
8
Image
10
40.658885
20
30.452000
70
0
0
VERTEX
8
Image
10
36.218619
20
35.097666
70
0
0
VERTEX
8
Image
10
26.929792
20
45.228770
70
0
0
VERTEX
8
Image
10
24.122187
20
47.986062
70
0
0
VERTEX
8
Image
10
23.259229
20
48.703450
70
0
0
VERTEX
8
Image
10
22.787937
20
48.947925
70
0
0
VERTEX
8
Image
10
22.509534
20
48.869877
70
0
0
VERTEX
8
Image
10
22.550725
20
48.656325
70
0
0
VERTEX
8
Image
10
23.503605
20
47.946272
70
0
0
VERTEX
8
Image
10
24.279953
20
47.368694
70
0
0
VERTEX
8
Image
10
24.495791
20
46.773074
70
0
0
VERTEX
8
Image
10
24.618984
20
46.287249
70
0
0
VERTEX
8
Image
10
25.089468
20
46.082605
70
0
0
VERTEX
8
Image
10
25.512497
20
45.922273
70
0
0
VERTEX
8
Image
10
25.560792
20
45.619585
70
0
0
VERTEX
8
Image
10
25.587122
20
45.338804
70
0
0
VERTEX
8
Image
10
25.946747
20
45.243763
70
0
0
VERTEX
8
Image
10
26.328078
20
45.146930
70
0
0
VERTEX
8
Image
10
26.193717
20
44.714597
70
0
0
VERTEX
8
Image
10
26.073489
20
44.275832
70
0
0
VERTEX
8
Image
10
26.581283
20
44.185431
70
0
0
VERTEX
8
Image
10
27.104461
20
44.065563
70
0
0
VERTEX
8
Image
10
27.252049
20
43.640649
70
0
0
VERTEX
8
Image
10
27.324400
20
43.300613
70
0
0
VERTEX
8
Image
10
27.498349
20
43.248090
70
0
0
VERTEX
8
Image
10
27.759873
20
43.287807
70
0
0
VERTEX
8
Image
10
27.915946
20
43.100834
70
0
0
VERTEX
8
Image
10
27.931532
20
42.788979
70
0
0
VERTEX
8
Image
10
27.771597
20
42.454053
70
0
0
VERTEX
8
Image
10
27.608491
20
42.207413
70
0
0
VERTEX
8
Image
10
27.657472
20
42.072828
70
0
0
VERTEX
8
Image
10
28.543391
20
42.062946
70
0
0
VERTEX
8
Image
10
29.036385
20
41.989754
70
0
0
VERTEX
8
Image
10
29.001371
20
41.430775
70
0
0
VERTEX
8
Image
10
28.972757
20
40.862912
70
0
0
VERTEX
8
Image
10
29.495964
20
40.745852
70
0
0
VERTEX
8
Image
10
29.911156
20
40.684982
70
0
0
VERTEX
8
Image
10
30.132360
20
40.528410
70
0
0
VERTEX
8
Image
10
30.135845
20
40.315195
70
0
0
VERTEX
8
Image
10
29.897879
20
40.084394
70
0
0
VERTEX
8
Image
10
29.651940
20
39.846043
70
0
0
VERTEX
8
Image
10
29.673162
20
39.633667
70
0
0
VERTEX
8
Image
10
29.935131
20
39.481290
70
0
0
VERTEX
8
Image
10
30.411429
20
39.422937
70
0
0
VERTEX
8
Image
10
30.968568
20
39.358262
70
0
0
VERTEX
8
Image
10
31.303722
20
39.198351
70
0
0
VERTEX
8
Image
10
31.361618
20
38.994376
70
0
0
VERTEX
8
Image
10
31.086984
20
38.797508
70
0
0
VERTEX
8
Image
10
30.745322
20
38.578318
70
0
0
VERTEX
8
Image
10
30.719655
20
38.350802
70
0
0
VERTEX
8
Image
10
30.977251
20
38.172268
70
0
0
VERTEX
8
Image
10
31.485377
20
38.100022
70
0
0
VERTEX
8
Image
10
31.993809
20
38.027754
70
0
0
VERTEX
8
Image
10
32.251141
20
37.849134
70
0
0
VERTEX
8
Image
10
32.224810
20
37.621442
70
0
0
VERTEX
8
Image
10
31.882252
20
37.401954
70
0
0
VERTEX
8
Image
10
31.542982
20
37.195465
70
0
0
VERTEX
8
Image
10
31.514917
20
36.992769
70
0
0
VERTEX
8
Image
10
31.769739
20
36.838454
70
0
0
VERTEX
8
Image
10
32.279126
20
36.777107
70
0
0
VERTEX
8
Image
10
33.027326
20
36.599692
70
0
0
VERTEX
8
Image
10
33.016990
20
36.369156
70
0
0
VERTEX
8
Image
10
32.755375
20
36.036275
70
0
0
VERTEX
8
Image
10
32.652850
20
35.784921
70
0
0
VERTEX
8
Image
10
33.152250
20
35.718775
70
0
0
VERTEX
8
Image
10
33.593674
20
35.659024
70
0
0
VERTEX
8
Image
10
33.832473
20
35.504318
70
0
0
VERTEX
8
Image
10
33.843607
20
35.291475
70
0
0
VERTEX
8
Image
10
33.602041
20
35.057317
70
0
0
VERTEX
8
Image
10
33.348832
20
34.810121
70
0
0
VERTEX
8
Image
10
33.354267
20
34.596295
70
0
0
VERTEX
8
Image
10
33.578754
20
34.473761
70
0
0
VERTEX
8
Image
10
33.982699
20
34.500439
70
0
0
VERTEX
8
Image
10
34.465658
20
34.528648
70
0
0
VERTEX
8
Image
10
34.777116
20
34.395748
70
0
0
VERTEX
8
Image
10
34.831904
20
34.182286
70
0
0
VERTEX
8
Image
10
34.544851
20
33.968810
70
0
0
VERTEX
8
Image
10
34.195583
20
33.758982
70
0
0
VERTEX
8
Image
10
34.160269
20
33.554333
70
0
0
VERTEX
8
Image
10
34.412272
20
33.399102
70
0
0
VERTEX
8
Image
10
34.924956
20
33.337528
70
0
0
VERTEX
8
Image
10
35.437640
20
33.275954
70
0
0
VERTEX
8
Image
10
35.689643
20
33.120723
70
0
0
VERTEX
8
Image
10
35.654329
20
32.916074
70
0
0
VERTEX
8
Image
10
35.305061
20
32.706246
70
0
0
VERTEX
8
Image
10
35.030324
20
32.489966
70
0
0
VERTEX
8
Image
10
35.083426
20
32.259661
70
0
0
VERTEX
8
Image
10
35.381226
20
32.106249
70
0
0
VERTEX
8
Image
10
35.840583
20
32.120647
70
0
0
VERTEX
8
Image
10
36.334249
20
32.182268
70
0
0
VERTEX
8
Image
10
36.591882
20
32.076030
70
0
0
VERTEX
8
Image
10
36.598652
20
31.822132
70
0
0
VERTEX
8
Image
10
36.339732
20
31.440772
70
0
0
VERTEX
8
Image
10
36.102296
20
31.025576
70
0
0
VERTEX
8
Image
10
36.868321
20
30.956281
70
0
0
VERTEX
8
Image
10
37.499835
20
30.924099
70
0
0
VERTEX
8
Image
10
37.776951
20
30.797225
70
0
0
VERTEX
8
Image
10
37.725758
20
30.530164
70
0
0
VERTEX
8
Image
10
37.372349
20
30.077421
70
0
0
VERTEX
8
Image
10
37.101735
20
29.643757
70
0
0
VERTEX
8
Image
10
37.896668
20
29.708439
70
0
0
VERTEX
8
Image
10
38.603659
20
29.743310
70
0
0
VERTEX
8
Image
10
39.004644
20
29.607616
70
0
0
VERTEX
8
Image
10
39.057913
20
29.338525
70
0
0
VERTEX
8
Image
10
38.721759
20
28.973202
70
0
0
VERTEX
8
Image
10
38.371127
20
28.638871
70
0
0
VERTEX
8
Image
10
38.699217
20
28.431815
70
0
0
VERTEX
8
Image
10
39.691141
20
28.388080
70
0
0
VERTEX
8
Image
10
40.128349
20
28.406108
70
0
0
VERTEX
8
Image
10
40.373189
20
28.244897
70
0
0
VERTEX
8
Image
10
40.376652
20
27.987141
70
0
0
VERTEX
8
Image
10
40.089727
20
27.715533
70
0
0
VERTEX
8
Image
10
39.807650
20
27.469272
70
0
0
VERTEX
8
Image
10
39.904560
20
27.286470
70
0
0
VERTEX
8
Image
10
40.945274
20
27.117952
70
0
0
VERTEX
8
Image
10
42.631732
20
27.223396
70
0
0
VERTEX
8
Image
10
44.383798
20
27.616220
70
0
0
VERTEX
8
Image
10
44.383798
20
27.616220
70
0
0
SEQEND
8
Image
0
POLYLINE
8
Image
62
7
70
0
10
0.000000
20
0.000000
66
1
0
VERTEX
8
Image
10
24.804656
20
27.808444
70
0
0
VERTEX
8
Image
10
25.179691
20
28.046643
70
0
0
VERTEX
8
Image
10
25.374901
20
28.367728
70
0
0
VERTEX
8
Image
10
25.369197
20
28.699094
70
0
0
VERTEX
8
Image
10
25.141490
20
28.968136
70
0
0
VERTEX
8
Image
10
24.623608
20
29.006999
70
0
0
VERTEX
8
Image
10
23.820061
20
28.833752
70
0
0
VERTEX
8
Image
10
23.016255
20
28.532626
70
0
0
VERTEX
8
Image
10
22.497598
20
28.187851
70
0
0
VERTEX
8
Image
10
22.275108
20
27.646996
70
0
0
VERTEX
8
Image
10
22.658790
20
27.391416
70
0
0
VERTEX
8
Image
10
23.538641
20
27.439202
70
0
0
VERTEX
8
Image
10
24.804656
20
27.808444
70
0
0
VERTEX
8
Image
10
24.804656
20
27.808444
70
0
0
SEQEND
8
Image
0
POLYLINE
8
Image
62
7
70
0
10
0.000000
20
0.000000
66
1
0
VERTEX
8
Image
10
28.376527
20
28.853529
70
0
0
VERTEX
8
Image
10
28.974327
20
29.100878
70
0
0
VERTEX
8
Image
10
29.309782
20
29.412330
70
0
0
VERTEX
8
Image
10
29.355427
20
29.741701
70
0
0
VERTEX
8
Image
10
29.083797
20
30.042806
70
0
0
VERTEX
8
Image
10
28.538676
20
30.026467
70
0
0
VERTEX
8
Image
10
27.651149
20
29.774664
70
0
0
VERTEX
8
Image
10
26.823571
20
29.427835
70
0
0
VERTEX
8
Image
10
26.458300
20
29.126414
70
0
0
VERTEX
8
Image
10
26.558928
20
28.777641
70
0
0
VERTEX
8
Image
10
26.886495
20
28.619556
70
0
0
VERTEX
8
Image
10
28.376527
20
28.853529
70
0
0
VERTEX
8
Image
10
28.376527
20
28.853529
70
0
0
SEQEND
8
Image
0
POLYLINE
8
Image
62
7
70
0
10
0.000000
20
0.000000
66
1
0
VERTEX
8
Image
10
48.846530
20
29.016470
70
0
0
VERTEX
8
Image
10
49.749271
20
29.366396
70
0
0
VERTEX
8
Image
10
50.062801
20
29.645827
70
0
0
VERTEX
8
Image
10
49.785275
20
29.830949
70
0
0
VERTEX
8
Image
10
48.914846
20
29.897949
70
0
0
VERTEX
8
Image
10
48.069877
20
29.829519
70
0
0
VERTEX
8
Image
10
47.411331
20
29.637525
70
0
0
VERTEX
8
Image
10
46.983629
20
29.341905
70
0
0
VERTEX
8
Image
10
46.831191
20
28.962600
70
0
0
VERTEX
8
Image
10
46.904652
20
28.685954
70
0
0
VERTEX
8
Image
10
47.195032
20
28.600845
70
0
0
VERTEX
8
Image
10
48.846530
20
29.016470
70
0
0
VERTEX
8
Image
10
48.846530
20
29.016470
70
0
0
SEQEND
8
Image
0
POLYLINE
8
Image
62
7
70
0
10
0.000000
20
0.000000
66
1
0
VERTEX
8
Image
10
55.293796
20
30.360969
70
0
0
VERTEX
8
Image
10
55.087145
20
31.381613
70
0
0
VERTEX
8
Image
10
54.533340
20
31.955134
70
0
0
VERTEX
8
Image
10
53.748928
20
32.025459
70
0
0
VERTEX
8
Image
10
52.850454
20
31.536514
70
0
0
VERTEX
8
Image
10
52.488304
20
31.126942
70
0
0
VERTEX
8
Image
10
52.422571
20
30.783474
70
0
0
VERTEX
8
Image
10
52.650460
20
30.516626
70
0
0
VERTEX
8
Image
10
53.169176
20
30.336913
70
0
0
VERTEX
8
Image
10
53.853368
20
30.024903
70
0
0
VERTEX
8
Image
10
54.400575
20
29.494304
70
0
0
VERTEX
8
Image
10
54.765081
20
29.096270
70
0
0
VERTEX
8
Image
10
55.045551
20
29.117834
70
0
0
VERTEX
8
Image
10
55.226838
20
29.544299
70
0
0
VERTEX
8
Image
10
55.293796
20
30.360969
70
0
0
VERTEX
8
Image
10
55.293796
20
30.360969
70
0
0
SEQEND
8
Image
0
POLYLINE
8
Image
62
7
70
1
10
0.000000
20
0.000000
66
1
0
VERTEX
8
Image
10
21.998996
20
29.848361
70
0
0
VERTEX
8
Image
10
20.817936
20
29.820591
70
0
0
VERTEX
8
Image
10
20.658418
20
29.670460
70
0
0
VERTEX
8
Image
10
20.741739
20
29.414130
70
0
0
VERTEX
8
Image
10
21.154391
20
29.306645
70
0
0
VERTEX
8
Image
10
22.025003
20
29.462673
70
0
0
VERTEX
8
Image
10
23.151013
20
29.765657
70
0
0
VERTEX
8
Image
10
21.998996
20
29.848361
70
0
0
SEQEND
8
Image
0
POLYLINE
8
Image
62
7
70
0
10
0.000000
20
0.000000
66
1
0
VERTEX
8
Image
10
32.609855
20
29.950895
70
0
0
VERTEX
8
Image
10
33.086442
20
30.221574
70
0
0
VERTEX
8
Image
10
33.310563
20
30.555053
70
0
0
VERTEX
8
Image
10
33.263455
20
30.881390
70
0
0
VERTEX
8
Image
10
32.926354
20
31.130644
70
0
0
VERTEX
8
Image
10
32.332195
20
31.105055
70
0
0
VERTEX
8
Image
10
31.480974
20
30.822005
70
0
0
VERTEX
8
Image
10
30.675021
20
30.347319
70
0
0
VERTEX
8
Image
10
30.613328
20
30.126165
70
0
0
VERTEX
8
Image
10
30.721745
20
29.841675
70
0
0
VERTEX
8
Image
10
31.038909
20
29.502002
70
0
0
VERTEX
8
Image
10
31.439522
20
29.507615
70
0
0
VERTEX
8
Image
10
32.609855
20
29.950895
70
0
0
VERTEX
8
Image
10
32.609855
20
29.950895
70
0
0
SEQEND
8
Image
0
POLYLINE
8
Image
62
7
70
0
10
0.000000
20
0.000000
66
1
0
VERTEX
8
Image
10
29.558826
20
32.045127
70
0
0
VERTEX
8
Image
10
32.171840
20
33.003841
70
0
0
VERTEX
8
Image
10
29.063159
20
32.439020
70
0
0
VERTEX
8
Image
10
23.481741
20
31.451647
70
0
0
VERTEX
8
Image
10
20.902057
20
30.976318
70
0
0
VERTEX
8
Image
10
23.870461
20
31.004980
70
0
0
VERTEX
8
Image
10
26.784016
20
31.339816
70
0
0
VERTEX
8
Image
10
29.558826
20
32.045127
70
0
0
VERTEX
8
Image
10
29.558826
20
32.045127
70
0
0
SEQEND
8
Image
0
POLYLINE
8
Image
62
7
70
0
10
0.000000
20
0.000000
66
1
0
VERTEX
8
Image
10
50.799936
20
31.210556
70
0
0
VERTEX
8
Image
10
50.647341
20
31.719165
70
0
0
VERTEX
8
Image
10
50.280462
20
32.213378
70
0
0
VERTEX
8
Image
10
49.761234
20
32.874061
70
0
0
VERTEX
8
Image
10
49.337706
20
33.751498
70
0
0
VERTEX
8
Image
10
49.052405
20
34.734099
70
0
0
VERTEX
8
Image
10
48.947855
20
35.710277
70
0
0
VERTEX
8
Image
10
48.868210
20
36.463726
70
0
0
VERTEX
8
Image
10
48.676724
20
36.777107
70
0
0
VERTEX
8
Image
10
48.354108
20
36.531044
70
0
0
VERTEX
8
Image
10
48.077608
20
35.814594
70
0
0
VERTEX
8
Image
10
47.697695
20
33.100972
70
0
0
VERTEX
8
Image
10
47.540482
20
30.873244
70
0
0
VERTEX
8
Image
10
48.310313
20
31.010153
70
0
0
VERTEX
8
Image
10
49.741604
20
30.945753
70
0
0
VERTEX
8
Image
10
50.647970
20
30.754182
70
0
0
VERTEX
8
Image
10
50.776022
20
30.890809
70
0
0
VERTEX
8
Image
10
50.799936
20
31.210556
70
0
0
VERTEX
8
Image
10
50.799936
20
31.210556
70
0
0
SEQEND
8
Image
0
POLYLINE
8
Image
62
7
70
0
10
0.000000
20
0.000000
66
1
0
VERTEX
8
Image
10
58.471351
20
32.762547
70
0
0
VERTEX
8
Image
10
58.890411
20
34.930278
70
0
0
VERTEX
8
Image
10
58.835315
20
35.532567
70
0
0
VERTEX
8
Image
10
58.167210
20
35.917863
70
0
0
VERTEX
8
Image
10
57.299666
20
36.177194
70
0
0
VERTEX
8
Image
10
57.366315
20
33.386172
70
0
0
VERTEX
8
Image
10
57.502674
20
31.222057
70
0
0
VERTEX
8
Image
10
57.626081
20
30.910759
70
0
0
VERTEX
8
Image
10
57.814796
20
30.959112
70
0
0
VERTEX
8
Image
10
58.157969
20
31.613617
70
0
0
VERTEX
8
Image
10
58.471351
20
32.762547
70
0
0
VERTEX
8
Image
10
58.471351
20
32.762547
70
0
0
SEQEND
8
Image
0
POLYLINE
8
Image
62
7
70
0
10
0.000000
20
0.000000
66
1
0
VERTEX
8
Image
10
46.934339
20
35.123463
70
0
0
VERTEX
8
Image
10
46.955279
20
35.809909
70
0
0
VERTEX
8
Image
10
46.760171
20
35.933177
70
0
0
VERTEX
8
Image
10
46.398849
20
35.519297
70
0
0
VERTEX
8
Image
10
45.921152
20
34.594297
70
0
0
VERTEX
8
Image
10
45.305648
20
33.205236
70
0
0
VERTEX
8
Image
10
45.857306
20
32.146904
70
0
0
VERTEX
8
Image
10
46.408964
20
31.088572
70
0
0
VERTEX
8
Image
10
46.607568
20
32.676070
70
0
0
VERTEX
8
Image
10
46.934339
20
35.123463
70
0
0
VERTEX
8
Image
10
46.934339
20
35.123463
70
0
0
SEQEND
8
Image
0
POLYLINE
8
Image
62
7
70
0
10
0.000000
20
0.000000
66
1
0
VERTEX
8
Image
10
18.112636
20
31.731747
70
0
0
VERTEX
8
Image
10
18.142482
20
31.960394
70
0
0
VERTEX
8
Image
10
17.990933
20
32.138395
70
0
0
VERTEX
8
Image
10
17.736617
20
32.216195
70
0
0
VERTEX
8
Image
10
17.458162
20
32.144238
70
0
0
VERTEX
8
Image
10
17.323238
20
31.964151
70
0
0
VERTEX
8
Image
10
17.342696
20
31.746264
70
0
0
VERTEX
8
Image
10
17.487112
20
31.562666
70
0
0
VERTEX
8
Image
10
17.727061
20
31.485447
70
0
0
VERTEX
8
Image
10
18.112636
20
31.731747
70
0
0
VERTEX
8
Image
10
18.112636
20
31.731747
70
0
0
SEQEND
8
Image
0
POLYLINE
8
Image
62
7
70
0
10
0.000000
20
0.000000
66
1
0
VERTEX
8
Image
10
16.111731
20
32.113369
70
0
0
VERTEX
8
Image
10
16.275291
20
32.498726
70
0
0
VERTEX
8
Image
10
16.245086
20
32.915002
70
0
0
VERTEX
8
Image
10
16.016744
20
33.167779
70
0
0
VERTEX
8
Image
10
15.615985
20
33.196594
70
0
0
VERTEX
8
Image
10
14.321567
20
32.586499
70
0
0
VERTEX
8
Image
10
13.862498
20
32.208653
70
0
0
VERTEX
8
Image
10
14.189275
20
31.981773
70
0
0
VERTEX
8
Image
10
15.328317
20
31.783489
70
0
0
VERTEX
8
Image
10
15.786872
20
31.883941
70
0
0
VERTEX
8
Image
10
16.111731
20
32.113369
70
0
0
VERTEX
8
Image
10
16.111731
20
32.113369
70
0
0
SEQEND
8
Image
0
POLYLINE
8
Image
62
7
70
0
10
0.000000
20
0.000000
66
1
0
VERTEX
8
Image
10
22.022483
20
32.392189
70
0
0
VERTEX
8
Image
10
22.223725
20
32.843602
70
0
0
VERTEX
8
Image
10
22.215034
20
33.234806
70
0
0
VERTEX
8
Image
10
22.018617
20
33.495246
70
0
0
VERTEX
8
Image
10
21.656682
20
33.554367
70
0
0
VERTEX
8
Image
10
21.186332
20
33.378981
70
0
0
VERTEX
8
Image
10
20.843763
20
33.050053
70
0
0
VERTEX
8
Image
10
20.672893
20
32.631523
70
0
0
VERTEX
8
Image
10
20.717642
20
32.187327
70
0
0
VERTEX
8
Image
10
20.942921
20
31.954031
70
0
0
VERTEX
8
Image
10
21.297471
20
31.920140
70
0
0
VERTEX
8
Image
10
21.688317
20
32.071058
70
0
0
VERTEX
8
Image
10
22.022483
20
32.392189
70
0
0
VERTEX
8
Image
10
22.022483
20
32.392189
70
0
0
SEQEND
8
Image
0
POLYLINE
8
Image
62
7
70
0
10
0.000000
20
0.000000
66
1
0
VERTEX
8
Image
10
56.227293
20
36.427757
70
0
0
VERTEX
8
Image
10
55.957457
20
37.412425
70
0
0
VERTEX
8
Image
10
55.532000
20
38.221959
70
0
0
VERTEX
8
Image
10
55.081809
20
38.668592
70
0
0
VERTEX
8
Image
10
54.888341
20
38.697144
70
0
0
VERTEX
8
Image
10
54.737772
20
38.564558
70
0
0
VERTEX
8
Image
10
54.345772
20
36.053097
70
0
0
VERTEX
8
Image
10
54.275350
20
34.223369
70
0
0
VERTEX
8
Image
10
54.410899
20
33.904339
70
0
0
VERTEX
8
Image
10
54.694397
20
33.757979
70
0
0
VERTEX
8
Image
10
55.213332
20
33.365244
70
0
0
VERTEX
8
Image
10
55.722196
20
32.655494
70
0
0
VERTEX
8
Image
10
56.223888
20
31.719987
70
0
0
VERTEX
8
Image
10
56.306858
20
33.520942
70
0
0
VERTEX
8
Image
10
56.227293
20
36.427757
70
0
0
VERTEX
8
Image
10
56.227293
20
36.427757
70
0
0
SEQEND
8
Image
0
POLYLINE
8
Image
62
7
70
0
10
0.000000
20
0.000000
66
1
0
VERTEX
8
Image
10
71.569702
20
32.422124
70
0
0
VERTEX
8
Image
10
71.218699
20
32.852468
70
0
0
VERTEX
8
Image
10
70.176187
20
33.341173
70
0
0
VERTEX
8
Image
10
66.079604
20
34.470176
70
0
0
VERTEX
8
Image
10
64.626319
20
34.730079
70
0
0
VERTEX
8
Image
10
64.362602
20
34.678971
70
0
0
VERTEX
8
Image
10
64.293669
20
34.509676
70
0
0
VERTEX
8
Image
10
65.073550
20
33.995489
70
0
0
VERTEX
8
Image
10
67.270228
20
33.206604
70
0
0
VERTEX
8
Image
10
70.643661
20
32.012570
70
0
0
VERTEX
8
Image
10
71.018921
20
31.845870
70
0
0
VERTEX
8
Image
10
71.311629
20
31.864435
70
0
0
VERTEX
8
Image
10
71.501863
20
32.059457
70
0
0
VERTEX
8
Image
10
71.569702
20
32.422124
70
0
0
VERTEX
8
Image
10
71.569702
20
32.422124
70
0
0
SEQEND
8
Image
0
POLYLINE
8
Image
62
7
70
0
10
0.000000
20
0.000000
66
1
0
VERTEX
8
Image
10
25.069239
20
32.426066
70
0
0
VERTEX
8
Image
10
25.286137
20
32.723839
70
0
0
VERTEX
8
Image
10
25.392301
20
33.288546
70
0
0
VERTEX
8
Image
10
25.369630
20
33.871397
70
0
0
VERTEX
8
Image
10
25.200023
20
34.223606
70
0
0
VERTEX
8
Image
10
24.846465
20
34.329872
70
0
0
VERTEX
8
Image
10
24.434027
20
34.283073
70
0
0
VERTEX
8
Image
10
23.584251
20
33.846723
70
0
0
VERTEX
8
Image
10
22.954172
20
33.147442
70
0
0
VERTEX
8
Image
10
22.816356
20
32.771980
70
0
0
VERTEX
8
Image
10
22.847269
20
32.418118
70
0
0
VERTEX
8
Image
10
23.082578
20
32.211851
70
0
0
VERTEX
8
Image
10
23.554103
20
32.144500
70
0
0
VERTEX
8
Image
10
25.069239
20
32.426055
70
0
0
VERTEX
8
Image
10
25.069239
20
32.426066
70
0
0
SEQEND
8
Image
0
POLYLINE
8
Image
62
7
70
0
10
0.000000
20
0.000000
66
1
0
VERTEX
8
Image
10
13.259271
20
32.857069
70
0
0
VERTEX
8
Image
10
14.211155
20
33.642170
70
0
0
VERTEX
8
Image
10
14.280175
20
33.973862
70
0
0
VERTEX
8
Image
10
14.062758
20
34.238920
70
0
0
VERTEX
8
Image
10
13.549044
20
34.093848
70
0
0
VERTEX
8
Image
10
12.739351
20
33.562963
70
0
0
VERTEX
8
Image
10
12.022809
20
32.940360
70
0
0
VERTEX
8
Image
10
11.788549
20
32.520133
70
0
0
VERTEX
8
Image
10
11.943543
20
32.338725
70
0
0
VERTEX
8
Image
10
12.167848
20
32.317806
70
0
0
VERTEX
8
Image
10
13.259271
20
32.857069
70
0
0
VERTEX
8
Image
10
13.259271
20
32.857069
70
0
0
SEQEND
8
Image
0
POLYLINE
8
Image
62
7
70
0
10
0.000000
20
0.000000
66
1
0
VERTEX
8
Image
10
62.584698
20
34.082009
70
0
0
VERTEX
8
Image
10
62.335945
20
34.820925
70
0
0
VERTEX
8
Image
10
61.995621
20
35.237109
70
0
0
VERTEX
8
Image
10
61.582088
20
35.318444
70
0
0
VERTEX
8
Image
10
61.113709
20
35.052812
70
0
0
VERTEX
8
Image
10
60.732201
20
34.560594
70
0
0
VERTEX
8
Image
10
60.614851
20
34.024499
70
0
0
VERTEX
8
Image
10
60.761237
20
33.460611
70
0
0
VERTEX
8
Image
10
61.170933
20
32.885012
70
0
0
VERTEX
8
Image
10
61.742310
20
32.413364
70
0
0
VERTEX
8
Image
10
62.257092
20
32.770841
70
0
0
VERTEX
8
Image
10
62.612937
20
33.341450
70
0
0
VERTEX
8
Image
10
62.584698
20
34.082009
70
0
0
VERTEX
8
Image
10
62.584698
20
34.082009
70
0
0
SEQEND
8
Image
0
POLYLINE
8
Image
62
7
70
0
10
0.000000
20
0.000000
66
1
0
VERTEX
8
Image
10
27.367116
20
32.801800
70
0
0
VERTEX
8
Image
10
27.900690
20
33.172435
70
0
0
VERTEX
8
Image
10
28.045798
20
33.844517
70
0
0
VERTEX
8
Image
10
27.981317
20
34.418631
70
0
0
VERTEX
8
Image
10
27.773378
20
34.759707
70
0
0
VERTEX
8
Image
10
27.400233
20
34.885206
70
0
0
VERTEX
8
Image
10
26.840136
20
34.812589
70
0
0
VERTEX
8
Image
10
26.507067
20
34.690469
70
0
0
VERTEX
8
Image
10
26.310646
20
34.489180
70
0
0
VERTEX
8
Image
10
26.193717
20
33.597071
70
0
0
VERTEX
8
Image
10
26.227751
20
32.942163
70
0
0
VERTEX
8
Image
10
26.382257
20
32.626835
70
0
0
VERTEX
8
Image
10
26.735844
20
32.597810
70
0
0
VERTEX
8
Image
10
27.367116
20
32.801814
70
0
0
VERTEX
8
Image
10
27.367116
20
32.801800
70
0
0
SEQEND
8
Image
0
POLYLINE
8
Image
62
7
70
0
10
0.000000
20
0.000000
66
1
0
VERTEX
8
Image
10
10.855177
20
33.249782
70
0
0
VERTEX
8
Image
10
11.617981
20
33.777326
70
0
0
VERTEX
8
Image
10
11.554435
20
34.010318
70
0
0
VERTEX
8
Image
10
11.237087
20
34.398877
70
0
0
VERTEX
8
Image
10
10.524660
20
34.925026
70
0
0
VERTEX
8
Image
10
9.339018
20
34.204688
70
0
0
VERTEX
8
Image
10
8.394606
20
33.484350
70
0
0
VERTEX
8
Image
10
9.158234
20
33.158289
70
0
0
VERTEX
8
Image
10
10.090009
20
32.853085
70
0
0
VERTEX
8
Image
10
10.855177
20
33.249795
70
0
0
VERTEX
8
Image
10
10.855177
20
33.249782
70
0
0
SEQEND
8
Image
0
POLYLINE
8
Image
62
7
70
1
10
0.000000
20
0.000000
66
1
0
VERTEX
8
Image
10
17.462478
20
33.469819
70
0
0
VERTEX
8
Image
10
17.345896
20
33.750112
70
0
0
VERTEX
8
Image
10
17.065604
20
33.866694
70
0
0
VERTEX
8
Image
10
16.686259
20
33.672178
70
0
0
VERTEX
8
Image
10
16.845118
20
33.249335
70
0
0
VERTEX
8
Image
10
17.267962
20
33.090475
70
0
0
VERTEX
8
Image
10
17.462478
20
33.469819
70
0
0
VERTEX
8
Image
10
17.462478
20
33.469819
70
0
0
SEQEND
8
Image
0
POLYLINE
8
Image
62
7
70
0
10
0.000000
20
0.000000
66
1
0
VERTEX
8
Image
10
29.964025
20
33.351440
70
0
0
VERTEX
8
Image
10
30.772729
20
33.707951
70
0
0
VERTEX
8
Image
10
30.952160
20
34.342150
70
0
0
VERTEX
8
Image
10
30.878549
20
35.076608
70
0
0
VERTEX
8
Image
10
30.647427
20
35.505619
70
0
0
VERTEX
8
Image
10
30.228127
20
35.656526
70
0
0
VERTEX
8
Image
10
29.589978
20
35.556673
70
0
0
VERTEX
8
Image
10
29.111972
20
35.388973
70
0
0
VERTEX
8
Image
10
28.835391
20
35.166737
70
0
0
VERTEX
8
Image
10
28.625896
20
34.188935
70
0
0
VERTEX
8
Image
10
28.597381
20
33.484527
70
0
0
VERTEX
8
Image
10
28.728508
20
33.161706
70
0
0
VERTEX
8
Image
10
29.142862
20
33.143127
70
0
0
VERTEX
8
Image
10
29.964025
20
33.351440
70
0
0
VERTEX
8
Image
10
29.964025
20
33.351440
70
0
0
SEQEND
8
Image
0
POLYLINE
8
Image
62
7
70
0
10
0.000000
20
0.000000
66
1
0
VERTEX
8
Image
10
52.251878
20
33.600092
70
0
0
VERTEX
8
Image
10
52.724330
20
33.936543
70
0
0
VERTEX
8
Image
10
53.002012
20
34.328060
70
0
0
VERTEX
8
Image
10
53.277340
20
35.983506
70
0
0
VERTEX
8
Image
10
53.814740
20
38.898832
70
0
0
VERTEX
8
Image
10
54.007994
20
39.693419
70
0
0
VERTEX
8
Image
10
53.917976
20
40.087550
70
0
0
VERTEX
8
Image
10
53.562967
20
40.065925
70
0
0
VERTEX
8
Image
10
52.961246
20
39.613241
70
0
0
VERTEX
8
Image
10
51.163296
20
38.404986
70
0
0
VERTEX
8
Image
10
50.342372
20
37.888862
70
0
0
VERTEX
8
Image
10
49.901888
20
37.416107
70
0
0
VERTEX
8
Image
10
49.813762
20
36.628148
70
0
0
VERTEX
8
Image
10
49.935110
20
35.556886
70
0
0
VERTEX
8
Image
10
50.211841
20
34.492507
70
0
0
VERTEX
8
Image
10
50.589865
20
33.725198
70
0
0
VERTEX
8
Image
10
50.960352
20
33.281543
70
0
0
VERTEX
8
Image
10
51.252831
20
33.120938
70
0
0
VERTEX
8
Image
10
51.629330
20
33.231187
70
0
0
VERTEX
8
Image
10
52.251878
20
33.600092
70
0
0
VERTEX
8
Image
10
52.251878
20
33.600092
70
0
0
SEQEND
8
Image
0
POLYLINE
8
Image
62
7
70
0
10
0.000000
20
0.000000
66
1
0
VERTEX
8
Image
10
10.583320
20
36.227087
70
0
0
VERTEX
8
Image
10
10.512970
20
36.493090
70
0
0
VERTEX
8
Image
10
10.304730
20
36.604740
70
0
0
VERTEX
8
Image
10
9.491443
20
36.362886
70
0
0
VERTEX
8
Image
10
8.954549
20
35.972453
70
0
0
VERTEX
8
Image
10
8.731239
20
35.585788
70
0
0
VERTEX
8
Image
10
8.536936
20
35.187290
70
0
0
VERTEX
8
Image
10
8.069782
20
34.768403
70
0
0
VERTEX
8
Image
10
7.408324
20
34.098805
70
0
0
VERTEX
8
Image
10
7.874652
20
34.250303
70
0
0
VERTEX
8
Image
10
8.995822
20
34.946224
70
0
0
VERTEX
8
Image
10
10.583320
20
36.227087
70
0
0
VERTEX
8
Image
10
10.583320
20
36.227087
70
0
0
SEQEND
8
Image
0
POLYLINE
8
Image
62
7
70
0
10
0.000000
20
0.000000
66
1
0
VERTEX
8
Image
10
15.995234
20
34.274570
70
0
0
VERTEX
8
Image
10
16.370370
20
34.674409
70
0
0
VERTEX
8
Image
10
16.061380
20
35.116603
70
0
0
VERTEX
8
Image
10
15.613135
20
35.432556
70
0
0
VERTEX
8
Image
10
15.177342
20
35.134541
70
0
0
VERTEX
8
Image
10
14.918547
20
34.706088
70
0
0
VERTEX
8
Image
10
14.904455
20
34.284095
70
0
0
VERTEX
8
Image
10
15.063955
20
33.995442
70
0
0
VERTEX
8
Image
10
15.273214
20
33.897862
70
0
0
VERTEX
8
Image
10
15.995234
20
34.274570
70
0
0
VERTEX
8
Image
10
15.995234
20
34.274570
70
0
0
SEQEND
8
Image
0
POLYLINE
8
Image
62
7
70
0
10
0.000000
20
0.000000
66
1
0
VERTEX
8
Image
10
32.014543
20
34.131277
70
0
0
VERTEX
8
Image
10
31.932235
20
34.318139
70
0
0
VERTEX
8
Image
10
31.734344
20
34.395860
70
0
0
VERTEX
8
Image
10
31.584489
20
34.318139
70
0
0
VERTEX
8
Image
10
31.617669
20
34.131277
70
0
0
VERTEX
8
Image
10
31.897867
20
33.866694
70
0
0
VERTEX
8
Image
10
32.014543
20
34.131277
70
0
0
VERTEX
8
Image
10
32.014543
20
34.131277
70
0
0
SEQEND
8
Image
0
POLYLINE
8
Image
62
7
70
0
10
0.000000
20
0.000000
66
1
0
VERTEX
8
Image
10
21.166640
20
34.925026
70
0
0
VERTEX
8
Image
10
21.088919
20
35.485611
70
0
0
VERTEX
8
Image
10
20.902057
20
35.718775
70
0
0
VERTEX
8
Image
10
20.715195
20
35.485611
70
0
0
VERTEX
8
Image
10
20.637474
20
34.925026
70
0
0
VERTEX
8
Image
10
20.715195
20
34.364441
70
0
0
VERTEX
8
Image
10
20.902057
20
34.131277
70
0
0
VERTEX
8
Image
10
21.088919
20
34.364441
70
0
0
VERTEX
8
Image
10
21.166640
20
34.925026
70
0
0
VERTEX
8
Image
10
21.166640
20
34.925026
70
0
0
SEQEND
8
Image
0
POLYLINE
8
Image
62
7
70
0
10
0.000000
20
0.000000
66
1
0
VERTEX
8
Image
10
7.077595
20
34.910104
70
0
0
VERTEX
8
Image
10
7.672907
20
35.562758
70
0
0
VERTEX
8
Image
10
7.222045
20
35.696653
70
0
0
VERTEX
8
Image
10
6.217697
20
35.714270
70
0
0
VERTEX
8
Image
10
5.182219
20
35.632134
70
0
0
VERTEX
8
Image
10
4.637967
20
35.466765
70
0
0
VERTEX
8
Image
10
4.746622
20
35.199240
70
0
0
VERTEX
8
Image
10
5.173330
20
34.850149
70
0
0
VERTEX
8
Image
10
6.217701
20
34.415267
70
0
0
VERTEX
8
Image
10
7.077595
20
34.910104
70
0
0
VERTEX
8
Image
10
7.077595
20
34.910104
70
0
0
SEQEND
8
Image
0
POLYLINE
8
Image
62
7
70
0
10
0.000000
20
0.000000
66
1
0
VERTEX
8
Image
10
12.936735
20
34.759209
70
0
0
VERTEX
8
Image
10
13.088115
20
35.115680
70
0
0
VERTEX
8
Image
10
13.073134
20
35.518126
70
0
0
VERTEX
8
Image
10
12.919341
20
35.847151
70
0
0
VERTEX
8
Image
10
12.654283
20
35.983358
70
0
0
VERTEX
8
Image
10
11.866890
20
35.697719
70
0
0
VERTEX
8
Image
10
11.474821
20
35.380361
70
0
0
VERTEX
8
Image
10
11.793000
20
34.903970
70
0
0
VERTEX
8
Image
10
12.419207
20
34.423730
70
0
0
VERTEX
8
Image
10
12.665474
20
34.492802
70
0
0
VERTEX
8
Image
10
12.936735
20
34.759199
70
0
0
VERTEX
8
Image
10
12.936735
20
34.759209
70
0
0
SEQEND
8
Image
0
POLYLINE
8
Image
62
7
70
0
10
0.000000
20
0.000000
66
1
0
VERTEX
8
Image
10
22.710393
20
35.174713
70
0
0
VERTEX
8
Image
10
22.691636
20
35.671977
70
0
0
VERTEX
8
Image
10
22.521691
20
36.045858
70
0
0
VERTEX
8
Image
10
22.263685
20
36.216097
70
0
0
VERTEX
8
Image
10
21.980742
20
36.102431
70
0
0
VERTEX
8
Image
10
21.842643
20
35.687212
70
0
0
VERTEX
8
Image
10
21.888230
20
35.113635
70
0
0
VERTEX
8
Image
10
22.065906
20
34.626768
70
0
0
VERTEX
8
Image
10
22.324077
20
34.471679
70
0
0
VERTEX
8
Image
10
22.560387
20
34.718592
70
0
0
VERTEX
8
Image
10
22.710393
20
35.174713
70
0
0
VERTEX
8
Image
10
22.710393
20
35.174713
70
0
0
SEQEND
8
Image
0
POLYLINE
8
Image
62
7
70
1
10
0.000000
20
0.000000
66
1
0
VERTEX
8
Image
10
17.991644
20
35.734391
70
0
0
VERTEX
8
Image
10
17.914098
20
36.066636
70
0
0
VERTEX
8
Image
10
17.696660
20
36.220811
70
0
0
VERTEX
8
Image
10
17.362131
20
36.191747
70
0
0
VERTEX
8
Image
10
16.933312
20
35.974278
70
0
0
VERTEX
8
Image
10
16.693494
20
35.688135
70
0
0
VERTEX
8
Image
10
17.038437
20
35.325348
70
0
0
VERTEX
8
Image
10
17.438412
20
35.097733
70
0
0
VERTEX
8
Image
10
17.738184
20
35.093288
70
0
0
VERTEX
8
Image
10
17.926384
20
35.307133
70
0
0
VERTEX
8
Image
10
17.991644
20
35.734391
70
0
0
VERTEX
8
Image
10
17.991644
20
35.734391
70
0
0
SEQEND
8
Image
0
POLYLINE
8
Image
62
7
70
1
10
0.000000
20
0.000000
66
1
0
VERTEX
8
Image
10
24.606219
20
35.755399
70
0
0
VERTEX
8
Image
10
24.490863
20
36.137164
70
0
0
VERTEX
8
Image
10
24.211231
20
36.401019
70
0
0
VERTEX
8
Image
10
23.866975
20
36.490522
70
0
0
VERTEX
8
Image
10
23.557746
20
36.349231
70
0
0
VERTEX
8
Image
10
23.469585
20
36.010694
70
0
0
VERTEX
8
Image
10
23.565374
20
35.524756
70
0
0
VERTEX
8
Image
10
23.842648
20
35.154039
70
0
0
VERTEX
8
Image
10
24.187701
20
35.086445
70
0
0
VERTEX
8
Image
10
24.481801
20
35.295664
70
0
0
VERTEX
8
Image
10
24.606219
20
35.755385
70
0
0
VERTEX
8
Image
10
24.606219
20
35.755399
70
0
0
SEQEND
8
Image
0
POLYLINE
8
Image
62
7
70
0
10
0.000000
20
0.000000
66
1
0
VERTEX
8
Image
10
69.158025
20
35.577189
70
0
0
VERTEX
8
Image
10
69.543657
20
36.361629
70
0
0
VERTEX
8
Image
10
68.801970
20
35.949216
70
0
0
VERTEX
8
Image
10
68.289117
20
35.474821
70
0
0
VERTEX
8
Image
10
68.156126
20
35.147546
70
0
0
VERTEX
8
Image
10
68.350522
20
34.957818
70
0
0
VERTEX
8
Image
10
68.580115
20
34.965244
70
0
0
VERTEX
8
Image
10
69.158025
20
35.577189
70
0
0
VERTEX
8
Image
10
69.158025
20
35.577189
70
0
0
SEQEND
8
Image
0
POLYLINE
8
Image
62
7
70
0
10
0.000000
20
0.000000
66
1
0
VERTEX
8
Image
10
63.633487
20
36.467167
70
0
0
VERTEX
8
Image
10
63.400517
20
36.509829
70
0
0
VERTEX
8
Image
10
63.184767
20
36.286061
70
0
0
VERTEX
8
Image
10
63.058609
20
35.920588
70
0
0
VERTEX
8
Image
10
63.094415
20
35.538136
70
0
0
VERTEX
8
Image
10
63.296448
20
35.238676
70
0
0
VERTEX
8
Image
10
63.532104
20
35.691055
70
0
0
VERTEX
8
Image
10
63.633487
20
36.467167
70
0
0
VERTEX
8
Image
10
63.633487
20
36.467167
70
0
0
SEQEND
8
Image
0
POLYLINE
8
Image
62
7
70
0
10
0.000000
20
0.000000
66
1
0
VERTEX
8
Image
10
14.829787
20
35.857874
70
0
0
VERTEX
8
Image
10
15.419715
20
36.244132
70
0
0
VERTEX
8
Image
10
15.599256
20
36.540454
70
0
0
VERTEX
8
Image
10
15.374241
20
36.689703
70
0
0
VERTEX
8
Image
10
14.750502
20
36.634738
70
0
0
VERTEX
8
Image
10
13.715153
20
36.319145
70
0
0
VERTEX
8
Image
10
13.600949
20
36.125598
70
0
0
VERTEX
8
Image
10
13.665887
20
35.842605
70
0
0
VERTEX
8
Image
10
13.790795
20
35.572619
70
0
0
VERTEX
8
Image
10
13.957687
20
35.484267
70
0
0
VERTEX
8
Image
10
14.829787
20
35.857872
70
0
0
VERTEX
8
Image
10
14.829787
20
35.857874
70
0
0
SEQEND
8
Image
0
POLYLINE
8
Image
62
7
70
0
10
0.000000
20
0.000000
66
1
0
VERTEX
8
Image
10
27.176698
20
35.819827
70
0
0
VERTEX
8
Image
10
27.248560
20
36.130818
70
0
0
VERTEX
8
Image
10
27.095304
20
36.537492
70
0
0
VERTEX
8
Image
10
26.804098
20
36.890799
70
0
0
VERTEX
8
Image
10
26.462110
20
37.041690
70
0
0
VERTEX
8
Image
10
25.874029
20
36.981778
70
0
0
VERTEX
8
Image
10
25.460276
20
36.799510
70
0
0
VERTEX
8
Image
10
25.215759
20
36.491091
70
0
0
VERTEX
8
Image
10
25.135385
20
36.052724
70
0
0
VERTEX
8
Image
10
25.160063
20
35.690933
70
0
0
VERTEX
8
Image
10
25.281094
20
35.510078
70
0
0
VERTEX
8
Image
10
26.094208
20
35.540549
70
0
0
VERTEX
8
Image
10
27.176698
20
35.819814
70
0
0
VERTEX
8
Image
10
27.176698
20
35.819827
70
0
0
SEQEND
8
Image
0
POLYLINE
8
Image
62
7
70
0
10
0.000000
20
0.000000
66
1
0
VERTEX
8
Image
10
66.535105
20
36.314087
70
0
0
VERTEX
8
Image
10
65.819077
20
38.053244
70
0
0
VERTEX
8
Image
10
65.373787
20
38.617074
70
0
0
VERTEX
8
Image
10
65.033812
20
38.649719
70
0
0
VERTEX
8
Image
10
64.787195
20
38.141485
70
0
0
VERTEX
8
Image
10
64.621979
20
37.082677
70
0
0
VERTEX
8
Image
10
64.584766
20
36.251438
70
0
0
VERTEX
8
Image
10
64.747110
20
35.785528
70
0
0
VERTEX
8
Image
10
65.216550
20
35.568744
70
0
0
VERTEX
8
Image
10
66.100628
20
35.484884
70
0
0
VERTEX
8
Image
10
66.589734
20
35.596147
70
0
0
VERTEX
8
Image
10
66.535105
20
36.314087
70
0
0
VERTEX
8
Image
10
66.535105
20
36.314087
70
0
0
SEQEND
8
Image
0
POLYLINE
8
Image
62
7
70
1
10
0.000000
20
0.000000
66
1
0
VERTEX
8
Image
10
3.968745
20
35.983358
70
0
0
VERTEX
8
Image
10
3.847576
20
36.170220
70
0
0
VERTEX
8
Image
10
3.556256
20
36.247941
70
0
0
VERTEX
8
Image
10
3.312969
20
36.170220
70
0
0
VERTEX
8
Image
10
3.307288
20
35.983358
70
0
0
VERTEX
8
Image
10
3.719777
20
35.718775
70
0
0
VERTEX
8
Image
10
3.968745
20
35.983358
70
0
0
VERTEX
8
Image
10
3.968745
20
35.983358
70
0
0
SEQEND
8
Image
0
POLYLINE
8
Image
62
7
70
0
10
0.000000
20
0.000000
66
1
0
VERTEX
8
Image
10
28.202108
20
36.907898
70
0
0
VERTEX
8
Image
10
28.008246
20
37.346582
70
0
0
VERTEX
8
Image
10
27.783435
20
37.439938
70
0
0
VERTEX
8
Image
10
27.685851
20
37.150139
70
0
0
VERTEX
8
Image
10
27.834171
20
36.634248
70
0
0
VERTEX
8
Image
10
28.080347
20
36.204939
70
0
0
VERTEX
8
Image
10
28.243427
20
36.122094
70
0
0
VERTEX
8
Image
10
28.202108
20
36.907898
70
0
0
VERTEX
8
Image
10
28.202108
20
36.907898
70
0
0
SEQEND
8
Image
0
POLYLINE
8
Image
62
7
70
0
10
0.000000
20
0.000000
66
1
0
VERTEX
8
Image
10
48.815564
20
38.631709
70
0
0
VERTEX
8
Image
10
52.070269
20
40.418087
70
0
0
VERTEX
8
Image
10
52.788971
20
41.032562
70
0
0
VERTEX
8
Image
10
52.905005
20
41.258935
70
0
0
VERTEX
8
Image
10
52.852674
20
41.427137
70
0
0
VERTEX
8
Image
10
51.787841
20
41.108712
70
0
0
VERTEX
8
Image
10
49.436767
20
40.134073
70
0
0
VERTEX
8
Image
10
44.053069
20
37.825843
70
0
0
VERTEX
8
Image
10
41.823429
20
36.865597
70
0
0
VERTEX
8
Image
10
42.213850
20
36.403545
70
0
0
VERTEX
8
Image
10
42.848617
20
36.242419
70
0
0
VERTEX
8
Image
10
43.988399
20
36.501989
70
0
0
VERTEX
8
Image
10
48.815564
20
38.631709
70
0
0
VERTEX
8
Image
10
48.815564
20
38.631709
70
0
0
SEQEND
8
Image
0
POLYLINE
8
Image
62
7
70
0
10
0.000000
20
0.000000
66
1
0
VERTEX
8
Image
10
7.794981
20
36.412924
70
0
0
VERTEX
8
Image
10
8.090507
20
36.627251
70
0
0
VERTEX
8
Image
10
7.787414
20
37.061343
70
0
0
VERTEX
8
Image
10
7.319778
20
37.405882
70
0
0
VERTEX
8
Image
10
6.717660
20
37.130513
70
0
0
VERTEX
8
Image
10
6.085409
20
36.482094
70
0
0
VERTEX
8
Image
10
6.263207
20
36.323339
70
0
0
VERTEX
8
Image
10
6.702001
20
36.255064
70
0
0
VERTEX
8
Image
10
7.794981
20
36.412924
70
0
0
VERTEX
8
Image
10
7.794981
20
36.412924
70
0
0
SEQEND
8
Image
0
POLYLINE
8
Image
62
7
70
0
10
0.000000
20
0.000000
66
1
0
VERTEX
8
Image
10
29.837200
20
36.727357
70
0
0
VERTEX
8
Image
10
29.784736
20
36.997662
70
0
0
VERTEX
8
Image
10
29.511596
20
37.206528
70
0
0
VERTEX
8
Image
10
28.967029
20
37.229256
70
0
0
VERTEX
8
Image
10
28.998209
20
36.671501
70
0
0
VERTEX
8
Image
10
29.183743
20
36.405247
70
0
0
VERTEX
8
Image
10
29.423885
20
36.328366
70
0
0
VERTEX
8
Image
10
29.660936
20
36.437016
70
0
0
VERTEX
8
Image
10
29.837200
20
36.727357
70
0
0
VERTEX
8
Image
10
29.837200
20
36.727357
70
0
0
SEQEND
8
Image
0
POLYLINE
8
Image
62
7
70
0
10
0.000000
20
0.000000
66
1
0
VERTEX
8
Image
10
12.369255
20
36.679288
70
0
0
VERTEX
8
Image
10
12.788306
20
36.900606
70
0
0
VERTEX
8
Image
10
12.950005
20
37.197970
70
0
0
VERTEX
8
Image
10
12.843275
20
37.458885
70
0
0
VERTEX
8
Image
10
12.457040
20
37.570856
70
0
0
VERTEX
8
Image
10
11.489042
20
37.377681
70
0
0
VERTEX
8
Image
10
11.211677
20
37.159537
70
0
0
VERTEX
8
Image
10
11.112486
20
36.881091
70
0
0
VERTEX
8
Image
10
11.177993
20
36.646239
70
0
0
VERTEX
8
Image
10
11.391902
20
36.537114
70
0
0
VERTEX
8
Image
10
12.369255
20
36.679288
70
0
0
VERTEX
8
Image
10
12.369255
20
36.679288
70
0
0
SEQEND
8
Image
0
POLYLINE
8
Image
62
7
70
0
10
0.000000
20
0.000000
66
1
0
VERTEX
8
Image
10
16.933312
20
36.777107
70
0
0
VERTEX
8
Image
10
16.855591
20
36.963969
70
0
0
VERTEX
8
Image
10
16.668729
20
37.041690
70
0
0
VERTEX
8
Image
10
16.481867
20
36.963969
70
0
0
VERTEX
8
Image
10
16.404146
20
36.777107
70
0
0
VERTEX
8
Image
10
16.481867
20
36.590245
70
0
0
VERTEX
8
Image
10
16.668729
20
36.512524
70
0
0
VERTEX
8
Image
10
16.855591
20
36.590245
70
0
0
VERTEX
8
Image
10
16.933312
20
36.777107
70
0
0
VERTEX
8
Image
10
16.933312
20
36.777107
70
0
0
SEQEND
8
Image
0
POLYLINE
8
Image
62
7
70
0
10
0.000000
20
0.000000
66
1
0
VERTEX
8
Image
10
68.573897
20
37.240127
70
0
0
VERTEX
8
Image
10
69.344697
20
38.456792
70
0
0
VERTEX
8
Image
10
69.487061
20
38.955213
70
0
0
VERTEX
8
Image
10
69.374718
20
39.158354
70
0
0
VERTEX
8
Image
10
68.915776
20
38.880619
70
0
0
VERTEX
8
Image
10
68.278473
20
38.237014
70
0
0
VERTEX
8
Image
10
67.712779
20
37.511937
70
0
0
VERTEX
8
Image
10
67.468665
20
36.989787
70
0
0
VERTEX
8
Image
10
67.530986
20
36.628060
70
0
0
VERTEX
8
Image
10
67.726958
20
36.547168
70
0
0
VERTEX
8
Image
10
68.573897
20
37.240127
70
0
0
VERTEX
8
Image
10
68.573897
20
37.240127
70
0
0
SEQEND
8
Image
0
POLYLINE
8
Image
62
7
70
0
10
0.000000
20
0.000000
66
1
0
VERTEX
8
Image
10
5.648105
20
37.261611
70
0
0
VERTEX
8
Image
10
5.905782
20
37.655767
70
0
0
VERTEX
8
Image
10
5.909598
20
37.923069
70
0
0
VERTEX
8
Image
10
5.576712
20
38.064248
70
0
0
VERTEX
8
Image
10
5.103923
20
38.094396
70
0
0
VERTEX
8
Image
10
4.681050
20
38.022383
70
0
0
VERTEX
8
Image
10
4.497911
20
37.857079
70
0
0
VERTEX
8
Image
10
4.337312
20
37.195622
70
0
0
VERTEX
8
Image
10
4.367220
20
36.867440
70
0
0
VERTEX
8
Image
10
4.698304
20
36.774209
70
0
0
VERTEX
8
Image
10
5.176591
20
36.908179
70
0
0
VERTEX
8
Image
10
5.648105
20
37.261598
70
0
0
VERTEX
8
Image
10
5.648105
20
37.261611
70
0
0
SEQEND
8
Image
0
POLYLINE
8
Image
62
7
70
0
10
0.000000
20
0.000000
66
1
0
VERTEX
8
Image
10
21.383479
20
37.351707
70
0
0
VERTEX
8
Image
10
21.214333
20
37.842632
70
0
0
VERTEX
8
Image
10
20.963736
20
38.034627
70
0
0
VERTEX
8
Image
10
20.736510
20
37.912389
70
0
0
VERTEX
8
Image
10
20.637474
20
37.460612
70
0
0
VERTEX
8
Image
10
20.743808
20
36.952123
70
0
0
VERTEX
8
Image
10
21.052751
20
36.777107
70
0
0
VERTEX
8
Image
10
21.342590
20
36.921306
70
0
0
VERTEX
8
Image
10
21.383479
20
37.351694
70
0
0
VERTEX
8
Image
10
21.383479
20
37.351707
70
0
0
SEQEND
8
Image
0
POLYLINE
8
Image
62
7
70
0
10
0.000000
20
0.000000
66
1
0
VERTEX
8
Image
10
62.672934
20
37.680116
70
0
0
VERTEX
8
Image
10
63.677468
20
38.538782
70
0
0
VERTEX
8
Image
10
64.246662
20
39.644883
70
0
0
VERTEX
8
Image
10
64.500322
20
41.417559
70
0
0
VERTEX
8
Image
10
64.558252
20
44.275947
70
0
0
VERTEX
8
Image
10
64.514633
20
46.821592
70
0
0
VERTEX
8
Image
10
64.361419
20
48.244307
70
0
0
VERTEX
8
Image
10
64.233235
20
48.577955
70
0
0
VERTEX
8
Image
10
64.065077
20
48.682936
70
0
0
VERTEX
8
Image
10
63.592074
20
48.276321
70
0
0
VERTEX
8
Image
10
63.316719
20
47.063262
70
0
0
VERTEX
8
Image
10
63.235337
20
44.121722
70
0
0
VERTEX
8
Image
10
63.175365
20
41.583125
70
0
0
VERTEX
8
Image
10
62.940501
20
40.011737
70
0
0
VERTEX
8
Image
10
62.448319
20
39.129379
70
0
0
VERTEX
8
Image
10
61.616396
20
38.657874
70
0
0
VERTEX
8
Image
10
60.712912
20
38.444766
70
0
0
VERTEX
8
Image
10
59.735293
20
38.376216
70
0
0
VERTEX
8
Image
10
58.825306
20
38.451703
70
0
0
VERTEX
8
Image
10
58.124721
20
38.670706
70
0
0
VERTEX
8
Image
10
55.033264
20
41.537677
70
0
0
VERTEX
8
Image
10
52.587792
20
43.809305
70
0
0
VERTEX
8
Image
10
50.347729
20
45.208089
70
0
0
VERTEX
8
Image
10
48.038867
20
46.539085
70
0
0
VERTEX
8
Image
10
48.036458
20
46.840650
70
0
0
VERTEX
8
Image
10
48.352196
20
47.174162
70
0
0
VERTEX
8
Image
10
49.791549
20
47.882497
70
0
0
VERTEX
8
Image
10
52.063798
20
48.555035
70
0
0
VERTEX
8
Image
10
54.875816
20
49.082719
70
0
0
VERTEX
8
Image
10
57.363629
20
49.570465
70
0
0
VERTEX
8
Image
10
59.356103
20
50.289660
70
0
0
VERTEX
8
Image
10
61.165482
20
50.980894
70
0
0
VERTEX
8
Image
10
63.037868
20
51.483286
70
0
0
VERTEX
8
Image
10
64.955127
20
51.851202
70
0
0
VERTEX
8
Image
10
63.090846
20
51.761665
70
0
0
VERTEX
8
Image
10
61.175678
20
51.492422
70
0
0
VERTEX
8
Image
10
59.122101
20
50.734366
70
0
0
VERTEX
8
Image
10
57.089175
20
49.987165
70
0
0
VERTEX
8
Image
10
55.195898
20
49.611954
70
0
0
VERTEX
8
Image
10
52.020902
20
49.031528
70
0
0
VERTEX
8
Image
10
48.168524
20
47.651845
70
0
0
VERTEX
8
Image
10
45.772859
20
46.544347
70
0
0
VERTEX
8
Image
10
49.328444
20
44.595273
70
0
0
VERTEX
8
Image
10
51.571952
20
43.418634
70
0
0
VERTEX
8
Image
10
53.135507
20
42.367431
70
0
0
VERTEX
8
Image
10
54.511204
20
41.044117
70
0
0
VERTEX
8
Image
10
56.191137
20
39.051145
70
0
0
VERTEX
8
Image
10
57.219861
20
37.913350
70
0
0
VERTEX
8
Image
10
58.152370
20
37.213824
70
0
0
VERTEX
8
Image
10
59.117733
20
36.882461
70
0
0
VERTEX
8
Image
10
60.245020
20
36.849150
70
0
0
VERTEX
8
Image
10
61.542721
20
37.101663
70
0
0
VERTEX
8
Image
10
62.672934
20
37.680116
70
0
0
VERTEX
8
Image
10
62.672934
20
37.680116
70
0
0
SEQEND
8
Image
0
POLYLINE
8
Image
62
7
70
0
10
0.000000
20
0.000000
66
1
0
VERTEX
8
Image
10
3.655154
20
37.637002
70
0
0
VERTEX
8
Image
10
3.657350
20
37.865851
70
0
0
VERTEX
8
Image
10
3.536776
20
38.007625
70
0
0
VERTEX
8
Image
10
2.797522
20
38.100022
70
0
0
VERTEX
8
Image
10
1.932500
20
38.015616
70
0
0
VERTEX
8
Image
10
1.891852
20
37.821091
70
0
0
VERTEX
8
Image
10
2.018172
20
37.445891
70
0
0
VERTEX
8
Image
10
2.351692
20
37.142321
70
0
0
VERTEX
8
Image
10
2.876244
20
37.089392
70
0
0
VERTEX
8
Image
10
3.381007
20
37.262490
70
0
0
VERTEX
8
Image
10
3.655154
20
37.637002
70
0
0
VERTEX
8
Image
10
3.655154
20
37.637002
70
0
0
SEQEND
8
Image
0
POLYLINE
8
Image
62
7
70
0
10
0.000000
20
0.000000
66
1
0
VERTEX
8
Image
10
9.603873
20
37.208769
70
0
0
VERTEX
8
Image
10
9.656455
20
37.497635
70
0
0
VERTEX
8
Image
10
9.490447
20
37.882924
70
0
0
VERTEX
8
Image
10
9.197642
20
38.220095
70
0
0
VERTEX
8
Image
10
8.869836
20
38.364605
70
0
0
VERTEX
8
Image
10
8.524908
20
38.280000
70
0
0
VERTEX
8
Image
10
8.329786
20
38.060855
70
0
0
VERTEX
8
Image
10
8.306298
20
37.759179
70
0
0
VERTEX
8
Image
10
8.476275
20
37.426976
70
0
0
VERTEX
8
Image
10
9.059238
20
37.060089
70
0
0
VERTEX
8
Image
10
9.603873
20
37.208769
70
0
0
VERTEX
8
Image
10
9.603873
20
37.208769
70
0
0
SEQEND
8
Image
0
POLYLINE
8
Image
62
7
70
0
10
0.000000
20
0.000000
66
1
0
VERTEX
8
Image
10
25.476468
20
37.859307
70
0
0
VERTEX
8
Image
10
26.890177
20
38.274939
70
0
0
VERTEX
8
Image
10
27.603724
20
38.638065
70
0
0
VERTEX
8
Image
10
27.690471
20
38.793019
70
0
0
VERTEX
8
Image
10
27.593219
20
38.926542
70
0
0
VERTEX
8
Image
10
26.834770
20
39.118230
70
0
0
VERTEX
8
Image
10
25.695956
20
39.042513
70
0
0
VERTEX
8
Image
10
24.062297
20
38.749748
70
0
0
VERTEX
8
Image
10
22.596280
20
38.381262
70
0
0
VERTEX
8
Image
10
21.960389
20
38.078382
70
0
0
VERTEX
8
Image
10
22.196127
20
37.355861
70
0
0
VERTEX
8
Image
10
22.439046
20
37.169186
70
0
0
VERTEX
8
Image
10
22.719325
20
37.154881
70
0
0
VERTEX
8
Image
10
25.476468
20
37.859307
70
0
0
VERTEX
8
Image
10
25.476468
20
37.859307
70
0
0
SEQEND
8
Image
0
POLYLINE
8
Image
62
7
70
0
10
0.000000
20
0.000000
66
1
0
VERTEX
8
Image
10
16.061417
20
37.797260
70
0
0
VERTEX
8
Image
10
16.229568
20
38.015173
70
0
0
VERTEX
8
Image
10
16.186271
20
38.289030
70
0
0
VERTEX
8
Image
10
15.778164
20
38.471787
70
0
0
VERTEX
8
Image
10
14.809211
20
38.311757
70
0
0
VERTEX
8
Image
10
13.601495
20
37.955399
70
0
0
VERTEX
8
Image
10
13.514286
20
37.797997
70
0
0
VERTEX
8
Image
10
13.629831
20
37.564702
70
0
0
VERTEX
8
Image
10
13.991302
20
37.418667
70
0
0
VERTEX
8
Image
10
14.655864
20
37.422025
70
0
0
VERTEX
8
Image
10
16.061417
20
37.797265
70
0
0
VERTEX
8
Image
10
16.061417
20
37.797260
70
0
0
SEQEND
8
Image
0
POLYLINE
8
Image
62
7
70
0
10
0.000000
20
0.000000
66
1
0
VERTEX
8
Image
10
41.274948
20
37.740126
70
0
0
VERTEX
8
Image
10
40.779413
20
38.277569
70
0
0
VERTEX
8
Image
10
39.977171
20
38.620774
70
0
0
VERTEX
8
Image
10
39.788792
20
38.513308
70
0
0
VERTEX
8
Image
10
40.084325
20
38.100022
70
0
0
VERTEX
8
Image
10
40.849908
20
37.595246
70
0
0
VERTEX
8
Image
10
41.152765
20
37.572039
70
0
0
VERTEX
8
Image
10
41.274948
20
37.740126
70
0
0
VERTEX
8
Image
10
41.274948
20
37.740126
70
0
0
SEQEND
8
Image
0
POLYLINE
8
Image
62
7
70
0
10
0.000000
20
0.000000
66
1
0
VERTEX
8
Image
10
11.973372
20
38.331402
70
0
0
VERTEX
8
Image
10
12.016776
20
38.590028
70
0
0
VERTEX
8
Image
10
11.841081
20
38.939494
70
0
0
VERTEX
8
Image
10
11.399751
20
39.217982
70
0
0
VERTEX
8
Image
10
10.651602
20
39.116701
70
0
0
VERTEX
8
Image
10
9.984477
20
38.832277
70
0
0
VERTEX
8
Image
10
10.122436
20
38.347367
70
0
0
VERTEX
8
Image
10
10.525005
20
37.969139
70
0
0
VERTEX
8
Image
10
11.112486
20
37.976226
70
0
0
VERTEX
8
Image
10
11.973372
20
38.331402
70
0
0
VERTEX
8
Image
10
11.973372
20
38.331402
70
0
0
SEQEND
8
Image
0
POLYLINE
8
Image
62
7
70
0
10
0.000000
20
0.000000
66
1
0
VERTEX
8
Image
10
44.403197
20
39.249630
70
0
0
VERTEX
8
Image
10
44.340412
20
39.603901
70
0
0
VERTEX
8
Image
10
44.055066
20
39.680099
70
0
0
VERTEX
8
Image
10
43.695383
20
39.501707
70
0
0
VERTEX
8
Image
10
43.409588
20
39.092208
70
0
0
VERTEX
8
Image
10
43.189884
20
38.685820
70
0
0
VERTEX
8
Image
10
43.004151
20
38.930678
70
0
0
VERTEX
8
Image
10
42.720528
20
39.209416
70
0
0
VERTEX
8
Image
10
42.318695
20
39.228517
70
0
0
VERTEX
8
Image
10
41.959581
20
39.026636
70
0
0
VERTEX
8
Image
10
41.804114
20
38.642428
70
0
0
VERTEX
8
Image
10
41.959742
20
38.032588
70
0
0
VERTEX
8
Image
10
42.444592
20
38.043285
70
0
0
VERTEX
8
Image
10
43.250880
20
38.367949
70
0
0
VERTEX
8
Image
10
44.022462
20
38.829193
70
0
0
VERTEX
8
Image
10
44.403197
20
39.249630
70
0
0
VERTEX
8
Image
10
44.403197
20
39.249630
70
0
0
SEQEND
8
Image
0
POLYLINE
8
Image
62
7
70
0
10
0.000000
20
0.000000
66
1
0
VERTEX
8
Image
10
71.117894
20
39.191840
70
0
0
VERTEX
8
Image
10
71.219569
20
39.867332
70
0
0
VERTEX
8
Image
10
71.171738
20
40.424466
70
0
0
VERTEX
8
Image
10
71.005525
20
40.736792
70
0
0
VERTEX
8
Image
10
70.752058
20
40.677862
70
0
0
VERTEX
8
Image
10
70.442057
20
39.098026
70
0
0
VERTEX
8
Image
10
70.427215
20
38.224103
70
0
0
VERTEX
8
Image
10
70.564327
20
37.952515
70
0
0
VERTEX
8
Image
10
70.809262
20
38.277135
70
0
0
VERTEX
8
Image
10
71.117894
20
39.191840
70
0
0
VERTEX
8
Image
10
71.117894
20
39.191840
70
0
0
SEQEND
8
Image
0
POLYLINE
8
Image
62
7
70
0
10
0.000000
20
0.000000
66
1
0
VERTEX
8
Image
10
17.940904
20
38.696516
70
0
0
VERTEX
8
Image
10
17.881234
20
38.989941
70
0
0
VERTEX
8
Image
10
17.477884
20
38.974464
70
0
0
VERTEX
8
Image
10
16.966856
20
38.687616
70
0
0
VERTEX
8
Image
10
17.115213
20
38.270898
70
0
0
VERTEX
8
Image
10
17.349025
20
38.153786
70
0
0
VERTEX
8
Image
10
17.598446
20
38.203143
70
0
0
VERTEX
8
Image
10
17.940904
20
38.696516
70
0
0
VERTEX
8
Image
10
17.940904
20
38.696516
70
0
0
SEQEND
8
Image
0
POLYLINE
8
Image
62
7
70
0
10
0.000000
20
0.000000
66
1
0
VERTEX
8
Image
10
7.655894
20
38.613075
70
0
0
VERTEX
8
Image
10
7.898388
20
38.886870
70
0
0
VERTEX
8
Image
10
7.689643
20
39.270479
70
0
0
VERTEX
8
Image
10
7.226771
20
39.569518
70
0
0
VERTEX
8
Image
10
6.619413
20
39.675471
70
0
0
VERTEX
8
Image
10
6.056717
20
39.585719
70
0
0
VERTEX
8
Image
10
5.727831
20
39.297644
70
0
0
VERTEX
8
Image
10
5.804573
20
38.827011
70
0
0
VERTEX
8
Image
10
6.292804
20
38.505867
70
0
0
VERTEX
8
Image
10
6.980563
20
38.409470
70
0
0
VERTEX
8
Image
10
7.655894
20
38.613075
70
0
0
VERTEX
8
Image
10
7.655894
20
38.613075
70
0
0
SEQEND
8
Image
0
POLYLINE
8
Image
62
7
70
0
10
0.000000
20
0.000000
66
1
0
VERTEX
8
Image
10
14.606655
20
39.065649
70
0
0
VERTEX
8
Image
10
14.714155
20
39.277643
70
0
0
VERTEX
8
Image
10
14.632120
20
39.574197
70
0
0
VERTEX
8
Image
10
14.421716
20
39.838090
70
0
0
VERTEX
8
Image
10
14.144107
20
39.952103
70
0
0
VERTEX
8
Image
10
13.528396
20
39.864454
70
0
0
VERTEX
8
Image
10
13.002018
20
39.640771
70
0
0
VERTEX
8
Image
10
12.662231
20
39.339948
70
0
0
VERTEX
8
Image
10
12.606293
20
39.020879
70
0
0
VERTEX
8
Image
10
12.911481
20
38.731203
70
0
0
VERTEX
8
Image
10
13.593426
20
38.778939
70
0
0
VERTEX
8
Image
10
14.606655
20
39.065649
70
0
0
VERTEX
8
Image
10
14.606655
20
39.065649
70
0
0
SEQEND
8
Image
0
POLYLINE
8
Image
62
7
70
0
10
0.000000
20
0.000000
66
1
0
VERTEX
8
Image
10
5.012922
20
39.396489
70
0
0
VERTEX
8
Image
10
5.116485
20
39.788140
70
0
0
VERTEX
8
Image
10
4.895225
20
40.040805
70
0
0
VERTEX
8
Image
10
3.294957
20
40.216686
70
0
0
VERTEX
8
Image
10
2.333420
20
40.107251
70
0
0
VERTEX
8
Image
10
1.870699
20
39.722307
70
0
0
VERTEX
8
Image
10
1.718846
20
39.300436
70
0
0
VERTEX
8
Image
10
1.866586
20
39.048117
70
0
0
VERTEX
8
Image
10
3.342076
20
38.893771
70
0
0
VERTEX
8
Image
10
4.512776
20
38.996334
70
0
0
VERTEX
8
Image
10
5.012922
20
39.396489
70
0
0
VERTEX
8
Image
10
5.012922
20
39.396489
70
0
0
SEQEND
8
Image
0
POLYLINE
8
Image
62
7
70
0
10
0.000000
20
0.000000
66
1
0
VERTEX
8
Image
10
23.717199
20
39.420804
70
0
0
VERTEX
8
Image
10
27.201434
20
40.179563
70
0
0
VERTEX
8
Image
10
27.430478
20
40.388740
70
0
0
VERTEX
8
Image
10
27.172952
20
40.673764
70
0
0
VERTEX
8
Image
10
26.865842
20
40.892847
70
0
0
VERTEX
8
Image
10
26.380006
20
40.959693
70
0
0
VERTEX
8
Image
10
23.957415
20
40.621932
70
0
0
VERTEX
8
Image
10
21.025080
20
39.929997
70
0
0
VERTEX
8
Image
10
20.481926
20
39.580512
70
0
0
VERTEX
8
Image
10
20.480376
20
39.198494
70
0
0
VERTEX
8
Image
10
20.657648
20
38.981007
70
0
0
VERTEX
8
Image
10
21.041293
20
38.930803
70
0
0
VERTEX
8
Image
10
23.717199
20
39.420804
70
0
0
VERTEX
8
Image
10
23.717199
20
39.420804
70
0
0
SEQEND
8
Image
0
POLYLINE
8
Image
62
7
70
0
10
0.000000
20
0.000000
66
1
0
VERTEX
8
Image
10
68.456539
20
40.018249
70
0
0
VERTEX
8
Image
10
69.287883
20
40.980689
70
0
0
VERTEX
8
Image
10
69.800566
20
41.891121
70
0
0
VERTEX
8
Image
10
70.047477
20
42.881925
70
0
0
VERTEX
8
Image
10
70.081507
20
44.085485
70
0
0
VERTEX
8
Image
10
69.935961
20
45.278516
70
0
0
VERTEX
8
Image
10
69.707101
20
45.389648
70
0
0
VERTEX
8
Image
10
69.276754
20
45.327570
70
0
0
VERTEX
8
Image
10
68.613086
20
45.318727
70
0
0
VERTEX
8
Image
10
68.088848
20
45.541551
70
0
0
VERTEX
8
Image
10
67.543779
20
46.211911
70
0
0
VERTEX
8
Image
10
67.098306
20
47.177549
70
0
0
VERTEX
8
Image
10
66.798419
20
48.309073
70
0
0
VERTEX
8
Image
10
66.690103
20
49.477091
70
0
0
VERTEX
8
Image
10
66.769512
20
50.573631
70
0
0
VERTEX
8
Image
10
67.010268
20
51.431293
70
0
0
VERTEX
8
Image
10
67.425154
20
52.079442
70
0
0
VERTEX
8
Image
10
68.026954
20
52.547442
70
0
0
VERTEX
8
Image
10
68.449109
20
52.834011
70
0
0
VERTEX
8
Image
10
68.169810
20
52.907293
70
0
0
VERTEX
8
Image
10
67.567984
20
52.657785
70
0
0
VERTEX
8
Image
10
66.808393
20
52.044731
70
0
0
VERTEX
8
Image
10
66.333850
20
51.514658
70
0
0
VERTEX
8
Image
10
66.044962
20
50.974333
70
0
0
VERTEX
8
Image
10
65.738480
20
49.068173
70
0
0
VERTEX
8
Image
10
65.687950
20
46.774861
70
0
0
VERTEX
8
Image
10
65.975419
20
44.048993
70
0
0
VERTEX
8
Image
10
66.410333
20
40.190490
70
0
0
VERTEX
8
Image
10
66.517253
20
39.238155
70
0
0
VERTEX
8
Image
10
66.658766
20
38.990409
70
0
0
VERTEX
8
Image
10
66.865971
20
38.894356
70
0
0
VERTEX
8
Image
10
67.498421
20
39.155564
70
0
0
VERTEX
8
Image
10
68.456539
20
40.018249
70
0
0
VERTEX
8
Image
10
68.456539
20
40.018249
70
0
0
SEQEND
8
Image
0
POLYLINE
8
Image
62
7
70
0
10
0.000000
20
0.000000
66
1
0
VERTEX
8
Image
10
67.495785
20
40.542229
70
0
0
VERTEX
8
Image
10
67.046368
20
42.277723
70
0
0
VERTEX
8
Image
10
67.020226
20
42.889360
70
0
0
VERTEX
8
Image
10
67.153372
20
43.127099
70
0
0
VERTEX
8
Image
10
67.523761
20
42.709416
70
0
0
VERTEX
8
Image
10
67.886097
20
41.765173
70
0
0
VERTEX
8
Image
10
68.102933
20
40.757578
70
0
0
VERTEX
8
Image
10
68.036820
20
40.149842
70
0
0
VERTEX
8
Image
10
67.759152
20
40.089645
70
0
0
VERTEX
8
Image
10
67.495785
20
40.542229
70
0
0
VERTEX
8
Image
10
67.495785
20
40.542229
70
0
0
SEQEND
8
Image
0
POLYLINE
8
Image
62
7
70
0
10
0.000000
20
0.000000
66
1
0
VERTEX
8
Image
10
38.893701
20
39.422937
70
0
0
VERTEX
8
Image
10
38.815980
20
39.609799
70
0
0
VERTEX
8
Image
10
38.629118
20
39.687520
70
0
0
VERTEX
8
Image
10
38.442256
20
39.609799
70
0
0
VERTEX
8
Image
10
38.364535
20
39.422937
70
0
0
VERTEX
8
Image
10
38.442256
20
39.236075
70
0
0
VERTEX
8
Image
10
38.629118
20
39.158354
70
0
0
VERTEX
8
Image
10
38.815980
20
39.236075
70
0
0
VERTEX
8
Image
10
38.893701
20
39.422937
70
0
0
VERTEX
8
Image
10
38.893701
20
39.422937
70
0
0
SEQEND
8
Image
0
POLYLINE
8
Image
62
7
70
0
10
0.000000
20
0.000000
66
1
0
VERTEX
8
Image
10
48.430339
20
40.547415
70
0
0
VERTEX
8
Image
10
50.571086
20
41.549299
70
0
0
VERTEX
8
Image
10
51.266340
20
42.007487
70
0
0
VERTEX
8
Image
10
47.889523
20
41.058108
70
0
0
VERTEX
8
Image
10
45.564507
20
40.178652
70
0
0
VERTEX
8
Image
10
44.981236
20
39.854988
70
0
0
VERTEX
8
Image
10
44.761274
20
39.598035
70
0
0
VERTEX
8
Image
10
44.793947
20
39.257034
70
0
0
VERTEX
8
Image
10
45.249621
20
39.258456
70
0
0
VERTEX
8
Image
10
48.430339
20
40.547415
70
0
0
VERTEX
8
Image
10
48.430339
20
40.547415
70
0
0
SEQEND
8
Image
0
POLYLINE
8
Image
62
7
70
0
10
0.000000
20
0.000000
66
1
0
VERTEX
8
Image
10
9.751673
20
39.658498
70
0
0
VERTEX
8
Image
10
9.956119
20
39.875324
70
0
0
VERTEX
8
Image
10
9.815451
20
40.068400
70
0
0
VERTEX
8
Image
10
9.450102
20
40.148732
70
0
0
VERTEX
8
Image
10
9.003631
20
40.079530
70
0
0
VERTEX
8
Image
10
8.625872
20
39.905086
70
0
0
VERTEX
8
Image
10
8.466656
20
39.669690
70
0
0
VERTEX
8
Image
10
8.599972
20
39.495181
70
0
0
VERTEX
8
Image
10
8.929251
20
39.434531
70
0
0
VERTEX
8
Image
10
9.751673
20
39.658498
70
0
0
VERTEX
8
Image
10
9.751673
20
39.658498
70
0
0
SEQEND
8
Image
0
POLYLINE
8
Image
62
7
70
0
10
0.000000
20
0.000000
66
1
0
VERTEX
8
Image
10
17.160964
20
39.826976
70
0
0
VERTEX
8
Image
10
17.001191
20
40.254640
70
0
0
VERTEX
8
Image
10
16.571009
20
40.425784
70
0
0
VERTEX
8
Image
10
16.021032
20
40.366670
70
0
0
VERTEX
8
Image
10
15.547290
20
40.133306
70
0
0
VERTEX
8
Image
10
15.345814
20
39.781698
70
0
0
VERTEX
8
Image
10
15.516646
20
39.477309
70
0
0
VERTEX
8
Image
10
16.186416
20
39.524913
70
0
0
VERTEX
8
Image
10
17.160964
20
39.826976
70
0
0
VERTEX
8
Image
10
17.160964
20
39.826976
70
0
0
SEQEND
8
Image
0
POLYLINE
8
Image
62
7
70
0
10
0.000000
20
0.000000
66
1
0
VERTEX
8
Image
10
40.216616
20
39.687520
70
0
0
VERTEX
8
Image
10
40.099940
20
39.952103
70
0
0
VERTEX
8
Image
10
39.819741
20
39.687520
70
0
0
VERTEX
8
Image
10
39.786562
20
39.500658
70
0
0
VERTEX
8
Image
10
39.936417
20
39.422937
70
0
0
VERTEX
8
Image
10
40.134308
20
39.500658
70
0
0
VERTEX
8
Image
10
40.216616
20
39.687520
70
0
0
VERTEX
8
Image
10
40.216616
20
39.687520
70
0
0
SEQEND
8
Image
0
POLYLINE
8
Image
62
7
70
0
10
0.000000
20
0.000000
66
1
0
VERTEX
8
Image
10
35.160755
20
40.383659
70
0
0
VERTEX
8
Image
10
32.680967
20
42.418022
70
0
0
VERTEX
8
Image
10
28.574964
20
45.605559
70
0
0
VERTEX
8
Image
10
27.354769
20
46.516345
70
0
0
VERTEX
8
Image
10
27.202141
20
46.565179
70
0
0
VERTEX
8
Image
10
27.384341
20
46.324939
70
0
0
VERTEX
8
Image
10
29.673834
20
44.274586
70
0
0
VERTEX
8
Image
10
33.457129
20
41.361455
70
0
0
VERTEX
8
Image
10
35.277427
20
40.069355
70
0
0
VERTEX
8
Image
10
35.404744
20
40.058117
70
0
0
VERTEX
8
Image
10
35.160755
20
40.383659
70
0
0
VERTEX
8
Image
10
35.160755
20
40.383659
70
0
0
SEQEND
8
Image
0
POLYLINE
8
Image
62
7
70
0
10
0.000000
20
0.000000
66
1
0
VERTEX
8
Image
10
40.005156
20
40.244938
70
0
0
VERTEX
8
Image
10
41.564962
20
40.729281
70
0
0
VERTEX
8
Image
10
41.844585
20
40.928924
70
0
0
VERTEX
8
Image
10
41.603256
20
41.010435
70
0
0
VERTEX
8
Image
10
39.076149
20
40.670244
70
0
0
VERTEX
8
Image
10
37.306203
20
40.184523
70
0
0
VERTEX
8
Image
10
37.490437
20
40.011515
70
0
0
VERTEX
8
Image
10
38.022408
20
39.964379
70
0
0
VERTEX
8
Image
10
40.005156
20
40.244938
70
0
0
VERTEX
8
Image
10
40.005156
20
40.244938
70
0
0
SEQEND
8
Image
0
POLYLINE
8
Image
62
7
70
0
10
0.000000
20
0.000000
66
1
0
VERTEX
8
Image
10
14.681643
20
40.780015
70
0
0
VERTEX
8
Image
10
17.653094
20
41.454021
70
0
0
VERTEX
8
Image
10
17.948103
20
41.615022
70
0
0
VERTEX
8
Image
10
17.837450
20
41.781917
70
0
0
VERTEX
8
Image
10
17.384299
20
41.891700
70
0
0
VERTEX
8
Image
10
16.520783
20
41.869090
70
0
0
VERTEX
8
Image
10
14.143076
20
41.535313
70
0
0
VERTEX
8
Image
10
11.865170
20
40.997829
70
0
0
VERTEX
8
Image
10
11.126404
20
40.720585
70
0
0
VERTEX
8
Image
10
10.847903
20
40.473879
70
0
0
VERTEX
8
Image
10
11.036483
20
40.270844
70
0
0
VERTEX
8
Image
10
11.670261
20
40.248755
70
0
0
VERTEX
8
Image
10
14.681643
20
40.780015
70
0
0
VERTEX
8
Image
10
14.681643
20
40.780015
70
0
0
SEQEND
8
Image
0
POLYLINE
8
Image
62
7
70
0
10
0.000000
20
0.000000
66
1
0
VERTEX
8
Image
10
8.466656
20
40.723929
70
0
0
VERTEX
8
Image
10
8.087292
20
40.969817
70
0
0
VERTEX
8
Image
10
7.172814
20
41.237258
70
0
0
VERTEX
8
Image
10
5.080200
20
41.521003
70
0
0
VERTEX
8
Image
10
3.836454
20
41.288054
70
0
0
VERTEX
8
Image
10
3.608093
20
41.079916
70
0
0
VERTEX
8
Image
10
4.365620
20
40.892158
70
0
0
VERTEX
8
Image
10
5.820826
20
40.626634
70
0
0
VERTEX
8
Image
10
7.483644
20
40.518930
70
0
0
VERTEX
8
Image
10
8.180709
20
40.586776
70
0
0
VERTEX
8
Image
10
8.466656
20
40.723929
70
0
0
VERTEX
8
Image
10
8.466656
20
40.723929
70
0
0
SEQEND
8
Image
0
POLYLINE
8
Image
62
7
70
0
10
0.000000
20
0.000000
66
1
0
VERTEX
8
Image
10
42.994737
20
41.010435
70
0
0
VERTEX
8
Image
10
43.032503
20
41.197297
70
0
0
VERTEX
8
Image
10
42.893675
20
41.275018
70
0
0
VERTEX
8
Image
10
42.465572
20
41.010435
70
0
0
VERTEX
8
Image
10
42.427806
20
40.823573
70
0
0
VERTEX
8
Image
10
42.566634
20
40.745852
70
0
0
VERTEX
8
Image
10
42.994737
20
41.010435
70
0
0
VERTEX
8
Image
10
42.994737
20
41.010435
70
0
0
SEQEND
8
Image
0
POLYLINE
8
Image
62
7
70
0
10
0.000000
20
0.000000
66
1
0
VERTEX
8
Image
10
24.694301
20
41.555111
70
0
0
VERTEX
8
Image
10
25.979621
20
41.853769
70
0
0
VERTEX
8
Image
10
26.239411
20
41.994523
70
0
0
VERTEX
8
Image
10
26.240161
20
42.128155
70
0
0
VERTEX
8
Image
10
25.628366
20
42.204565
70
0
0
VERTEX
8
Image
10
24.405080
20
42.120833
70
0
0
VERTEX
8
Image
10
21.745182
20
41.646614
70
0
0
VERTEX
8
Image
10
21.504340
20
41.468382
70
0
0
VERTEX
8
Image
10
21.586824
20
41.255836
70
0
0
VERTEX
8
Image
10
21.892186
20
41.103479
70
0
0
VERTEX
8
Image
10
22.319982
20
41.105817
70
0
0
VERTEX
8
Image
10
24.694301
20
41.555111
70
0
0
VERTEX
8
Image
10
24.694301
20
41.555111
70
0
0
SEQEND
8
Image
0
POLYLINE
8
Image
62
7
70
0
10
0.000000
20
0.000000
66
1
0
VERTEX
8
Image
10
37.570786
20
41.275018
70
0
0
VERTEX
8
Image
10
37.706094
20
41.395787
70
0
0
VERTEX
8
Image
10
37.660592
20
41.475696
70
0
0
VERTEX
8
Image
10
36.975474
20
41.535550
70
0
0
VERTEX
8
Image
10
36.274743
20
41.460690
70
0
0
VERTEX
8
Image
10
35.983288
20
41.275018
70
0
0
VERTEX
8
Image
10
36.158004
20
41.085457
70
0
0
VERTEX
8
Image
10
36.581488
20
41.022270
70
0
0
VERTEX
8
Image
10
37.570786
20
41.275018
70
0
0
VERTEX
8
Image
10
37.570786
20
41.275018
70
0
0
SEQEND
8
Image
0
POLYLINE
8
Image
62
7
70
0
10
0.000000
20
0.000000
66
1
0
VERTEX
8
Image
10
44.317653
20
41.275018
70
0
0
VERTEX
8
Image
10
44.350832
20
41.461880
70
0
0
VERTEX
8
Image
10
44.200977
20
41.539601
70
0
0
VERTEX
8
Image
10
44.003086
20
41.461880
70
0
0
VERTEX
8
Image
10
43.920778
20
41.275018
70
0
0
VERTEX
8
Image
10
44.037454
20
41.010435
70
0
0
VERTEX
8
Image
10
44.317653
20
41.275018
70
0
0
VERTEX
8
Image
10
44.317653
20
41.275018
70
0
0
SEQEND
8
Image
0
POLYLINE
8
Image
62
7
70
0
10
0.000000
20
0.000000
66
1
0
VERTEX
8
Image
10
58.737426
20
41.620518
70
0
0
VERTEX
8
Image
10
58.562420
20
42.670764
70
0
0
VERTEX
8
Image
10
58.147452
20
43.958008
70
0
0
VERTEX
8
Image
10
57.657597
20
45.048464
70
0
0
VERTEX
8
Image
10
57.257931
20
45.508346
70
0
0
VERTEX
8
Image
10
56.981423
20
45.296908
70
0
0
VERTEX
8
Image
10
56.894527
20
44.723189
70
0
0
VERTEX
8
Image
10
56.996291
20
43.878082
70
0
0
VERTEX
8
Image
10
57.285762
20
42.852478
70
0
0
VERTEX
8
Image
10
57.778730
20
41.729487
70
0
0
VERTEX
8
Image
10
58.248168
20
41.096220
70
0
0
VERTEX
8
Image
10
58.599319
20
41.033092
70
0
0
VERTEX
8
Image
10
58.737426
20
41.620518
70
0
0
VERTEX
8
Image
10
58.737426
20
41.620518
70
0
0
SEQEND
8
Image
0
POLYLINE
8
Image
62
7
70
0
10
0.000000
20
0.000000
66
1
0
VERTEX
8
Image
10
11.528885
20
41.835775
70
0
0
VERTEX
8
Image
10
11.198529
20
42.000326
70
0
0
VERTEX
8
Image
10
10.202060
20
42.068767
70
0
0
VERTEX
8
Image
10
9.163293
20
41.996208
70
0
0
VERTEX
8
Image
10
8.731239
20
41.821758
70
0
0
VERTEX
8
Image
10
8.838884
20
41.660145
70
0
0
VERTEX
8
Image
10
9.125288
20
41.545757
70
0
0
VERTEX
8
Image
10
10.015174
20
41.457558
70
0
0
VERTEX
8
Image
10
10.962504
20
41.554965
70
0
0
VERTEX
8
Image
10
11.528885
20
41.835781
70
0
0
VERTEX
8
Image
10
11.528885
20
41.835775
70
0
0
SEQEND
8
Image
0
POLYLINE
8
Image
62
7
70
0
10
0.000000
20
0.000000
66
1
0
VERTEX
8
Image
10
39.224430
20
41.714829
70
0
0
VERTEX
8
Image
10
38.562972
20
41.714829
70
0
0
VERTEX
8
Image
10
38.523698
20
41.620578
70
0
0
VERTEX
8
Image
10
38.893701
20
41.581376
70
0
0
VERTEX
8
Image
10
39.263704
20
41.620578
70
0
0
VERTEX
8
Image
10
39.224430
20
41.714829
70
0
0
VERTEX
8
Image
10
39.224430
20
41.714829
70
0
0
SEQEND
8
Image
0
POLYLINE
8
Image
62
7
70
0
10
0.000000
20
0.000000
66
1
0
VERTEX
8
Image
10
72.155205
20
45.211706
70
0
0
VERTEX
8
Image
10
72.218265
20
47.417598
70
0
0
VERTEX
8
Image
10
72.132038
20
48.915738
70
0
0
VERTEX
8
Image
10
71.890710
20
49.747454
70
0
0
VERTEX
8
Image
10
71.710068
20
49.926317
70
0
0
VERTEX
8
Image
10
71.488472
20
49.954073
70
0
0
VERTEX
8
Image
10
71.256484
20
49.793795
70
0
0
VERTEX
8
Image
10
71.062376
20
49.420871
70
0
0
VERTEX
8
Image
10
70.796207
20
48.113567
70
0
0
VERTEX
8
Image
10
70.706776
20
46.185137
70
0
0
VERTEX
8
Image
10
70.810893
20
43.788556
70
0
0
VERTEX
8
Image
10
70.965055
20
42.620797
70
0
0
VERTEX
8
Image
10
71.192735
20
41.899812
70
0
0
VERTEX
8
Image
10
71.472590
20
41.665766
70
0
0
VERTEX
8
Image
10
71.783276
20
41.958822
70
0
0
VERTEX
8
Image
10
72.155205
20
45.211706
70
0
0
VERTEX
8
Image
10
72.155205
20
45.211706
70
0
0
SEQEND
8
Image
0
POLYLINE
8
Image
62
7
70
0
10
0.000000
20
0.000000
66
1
0
VERTEX
8
Image
10
42.273101
20
42.995514
70
0
0
VERTEX
8
Image
10
48.292364
20
43.656265
70
0
0
VERTEX
8
Image
10
48.418689
20
43.960363
70
0
0
VERTEX
8
Image
10
48.196775
20
44.093633
70
0
0
VERTEX
8
Image
10
47.479652
20
44.161196
70
0
0
VERTEX
8
Image
10
44.251507
20
44.110297
70
0
0
VERTEX
8
Image
10
36.809647
20
43.620834
70
0
0
VERTEX
8
Image
10
34.491064
20
43.310405
70
0
0
VERTEX
8
Image
10
33.682117
20
43.015699
70
0
0
VERTEX
8
Image
10
33.942397
20
42.686576
70
0
0
VERTEX
8
Image
10
34.425351
20
42.421742
70
0
0
VERTEX
8
Image
10
35.027720
20
42.261627
70
0
0
VERTEX
8
Image
10
35.646244
20
42.246662
70
0
0
VERTEX
8
Image
10
42.273101
20
42.995514
70
0
0
VERTEX
8
Image
10
42.273101
20
42.995514
70
0
0
SEQEND
8
Image
0
POLYLINE
8
Image
62
7
70
0
10
0.000000
20
0.000000
66
1
0
VERTEX
8
Image
10
61.383256
20
44.590608
70
0
0
VERTEX
8
Image
10
61.299935
20
46.435820
70
0
0
VERTEX
8
Image
10
61.170389
20
46.833584
70
0
0
VERTEX
8
Image
10
60.959680
20
47.010410
70
0
0
VERTEX
8
Image
10
60.554109
20
47.030088
70
0
0
VERTEX
8
Image
10
60.304052
20
46.709511
70
0
0
VERTEX
8
Image
10
60.205487
20
46.037225
70
0
0
VERTEX
8
Image
10
60.254391
20
45.001770
70
0
0
VERTEX
8
Image
10
60.571640
20
43.064259
70
0
0
VERTEX
8
Image
10
60.944036
20
42.321303
70
0
0
VERTEX
8
Image
10
61.114116
20
42.411185
70
0
0
VERTEX
8
Image
10
61.253825
20
42.815789
70
0
0
VERTEX
8
Image
10
61.383256
20
44.590608
70
0
0
VERTEX
8
Image
10
61.383256
20
44.590608
70
0
0
SEQEND
8
Image
0
POLYLINE
8
Image
62
7
70
0
10
0.000000
20
0.000000
66
1
0
VERTEX
8
Image
10
23.746324
20
44.183132
70
0
0
VERTEX
8
Image
10
24.166492
20
44.281386
70
0
0
VERTEX
8
Image
10
24.319206
20
44.542409
70
0
0
VERTEX
8
Image
10
24.202015
20
44.922025
70
0
0
VERTEX
8
Image
10
23.812470
20
45.376054
70
0
0
VERTEX
8
Image
10
23.283304
20
46.183403
70
0
0
VERTEX
8
Image
10
23.003569
20
46.660987
70
0
0
VERTEX
8
Image
10
22.331016
20
47.347981
70
0
0
VERTEX
8
Image
10
21.567753
20
47.875601
70
0
0
VERTEX
8
Image
10
20.896084
20
48.094016
70
0
0
VERTEX
8
Image
10
20.424788
20
47.992134
70
0
0
VERTEX
8
Image
10
20.262648
20
47.558864
70
0
0
VERTEX
8
Image
10
20.328794
20
45.471492
70
0
0
VERTEX
8
Image
10
20.372891
20
43.847140
70
0
0
VERTEX
8
Image
10
21.761952
20
44.013987
70
0
0
VERTEX
8
Image
10
23.746324
20
44.183132
70
0
0
VERTEX
8
Image
10
23.746324
20
44.183132
70
0
0
SEQEND
8
Image
0
POLYLINE
8
Image
62
7
70
0
10
0.000000
20
0.000000
66
1
0
VERTEX
8
Image
10
39.952033
20
44.706966
70
0
0
VERTEX
8
Image
10
44.846819
20
44.997285
70
0
0
VERTEX
8
Image
10
46.698900
20
45.023768
70
0
0
VERTEX
8
Image
10
45.510901
20
45.568351
70
0
0
VERTEX
8
Image
10
44.322902
20
46.112934
70
0
0
VERTEX
8
Image
10
38.449048
20
45.230735
70
0
0
VERTEX
8
Image
10
32.946414
20
44.252724
70
0
0
VERTEX
8
Image
10
32.656515
20
44.138700
70
0
0
VERTEX
8
Image
10
32.857123
20
44.092399
70
0
0
VERTEX
8
Image
10
34.842263
20
44.234027
70
0
0
VERTEX
8
Image
10
39.952033
20
44.706966
70
0
0
VERTEX
8
Image
10
39.952033
20
44.706966
70
0
0
SEQEND
8
Image
0
POLYLINE
8
Image
62
7
70
0
10
0.000000
20
0.000000
66
1
0
VERTEX
8
Image
10
31.320515
20
45.574492
70
0
0
VERTEX
8
Image
10
27.997612
20
50.090540
70
0
0
VERTEX
8
Image
10
25.789303
20
53.157677
70
0
0
VERTEX
8
Image
10
24.870802
20
54.654597
70
0
0
VERTEX
8
Image
10
25.027870
20
55.016173
70
0
0
VERTEX
8
Image
10
25.501257
20
54.870518
70
0
0
VERTEX
8
Image
10
27.410074
20
53.049239
70
0
0
VERTEX
8
Image
10
29.309076
20
51.181342
70
0
0
VERTEX
8
Image
10
27.794366
20
53.100206
70
0
0
VERTEX
8
Image
10
24.433299
20
56.877016
70
0
0
VERTEX
8
Image
10
24.036217
20
57.097882
70
0
0
VERTEX
8
Image
10
23.492127
20
56.682664
70
0
0
VERTEX
8
Image
10
22.909300
20
56.099837
70
0
0
VERTEX
8
Image
10
23.494968
20
55.368148
70
0
0
VERTEX
8
Image
10
25.993547
20
51.820291
70
0
0
VERTEX
8
Image
10
28.675537
20
47.693915
70
0
0
VERTEX
8
Image
10
29.544248
20
46.410585
70
0
0
VERTEX
8
Image
10
30.238815
20
45.643397
70
0
0
VERTEX
8
Image
10
31.144093
20
45.252419
70
0
0
VERTEX
8
Image
10
31.365178
20
45.321663
70
0
0
VERTEX
8
Image
10
31.320515
20
45.574492
70
0
0
VERTEX
8
Image
10
31.320515
20
45.574492
70
0
0
SEQEND
8
Image
0
POLYLINE
8
Image
62
7
70
0
10
0.000000
20
0.000000
66
1
0
VERTEX
8
Image
10
25.078797
20
48.843653
70
0
0
VERTEX
8
Image
10
23.936990
20
49.862546
70
0
0
VERTEX
8
Image
10
23.291279
20
50.229401
70
0
0
VERTEX
8
Image
10
23.628514
20
49.745507
70
0
0
VERTEX
8
Image
10
24.643330
20
48.763254
70
0
0
VERTEX
8
Image
10
25.770524
20
47.796832
70
0
0
VERTEX
8
Image
10
26.444894
20
47.360427
70
0
0
VERTEX
8
Image
10
25.078797
20
48.843653
70
0
0
VERTEX
8
Image
10
25.078797
20
48.843653
70
0
0
SEQEND
8
Image
0
POLYLINE
8
Image
62
7
70
1
10
0.000000
20
0.000000
66
1
0
VERTEX
8
Image
10
69.585329
20
50.006257
70
0
0
VERTEX
8
Image
10
69.527261
20
50.491639
70
0
0
VERTEX
8
Image
10
69.375237
20
50.758858
70
0
0
VERTEX
8
Image
10
69.162529
20
50.781477
70
0
0
VERTEX
8
Image
10
68.922408
20
50.533055
70
0
0
VERTEX
8
Image
10
68.852380
20
50.181359
70
0
0
VERTEX
8
Image
10
68.930060
20
49.743572
70
0
0
VERTEX
8
Image
10
69.107955
20
49.370390
70
0
0
VERTEX
8
Image
10
69.338576
20
49.212508
70
0
0
VERTEX
8
Image
10
69.512845
20
49.445672
70
0
0
VERTEX
8
Image
10
69.585329
20
50.006257
70
0
0
VERTEX
8
Image
10
69.585329
20
50.006257
70
0
0
SEQEND
8
Image
0
POLYLINE
8
Image
62
7
70
0
10
0.000000
20
0.000000
66
1
0
VERTEX
8
Image
10
20.183923
20
49.821676
70
0
0
VERTEX
8
Image
10
20.177922
20
50.352461
70
0
0
VERTEX
8
Image
10
19.944183
20
51.028946
70
0
0
VERTEX
8
Image
10
19.594117
20
51.610962
70
0
0
VERTEX
8
Image
10
19.239137
20
51.858338
70
0
0
VERTEX
8
Image
10
18.854865
20
51.791672
70
0
0
VERTEX
8
Image
10
18.710099
20
51.567739
70
0
0
VERTEX
8
Image
10
19.127216
20
50.504459
70
0
0
VERTEX
8
Image
10
19.809654
20
49.547432
70
0
0
VERTEX
8
Image
10
20.017086
20
49.542420
70
0
0
VERTEX
8
Image
10
20.183923
20
49.821676
70
0
0
VERTEX
8
Image
10
20.183923
20
49.821676
70
0
0
SEQEND
8
Image
0
POLYLINE
8
Image
62
7
70
0
10
0.000000
20
0.000000
66
1
0
VERTEX
8
Image
10
26.108506
20
49.675528
70
0
0
VERTEX
8
Image
10
23.290891
20
54.042855
70
0
0
VERTEX
8
Image
10
22.224765
20
55.353347
70
0
0
VERTEX
8
Image
10
21.480876
20
55.954475
70
0
0
VERTEX
8
Image
10
21.294972
20
55.978270
70
0
0
VERTEX
8
Image
10
21.197907
20
55.842367
70
0
0
VERTEX
8
Image
10
21.229432
20
54.924014
70
0
0
VERTEX
8
Image
10
21.365029
20
54.228602
70
0
0
VERTEX
8
Image
10
21.696708
20
53.594281
70
0
0
VERTEX
8
Image
10
23.579520
20
51.622036
70
0
0
VERTEX
8
Image
10
25.713440
20
49.707126
70
0
0
VERTEX
8
Image
10
26.148726
20
49.440214
70
0
0
VERTEX
8
Image
10
26.108506
20
49.675528
70
0
0
VERTEX
8
Image
10
26.108506
20
49.675528
70
0
0
SEQEND
8
Image
0
POLYLINE
8
Image
62
7
70
0
10
0.000000
20
0.000000
66
1
0
VERTEX
8
Image
10
70.643661
20
52.080450
70
0
0
VERTEX
8
Image
10
70.017681
20
52.580822
70
0
0
VERTEX
8
Image
10
69.109860
20
52.910786
70
0
0
VERTEX
8
Image
10
69.179902
20
52.745123
70
0
0
VERTEX
8
Image
10
69.589050
20
52.387540
70
0
0
VERTEX
8
Image
10
70.445224
20
51.864222
70
0
0
VERTEX
8
Image
10
70.643661
20
52.080450
70
0
0
VERTEX
8
Image
10
70.643661
20
52.080450
70
0
0
SEQEND
8
Image
0
POLYLINE
8
Image
62
7
70
1
10
0.000000
20
0.000000
66
1
0
VERTEX
8
Image
10
20.108308
20
55.148401
70
0
0
VERTEX
8
Image
10
19.846436
20
56.716608
70
0
0
VERTEX
8
Image
10
19.597586
20
57.203824
70
0
0
VERTEX
8
Image
10
19.339894
20
57.297947
70
0
0
VERTEX
8
Image
10
19.197505
20
57.057151
70
0
0
VERTEX
8
Image
10
19.192523
20
56.686714
70
0
0
VERTEX
8
Image
10
19.444256
20
55.231771
70
0
0
VERTEX
8
Image
10
19.631981
20
54.523038
70
0
0
VERTEX
8
Image
10
19.850919
20
54.267163
70
0
0
VERTEX
8
Image
10
20.032539
20
54.472750
70
0
0
VERTEX
8
Image
10
20.108308
20
55.148401
70
0
0
VERTEX
8
Image
10
20.108308
20
55.148401
70
0
0
SEQEND
8
Image
0
POLYLINE
8
Image
62
7
70
0
10
0.000000
20
0.000000
66
1
0
VERTEX
8
Image
10
21.804177
20
57.375877
70
0
0
VERTEX
8
Image
10
21.665950
20
57.917052
70
0
0
VERTEX
8
Image
10
21.161002
20
58.826337
70
0
0
VERTEX
8
Image
10
20.555131
20
59.681525
70
0
0
VERTEX
8
Image
10
20.114135
20
60.060411
70
0
0
VERTEX
8
Image
10
19.834849
20
59.792481
70
0
0
VERTEX
8
Image
10
19.834587
20
59.002079
70
0
0
VERTEX
8
Image
10
20.550835
20
57.913846
70
0
0
VERTEX
8
Image
10
21.082534
20
57.378564
70
0
0
VERTEX
8
Image
10
21.465109
20
57.149998
70
0
0
VERTEX
8
Image
10
21.804177
20
57.375877
70
0
0
VERTEX
8
Image
10
21.804177
20
57.375877
70
0
0
SEQEND
8
Image
0
POLYLINE
8
Image
62
7
70
0
10
0.000000
20
0.000000
66
1
0
VERTEX
8
Image
10
8.598948
20
10.193881
70
0
0
VERTEX
8
Image
10
6.846432
20
10.644769
70
0
0
VERTEX
8
Image
10
5.241129
20
10.834638
70
0
0
VERTEX
8
Image
10
3.702023
20
11.046906
70
0
0
VERTEX
8
Image
10
3.515442
20
11.270884
70
0
0
VERTEX
8
Image
10
3.765992
20
11.549920
70
0
0
VERTEX
8
Image
10
4.532938
20
11.714893
70
0
0
VERTEX
8
Image
10
5.792356
20
11.684251
70
0
0
VERTEX
8
Image
10
7.279904
20
11.480546
70
0
0
VERTEX
8
Image
10
8.731239
20
11.126330
70
0
0
VERTEX
8
Image
10
10.171531
20
10.758053
70
0
0
VERTEX
8
Image
10
10.512488
20
10.783863
70
0
0
VERTEX
8
Image
10
10.715612
20
10.938773
70
0
0
VERTEX
8
Image
10
11.157136
20
11.358961
70
0
0
VERTEX
8
Image
10
11.757940
20
11.661225
70
0
0
VERTEX
8
Image
10
13.410193
20
11.902254
70
0
0
VERTEX
8
Image
10
14.383761
20
11.835421
70
0
0
VERTEX
8
Image
10
15.038656
20
11.663731
70
0
0
VERTEX
8
Image
10
15.302755
20
11.419798
70
0
0
VERTEX
8
Image
10
15.103937
20
11.136239
70
0
0
VERTEX
8
Image
10
14.584636
20
11.007493
70
0
0
VERTEX
8
Image
10
13.861531
20
11.036237
70
0
0
VERTEX
8
Image
10
12.926774
20
11.104415
70
0
0
VERTEX
8
Image
10
12.223414
20
10.984002
70
0
0
VERTEX
8
Image
10
11.796896
20
10.691604
70
0
0
VERTEX
8
Image
10
11.692664
20
10.243822
70
0
0
VERTEX
8
Image
10
11.582701
20
9.779947
70
0
0
VERTEX
8
Image
10
11.056419
20
9.617419
70
0
0
VERTEX
8
Image
10
10.074831
20
9.755607
70
0
0
VERTEX
8
Image
10
8.598948
20
10.193881
70
0
0
VERTEX
8
Image
10
8.598948
20
10.193881
70
0
0
SEQEND
8
Image
0
POLYLINE
8
Image
62
7
70
0
10
0.000000
20
0.000000
66
1
0
VERTEX
8
Image
10
21.431223
20
10.862610
70
0
0
VERTEX
8
Image
10
21.868797
20
11.260138
70
0
0
VERTEX
8
Image
10
22.920837
20
11.823800
70
0
0
VERTEX
8
Image
10
24.517019
20
12.369776
70
0
0
VERTEX
8
Image
10
26.558855
20
12.347053
70
0
0
VERTEX
8
Image
10
29.793120
20
12.017663
70
0
0
VERTEX
8
Image
10
30.718915
20
11.970596
70
0
0
VERTEX
8
Image
10
30.912303
20
12.115202
70
0
0
VERTEX
8
Image
10
31.024286
20
12.402628
70
0
0
VERTEX
8
Image
10
31.378798
20
12.953592
70
0
0
VERTEX
8
Image
10
32.132891
20
13.293501
70
0
0
VERTEX
8
Image
10
33.340922
20
13.435712
70
0
0
VERTEX
8
Image
10
35.057248
20
13.393582
70
0
0
VERTEX
8
Image
10
38.233525
20
12.989345
70
0
0
VERTEX
8
Image
10
39.113290
20
12.704091
70
0
0
VERTEX
8
Image
10
39.422867
20
12.386018
70
0
0
VERTEX
8
Image
10
39.047884
20
12.210336
70
0
0
VERTEX
8
Image
10
37.901515
20
12.268098
70
0
0
VERTEX
8
Image
10
34.012226
20
12.630476
70
0
0
VERTEX
8
Image
10
33.083520
20
12.612947
70
0
0
VERTEX
8
Image
10
32.498537
20
12.475759
70
0
0
VERTEX
8
Image
10
31.976017
20
12.142472
70
0
0
VERTEX
8
Image
10
31.933242
20
11.659460
70
0
0
VERTEX
8
Image
10
31.924158
20
11.187554
70
0
0
VERTEX
8
Image
10
31.515685
20
10.968462
70
0
0
VERTEX
8
Image
10
30.609302
20
10.987169
70
0
0
VERTEX
8
Image
10
29.106490
20
11.228660
70
0
0
VERTEX
8
Image
10
27.130131
20
11.536908
70
0
0
VERTEX
8
Image
10
25.562097
20
11.621529
70
0
0
VERTEX
8
Image
10
24.310463
20
11.480689
70
0
0
VERTEX
8
Image
10
23.283304
20
11.112556
70
0
0
VERTEX
8
Image
10
21.928402
20
10.607882
70
0
0
VERTEX
8
Image
10
21.559788
20
10.638592
70
0
0
VERTEX
8
Image
10
21.431223
20
10.862610
70
0
0
VERTEX
8
Image
10
21.431223
20
10.862610
70
0
0
SEQEND
8
Image
0
POLYLINE
8
Image
62
7
70
0
10
0.000000
20
0.000000
66
1
0
VERTEX
8
Image
10
74.136950
20
12.593835
70
0
0
VERTEX
8
Image
10
72.018609
20
13.269448
70
0
0
VERTEX
8
Image
10
70.379800
20
13.650973
70
0
0
VERTEX
8
Image
10
69.241697
20
13.700324
70
0
0
VERTEX
8
Image
10
69.034157
20
13.513524
70
0
0
VERTEX
8
Image
10
68.908346
20
13.129268
70
0
0
VERTEX
8
Image
10
68.717144
20
12.653040
70
0
0
VERTEX
8
Image
10
68.377459
20
12.476154
70
0
0
VERTEX
8
Image
10
67.766881
20
12.590562
70
0
0
VERTEX
8
Image
10
66.762998
20
12.988214
70
0
0
VERTEX
8
Image
10
63.526233
20
14.036578
70
0
0
VERTEX
8
Image
10
62.048530
20
14.337543
70
0
0
VERTEX
8
Image
10
61.145634
20
14.371266
70
0
0
VERTEX
8
Image
10
60.715826
20
14.083698
70
0
0
VERTEX
8
Image
10
60.589507
20
13.454639
70
0
0
VERTEX
8
Image
10
60.475190
20
12.856788
70
0
0
VERTEX
8
Image
10
60.183629
20
12.527697
70
0
0
VERTEX
8
Image
10
59.102980
20
12.699774
70
0
0
VERTEX
8
Image
10
57.074778
20
13.332201
70
0
0
VERTEX
8
Image
10
54.979362
20
13.977431
70
0
0
VERTEX
8
Image
10
53.331329
20
14.279464
70
0
0
VERTEX
8
Image
10
52.210971
20
14.230949
70
0
0
VERTEX
8
Image
10
51.873762
20
14.072937
70
0
0
VERTEX
8
Image
10
51.698582
20
13.824532
70
0
0
VERTEX
8
Image
10
51.405973
20
13.008552
70
0
0
VERTEX
8
Image
10
51.221655
20
12.787478
70
0
0
VERTEX
8
Image
10
50.950939
20
12.681634
70
0
0
VERTEX
8
Image
10
49.967156
20
12.787495
70
0
0
VERTEX
8
Image
10
48.088299
20
13.269855
70
0
0
VERTEX
8
Image
10
46.088825
20
13.712392
70
0
0
VERTEX
8
Image
10
45.586151
20
13.694529
70
0
0
VERTEX
8
Image
10
45.212840
20
13.535938
70
0
0
VERTEX
8
Image
10
44.716065
20
13.354349
70
0
0
VERTEX
8
Image
10
44.364639
20
13.440161
70
0
0
VERTEX
8
Image
10
44.244264
20
13.725890
70
0
0
VERTEX
8
Image
10
44.440639
20
14.144047
70
0
0
VERTEX
8
Image
10
44.963048
20
14.446760
70
0
0
VERTEX
8
Image
10
45.843003
20
14.531717
70
0
0
VERTEX
8
Image
10
47.074474
20
14.399055
70
0
0
VERTEX
8
Image
10
48.651432
20
14.048909
70
0
0
VERTEX
8
Image
10
50.568175
20
13.545685
70
0
0
VERTEX
8
Image
10
50.811601
20
14.185947
70
0
0
VERTEX
8
Image
10
51.067443
20
14.647050
70
0
0
VERTEX
8
Image
10
51.443745
20
14.978805
70
0
0
VERTEX
8
Image
10
51.953438
20
15.181373
70
0
0
VERTEX
8
Image
10
52.609453
20
15.254913
70
0
0
VERTEX
8
Image
10
54.412166
20
15.015552
70
0
0
VERTEX
8
Image
10
56.955325
20
14.262001
70
0
0
VERTEX
8
Image
10
58.418142
20
13.798141
70
0
0
VERTEX
8
Image
10
59.281319
20
13.649831
70
0
0
VERTEX
8
Image
10
59.691607
20
13.819534
70
0
0
VERTEX
8
Image
10
59.795758
20
14.309716
70
0
0
VERTEX
8
Image
10
60.000189
20
14.775655
70
0
0
VERTEX
8
Image
10
60.550370
20
15.105791
70
0
0
VERTEX
8
Image
10
61.351629
20
15.265788
70
0
0
VERTEX
8
Image
10
62.309296
20
15.221313
70
0
0
VERTEX
8
Image
10
65.599288
20
14.276770
70
0
0
VERTEX
8
Image
10
67.610998
20
13.663695
70
0
0
VERTEX
8
Image
10
68.002681
20
13.734395
70
0
0
VERTEX
8
Image
10
68.321572
20
14.025514
70
0
0
VERTEX
8
Image
10
68.960512
20
14.425026
70
0
0
VERTEX
8
Image
10
69.926366
20
14.544372
70
0
0
VERTEX
8
Image
10
71.722553
20
14.202510
70
0
0
VERTEX
8
Image
10
74.395712
20
13.424636
70
0
0
VERTEX
8
Image
10
76.849767
20
12.561547
70
0
0
VERTEX
8
Image
10
77.988644
20
11.964037
70
0
0
VERTEX
8
Image
10
77.982752
20
11.796155
70
0
0
VERTEX
8
Image
10
77.832007
20
11.700200
70
0
0
VERTEX
8
Image
10
77.113910
20
11.721135
70
0
0
VERTEX
8
Image
10
74.136950
20
12.593835
70
0
0
VERTEX
8
Image
10
74.136950
20
12.593835
70
0
0
SEQEND
8
Image
 0 
ENDSEC
 0 
EOF