<?xml version="1.0" encoding="UTF-8" standalone="no"?>
<!-- Created with Inkscape (http://www.inkscape.org/) -->

<svg
   version="1.1"
   id="svg1"
   width="347"
   height="310"
   viewBox="0 0 347 310"
   sodipodi:docname="cricket.svg"
   inkscape:version="1.4.3 (0d15f75042, 2025-12-25)"
   xmlns:inkscape="http://www.inkscape.org/namespaces/inkscape"
   xmlns:sodipodi="http://sodipodi.sourceforge.net/DTD/sodipodi-0.dtd"
   xmlns="http://www.w3.org/2000/svg"
   xmlns:svg="http://www.w3.org/2000/svg">
  <defs
     id="defs1" />
  <sodipodi:namedview
     id="namedview1"
     pagecolor="#ffffff"
     bordercolor="#000000"
     borderopacity="0.25"
     inkscape:showpageshadow="2"
     inkscape:pageopacity="0.0"
     inkscape:pagecheckerboard="0"
     inkscape:deskcolor="#d1d1d1"
     inkscape:zoom="3.2709677"
     inkscape:cx="177.77613"
     inkscape:cy="158.8215"
     inkscape:window-width="2029"
     inkscape:window-height="1216"
     inkscape:window-x="0"
     inkscape:window-y="0"
     inkscape:window-maximized="0"
     inkscape:current-layer="g1" />
  <g
     inkscape:groupmode="layer"
     inkscape:label="Image"
     id="g1">
    <path
       style="fill:#000000"
       d="M 39.638374,289.5 C 39.321791,288.675 38.373646,288 37.531385,288 36.57963,288 36,287.08739 36,285.58889 c 0,-3.54041 4.79905,-7.02931 13.1637,-9.56999 6.085036,-1.84828 16.16391,-6.18861 17.763299,-7.64953 0.23485,-0.21452 -0.44015,-1.02412 -1.5,-1.79911 -1.888341,-1.38081 -1.881861,-1.45712 0.323001,-3.80412 2.475231,-2.63479 2.946662,-4.2678 1,-3.46394 -0.6875,0.2839 -2.9375,1.23808 -5,2.12041 -3.341055,1.42929 -3.75,1.43685 -3.75,0.0694 0,-0.84417 1.216107,-2.08771 2.702461,-2.76342 1.486353,-0.67571 3.760866,-2.28603 5.054472,-3.57849 2.235637,-2.23365 2.262728,-2.41521 0.547539,-3.6694 C 64.584934,250.22329 64.605905,250.04845 66.75,247.76614 70.156018,244.14056 69.608049,243 64.460162,243 c -2.629365,0 -6.261233,-0.87819 -8.63037,-2.08683 -2.959318,-1.50974 -5.040286,-1.90866 -7.5249,-1.44255 C 36.963566,241.59827 20,231.06031 20,221.8873 c 0,-3.44741 1.74519,-4.44317 9.038278,-5.15701 6.600694,-0.64607 16.860653,-4.62601 21.081742,-8.17783 1.668387,-1.40385 3.786404,-2.55282 4.706705,-2.55325 0.920301,-4.3e-4 4.517604,-1.34638 7.994007,-2.99099 5.316787,-2.51525 6.269789,-3.349 6,-5.24921 C 68.535205,195.74796 67.731647,195.41582 61.5,194.7331 39.917945,192.36865 15.205667,183.14596 6.8136184,174.324 -0.47400755,166.66304 0.76186478,155.71354 9.3755365,151.62609 14.072336,149.39731 25.160841,148.13585 48,147.23207 L 66.5,146.5 l 0.311206,-3.7641 c 0.171163,-2.07025 -0.375947,-7.40737 -1.215799,-11.86025 -1.732309,-9.18468 -0.849073,-16.24567 2.651973,-21.20105 1.727741,-2.44544 1.904207,-3.7588 1.312235,-9.766376 -0.900474,-9.138393 1.592085,-20.09579 5.220598,-22.949979 5.600568,-4.405408 10.228789,-1.920286 16.48891,8.853716 4.975641,8.563342 16.222197,21.695939 33.692617,39.342859 L 136.5,136.80964 142,135.92561 c 16.56456,-2.66247 30.74647,-6.1797 41,-10.16832 13.31936,-5.18124 14.94514,-5.62397 24.64751,-6.71205 4.72218,-0.52957 10.27397,-2.12276 16.03745,-4.60224 7.17042,-3.08475 10.3076,-3.86459 16.81504,-4.17987 5.53768,-0.2683 9.17182,-1.01362 11.80722,-2.42151 3.75463,-2.00581 9.89695,-2.217 13.76421,-0.47325 1.29457,0.58372 1.88012,-0.75176 3.32348,-7.579904 C 272.52412,84.98501 280.00292,59.834598 285.68696,45 293.4553,24.72569 300.49984,10 302.43043,10 303.29369,10 304,10.46483 304,11.032956 c 0,0.568126 -2.67014,7.205626 -5.93365,14.75 -8.2293,19.023979 -15.4066,40.510036 -20.59883,61.664916 -2.42281,9.87133 -4.23577,18.117208 -4.02881,18.324168 0.20697,0.20697 4.15942,-7.419574 8.78324,-16.947868 C 293.5498,65.480869 313.4815,32 316.05029,32 c 2.82664,0 1.46846,3.868141 -4.8038,13.681401 -15.23472,23.835431 -25.12485,42.672659 -32.92216,62.705189 -3.41781,8.7809 -3.44469,8.97118 -2.25949,15.99782 2.43737,14.4504 -0.8179,33.39663 -8.14108,47.38243 -2.21681,4.23366 -3.61604,7.83573 -3.1094,8.00461 4.3383,1.4461 9.74659,5.06943 10.04325,6.72855 0.19668,1.1 0.87168,2.61878 1.5,3.37507 0.62831,0.7563 4.56683,8.6313 8.75226,17.5 l 7.60988,16.12493 4.08721,0.30491 c 2.24796,0.1677 6.47352,-0.12882 9.39012,-0.65894 3.95168,-0.71825 6.09995,-0.63084 8.43084,0.34305 3.92966,1.6419 5.12909,3.47588 3.21288,4.91268 -0.80561,0.60407 -1.7861,1.95321 -2.17887,2.9981 -0.68957,1.83446 -0.79231,1.82635 -2.98766,-0.23608 -2.15831,-2.02763 -2.3615,-2.04789 -4.00918,-0.3998 -1.70661,1.70704 -4.28117,1.8878 -16.93785,1.18916 -4.75906,-0.2627 -6.17052,-2.20846 -11.20972,-15.45308 -5.232,-13.75134 -7.89286,-18.7966 -11.52533,-21.85312 -3.10096,-2.60928 -24.94576,-10.16236 -27.20921,-9.40787 -0.62204,0.20734 0.40981,1.43867 2.29301,2.73627 11.09586,7.64548 21.80756,17.27642 23.26422,20.91696 0.85094,2.12673 4.4505,8.3085 7.99901,13.73727 3.54851,5.42877 8.16106,13.02049 10.25011,16.87049 2.08905,3.85 4.27357,7.33954 4.85447,7.75453 0.58091,0.415 3.87397,1.63948 7.31791,2.72108 7.92896,2.49017 9.92593,3.57222 11.2873,6.11597 0.91617,1.71188 0.65478,2.4536 -1.60167,4.54481 l -2.69653,2.49905 -2.64523,-2.53429 c -1.90943,-1.82935 -3.29405,-2.36462 -4.97777,-1.92432 -1.28289,0.33548 -2.62396,0.19878 -2.98017,-0.30379 -0.3562,-0.50256 -1.77264,-1.46382 -3.14764,-2.13614 -1.375,-0.67231 -3.175,-1.64318 -4,-2.15749 -0.825,-0.51431 -2.30463,-1.18503 -3.28807,-1.49048 -1.03696,-0.32208 -3.45044,-4.17068 -5.74547,-9.16187 -5.3279,-11.58703 -14.19917,-25.04876 -17.11751,-25.975 -1.2751,-0.4047 -9.07525,-7.19628 -17.33366,-15.09239 -8.25841,-7.89611 -15.54747,-14.35727 -16.1979,-14.35812 -0.65044,-8.5e-4 -1.45649,0.86134 -1.79122,1.91599 -1.08129,3.40686 -4.61474,7.08743 -8.8707,9.24008 -2.28551,1.156 -6.02698,3.81492 -8.31437,5.90872 -3.37767,3.0918 -6.52769,4.55601 -16.76904,7.79473 -10.90133,3.44743 -13.29801,4.60629 -17.68634,8.55177 -2.79192,2.51017 -6.88019,5.10444 -9.08506,5.76503 -2.20486,0.66059 -4.22401,1.7618 -4.487,2.44712 -0.26298,0.68532 0.89331,9.59903 2.56954,19.80823 l 3.04769,18.5622 -1.97028,4.59648 c -1.08366,2.52807 -3.31811,6.23163 -4.96545,8.23014 -1.64734,1.99851 -2.99516,4.62956 -2.99516,5.84679 0,2.72517 -1.63856,3.87603 -3.41706,2.40001 -0.73119,-0.60684 -2.00341,-0.84472 -2.82715,-0.52862 -2.23005,0.85575 -2.93319,-2.17989 -1.37095,-5.91884 0.75073,-1.79676 2.83744,-4.94389 4.63714,-6.99363 l 3.27217,-3.7268 -0.70362,-9.70047 C 155.20354,256.86521 154.10572,248 153.15093,242.5 l -1.73598,-10 -3.39668,0.33931 c -1.86817,0.18662 -5.56564,1.47343 -8.2166,2.85958 -3.69962,1.93447 -5.63477,2.3674 -8.32562,1.86259 -2.31256,-0.43383 -6.06982,0.0618 -11.03968,1.45637 -4.1437,1.16273 -10.32453,2.42187 -13.73518,2.7981 -5.96768,0.65829 -6.21394,0.79702 -6.53968,3.68405 -0.403638,3.57749 -2.00605,5.77363 -3.730025,5.11208 -0.703715,-0.27004 -1.504508,0.54273 -1.835987,1.86345 -0.591779,2.35783 -7.484197,6.23017 -15.845498,8.90241 -1.099638,0.35144 -1.763169,1.59295 -1.785435,3.34068 -0.01949,1.52976 -0.58199,3.74337 -1.25,4.91914 -1.607955,2.83016 -9.126598,9.02593 -13.62268,11.22582 -1.975537,0.96662 -4.600429,2.39852 -5.833094,3.18201 -2.029733,1.29011 -2.38419,1.22039 -3.756504,-0.73886 -1.292286,-1.845 -1.982299,-2.02945 -4.688482,-1.25333 -3.512598,1.0074 -4.897768,2.56422 -4.109409,4.61865 C 44.233855,288.0518 42.38109,291 40.984544,291 c -0.423811,0 -1.029588,-0.675 -1.34617,-1.5 z m 22.723252,-13 C 62.678209,275.675 62.501354,275 61.968615,275 61.435877,275 61,275.675 61,276.5 c 0,0.825 0.176855,1.5 0.393011,1.5 0.216156,0 0.652033,-0.675 0.968615,-1.5 z M 69,272 c 0,-0.55 -0.45,-1 -1,-1 -0.55,0 -1,0.45 -1,1 0,0.55 0.45,1 1,1 0.55,0 1,-0.45 1,-1 z m 93,-5.47827 c 0,-2.90888 -4.09284,-26.59465 -4.97418,-28.78617 -1.29322,-3.2157 -1.22075,-1.53675 0.44303,10.26444 0.81418,5.775 1.74434,12.6375 2.06702,15.25 0.32267,2.6125 1.0091,4.75 1.5254,4.75 0.5163,0 0.93873,-0.66522 0.93873,-1.47827 z M 74.54141,247.25 c 0.803746,-19.87506 -1.635542,-119.30443 -3.005275,-122.5 -1.182928,-2.75975 -3.875294,-2.23745 -3.159878,0.61299 1.815837,7.23487 2.7121,19.78182 3.724287,52.13701 1.062448,33.96184 0.703085,78.07529 -0.694475,85.25 -0.488438,2.50751 -0.28922,3.25 0.872013,3.25 1.259633,0 1.628735,-3.05773 2.263328,-18.75 z M 85,254 c 0,-0.55 -0.423442,-1 -0.940983,-1 -0.517541,0 -1.219098,0.45 -1.559017,1 -0.339919,0.55 0.08352,1 0.940983,1 C 84.298442,255 85,254.55 85,254 Z m 6,-2.44098 c 0,-0.24254 -0.45,-0.7191 -1,-1.05902 -0.55,-0.33992 -1,-0.14148 -1,0.44098 0,0.58246 0.45,1.05902 1,1.05902 0.55,0 1,-0.19844 1,-0.44098 z m -3.594192,-3.88237 c 2.148195,-1.19716 3.835695,-2.62665 3.75,-3.17665 -0.08569,-0.55 -2.968308,-1 -6.405808,-1 H 78.5 l -0.317843,3.87544 c -0.311357,3.79634 -0.260333,3.86117 2.5,3.17665 1.549814,-0.38434 4.575457,-1.67828 6.723651,-2.87544 z M 284.83333,246.25 c -1.69426,-3.8121 -9.17426,-17.2424 -9.44973,-16.96694 -0.57701,0.57702 8.03788,17.5581 8.94973,17.64109 0.45834,0.0417 0.68334,-0.26165 0.5,-0.67415 z M 98,243.94098 C 98,243.42344 97.325,243 96.5,243 c -1.54641,0 -1.986704,1.17996 -0.86052,2.30615 C 96.438411,246.10508 98,245.20196 98,243.94098 Z M 63.012935,237.25 c 0.0071,-0.4125 -1.005385,-4.46024 -2.25,-8.99497 -1.910209,-6.95983 -2.587666,-8.24576 -4.346268,-8.25 -3.143847,-0.008 -3.322443,0.63853 -1.882569,6.81072 C 56.743522,236.28671 57.653635,238 60.475249,238 c 1.388613,0 2.530572,-0.3375 2.537686,-0.75 z M 111.25,236.33772 c -0.6875,-0.27741 -1.8125,-0.27741 -2.5,0 -0.6875,0.27741 -0.125,0.50439 1.25,0.50439 1.375,0 1.9375,-0.22698 1.25,-0.50439 z M 86,235.1092 c 0,-0.48993 -0.890117,-2.85243 -1.978038,-5.25 -1.087921,-2.39756 -1.987921,-5.8217 -2,-7.6092 C 82.004554,219.67399 81.585239,219 80,219 c -1.829787,0 -2,0.66667 -2,7.83333 0,4.30834 0.3,8.13334 0.666667,8.5 C 79.664407,236.33107 86,236.13744 86,235.1092 Z m 18,-0.74383 c 0,-0.25134 -1.12507,-2.57041 -2.50015,-5.15349 -1.37508,-2.58309 -2.783752,-6.27497 -3.130386,-8.2042 -1.105717,-6.15397 -2.829929,-6.86787 -9.119464,-3.77585 -1.533133,0.75371 -2.25,1.99698 -2.25,3.9022 0,2.90846 2.62232,11.62499 4.021077,13.36597 C 91.785035,235.45087 104,235.32417 104,234.36537 Z m 12.25,0.97235 c -0.6875,-0.27741 -1.8125,-0.27741 -2.5,0 -0.6875,0.27741 -0.125,0.50439 1.25,0.50439 1.375,0 1.9375,-0.22698 1.25,-0.50439 z M 50,234.14922 c 0,-0.46792 -0.485441,-2.24331 -1.078758,-3.9453 -0.966728,-2.77316 -1.33697,-2.99636 -3.5651,-2.14923 -1.367488,0.51992 -3.469546,0.9522 -4.671242,0.96062 -2.586778,0.0181 -5.400552,1.60237 -4.480349,2.52257 C 38.498994,233.83233 50,236.00935 50,234.14922 Z m 76,-0.16597 c 2.08564,-0.0368 2.22652,-0.20373 0.84995,-1.00741 -1.13754,-0.66413 -2.69054,-0.48235 -5,0.58526 -2.45154,1.13329 -2.67949,1.40347 -0.84995,1.00741 1.375,-0.29766 3.625,-0.56103 5,-0.58526 z m 29.68311,-1.17075 c -0.31922,-0.79773 -0.55618,-0.56078 -0.60416,0.60417 -0.0434,1.05416 0.19292,1.64479 0.52522,1.3125 0.33229,-0.3323 0.36781,-1.1948 0.0789,-1.91667 z m -16.14501,-1.24551 c 3.9608,-2.59521 2.8286,-3.79471 -1.49826,-1.58731 -2.17809,1.11117 -4.85153,2.02032 -5.94098,2.02032 -1.08946,0 -2.30127,0.51849 -2.69293,1.1522 -1.04803,1.69576 7.06105,0.42707 10.13217,-1.58521 z M 69,231.22175 c 0,-0.31035 -0.744744,-1.3872 -1.654988,-2.39301 -1.541576,-1.70342 -1.535569,-1.9607 0.08765,-3.75434 2.259647,-2.49688 1.654325,-5.48774 -1.192881,-5.89395 C 64.20427,218.89004 64,219.27171 64,223.36535 c 0,5.94984 1.472312,9.77437 3.467987,9.00856 C 68.310594,232.05057 69,231.5321 69,231.22175 Z m 48.55718,0.65954 C 120.00073,231.26599 122,230.40857 122,229.9759 c 0,-0.43267 -1.54918,-2.64092 -3.44262,-4.90722 -2.27214,-2.71957 -3.66905,-5.63051 -4.1086,-8.56169 -0.46906,-3.12793 -1.23084,-4.62043 -2.57621,-5.04744 -2.52822,-0.80242 -9.4298,2.61445 -9.17104,4.54045 0.33989,2.52986 3.89291,14.53478 4.67747,15.80422 0.92487,1.49647 4.43566,1.52305 10.17818,0.0771 z m 19.03189,-4.10383 c 2.89229,-1.31781 3.04872,-2.36576 0.55255,-3.70167 -2.81293,-1.50543 -5.31701,-5.897 -6.56374,-11.51125 -1.26378,-5.69105 -2.30643,-6.25327 -8.50257,-4.58482 -2.9153,0.78501 -4.07531,1.62744 -4.07531,2.9596 0,1.56259 5.51708,13.3387 8.38633,17.90049 0.91223,1.45033 5.80649,0.94072 10.20274,-1.06235 z m 14.01137,-7.95811 0.36004,-7.68065 -3.46384,-2.14078 c -1.90512,-1.17742 -4.35231,-3.27027 -5.43821,-4.65077 -2.25482,-2.86653 -4.69868,-2.78381 -6.69389,0.22659 -1.23194,1.85877 -0.94615,2.89544 2.75688,10 4.8739,9.35097 7.60357,12.61675 10.21216,12.21785 1.64727,-0.2519 1.95583,-1.33704 2.26686,-7.97224 z m 4.06184,4.93065 c -0.27741,-0.6875 -0.50439,-0.125 -0.50439,1.25 0,1.375 0.22698,1.9375 0.50439,1.25 0.27741,-0.6875 0.27741,-1.8125 0,-2.5 z m 134.48159,-0.5 c -0.50958,-0.9625 -1.65632,-3.50659 -2.54831,-5.65354 -0.892,-2.14695 -1.87221,-3.65314 -2.17826,-3.3471 -0.77613,0.77614 3.62261,10.75064 4.74103,10.75064 0.54387,0 0.53804,-0.70642 -0.0145,-1.75 z m -121.34168,-2.45704 c 2.36621,-1.11205 4.09036,-2.23374 3.83145,-2.49265 -0.68652,-0.68652 -12.60161,4.05071 -12.61896,5.01708 -0.0184,1.02362 3.21358,0.0952 8.78751,-2.52443 z M 43.25,220.94742 C 45.947752,220.19822 47,219.35798 47,217.953 47,216.87885 46.527653,216 45.95034,216 c -1.64427,0 -6.4603,2.70461 -7.895617,4.43406 -1.602967,1.93146 -0.35507,2.05477 5.195277,0.51336 z m 123.63616,-4.47427 c 2.9624,-1.37902 9.9374,-3.64378 15.5,-5.0328 18.95065,-4.73209 21.48929,-5.99538 19.97547,-9.94035 -0.31659,-0.825 -1.18075,-1.5 -1.92037,-1.5 -2.5851,0 -41.96302,12.18077 -44.37402,13.72621 l -2.43276,1.55939 2.29354,1.8572 c 2.99899,2.42843 4.49994,2.33671 10.95814,-0.66965 z M 57.065741,213.96482 C 58.129584,213.39547 59,212.01514 59,210.89743 c 0,-1.64518 -0.4285,-1.90084 -2.25,-1.34243 -3.02965,0.92879 -4.75,2.40194 -4.75,4.06744 0,1.63146 2.359136,1.79091 5.065741,0.34238 z M 264,210.60987 c 0,-3.25126 -24.31011,-22.69976 -26.11635,-20.89352 -0.66048,0.66048 2.96935,4.88366 10.78886,12.55247 9.71378,9.52658 12.09548,11.39053 13.55585,10.60896 C 263.20276,212.3563 264,211.33574 264,210.60987 Z M 68.781834,209.1545 c 0.449976,-1.34993 -2.66044,-1.51746 -4.659949,-0.25099 -0.757964,0.48009 -1.081142,1.3534 -0.718175,1.94069 0.78871,1.27616 4.810716,0.0125 5.378124,-1.6897 z M 79.662281,204.75 c -0.277413,-0.6875 -0.504386,-0.125 -0.504386,1.25 0,1.375 0.226973,1.9375 0.504386,1.25 0.277412,-0.6875 0.277412,-1.8125 0,-2.5 z M 167.75,205.62387 c 2.8875,-0.98153 5.25,-2.11676 5.25,-2.52274 0,-2.37211 -3.5332,-11.98551 -5.6199,-15.29107 -4.9176,-7.78998 -16.67928,-18.48492 -29.3801,-26.71543 -4.04574,-2.62177 -3.87192,-2.46211 8.87279,8.14936 9.17477,7.63908 16.74132,16.63619 19.79249,23.53452 3.6658,8.28793 2.74123,11.29329 -3.02874,9.84512 -3.26457,-0.81936 -14.39298,-11.33575 -26.7471,-25.27613 C 108.254,145.03528 88.825659,125 86.127746,125 c -2.24533,0 -1.047108,1.67704 2.704887,3.78578 2.765006,1.55402 3.809614,2.7892 3.75,4.43414 -0.06003,1.6564 0.553727,2.37023 2.243822,2.60965 1.529968,0.21674 2.139844,0.81587 1.781385,1.75 -0.35918,0.93601 0.138305,1.42043 1.458729,1.42043 1.693921,0 1.838272,0.30929 0.933431,2 -0.939536,1.75554 -0.76049,2 1.46482,2 1.89274,0 2.53518,0.52178 2.53518,2.05902 0,1.13246 0.41891,1.80012 0.9309,1.48369 1.52477,-0.94236 2.33983,1.42616 1.03275,3.00109 -1.29264,1.55753 -0.82994,1.79201 2.91702,1.4782 2.09035,-0.17506 2.30143,0.11631 1.73095,2.38931 -0.57018,2.27177 -0.34133,2.58869 1.86933,2.58869 2.54123,0 3.3665,1.35821 1.51905,2.5 -1.95692,1.20944 -0.95494,2.5 1.94098,2.5 3.27412,0 4.86798,1.4756 2.55328,2.36383 C 114.9213,164.35117 115.86309,166 119,166 c 3.14017,0 4.07778,1.64918 1.5,2.63837 -2.54142,0.97524 -1.66085,2.36163 1.5,2.36163 3.19571,0 3.74521,0.85479 1.8,2.8 -0.93333,0.93333 -0.6,1.2 1.5,1.2 2.693,0 3.59613,1.32813 1.7,2.5 -1.99423,1.2325 -0.98259,2.71245 1.43871,2.10474 2.72287,-0.6834 4.57564,1.06879 2.12467,2.00931 C 127.96748,182.61019 128.8043,184 132,184 c 3.1957,0 4.03252,1.38981 1.43662,2.38595 -2.35022,0.90186 -0.55826,2.8614 2.02402,2.21329 3.05759,-0.76741 3.88572,0.36056 1.88655,2.56961 -1.57751,1.74313 -1.48148,1.83115 1.99782,1.83115 4.11924,0 4.40362,0.49586 1.90499,3.32168 -1.71425,1.93872 -1.67376,1.96721 1.98168,1.39458 4.26378,-0.66793 5.86375,0.75781 3.11846,2.77885 -1.75047,1.28867 -1.75506,1.39891 -0.0852,2.04619 0.97072,0.37628 2.65778,0.45067 3.74901,0.1653 2.60564,-0.68139 3.7664,1.27719 1.50647,2.54191 -4.99647,2.79617 8.20945,3.10159 16.22958,0.37536 z m -74,-0.72652 c 2.307624,-0.86956 3.015374,-3.30629 1.273073,-4.38309 -1.41059,-0.87179 -8.576871,1.24317 -9.992675,2.94911 -2.833359,3.41399 1.551441,4.13509 8.719602,1.43398 z m 13.5,-3.94993 c 3.62743,-1.00739 4.88757,-3.12633 2.67315,-4.49491 -1.20844,-0.74686 -9.92315,2.29488 -9.92315,3.46353 0,2.24728 1.899,2.51743 7.25,1.03138 z m 77.36704,-0.61584 C 190.64782,198.43055 190.75869,197 184.87524,197 180.22201,197 177,198.44636 177,200.53518 c 0,1.87203 1.12805,1.84188 7.61704,-0.2036 z M 208.98469,195.25 c 0.0291,-6.17583 -4.61532,-8.41036 -9.23469,-4.44301 -2.57658,2.21289 -2.13749,3.86551 1.20462,4.53393 1.62504,0.32501 3.71939,1.75811 4.65411,3.18467 2.02319,3.08778 3.35205,1.79843 3.37596,-3.27559 z m -125.838773,1.93742 c -4.592124,-0.32968 -5.727542,0.0625 -4.751843,1.64119 0.37462,0.60615 2.167678,0.53832 4.850136,-0.18347 L 87.5,197.5 Z M 123.25,196.79989 c 3.00632,-1.08833 3.65721,-3.51453 1.19622,-4.4589 -0.85457,-0.32793 -3.31286,0.197 -5.46286,1.16651 -3.3943,1.53062 -3.77219,2.01856 -2.86953,3.70519 0.68981,1.28892 1.60252,1.7137 2.71286,1.26259 0.92032,-0.37392 2.91081,-1.12784 4.42331,-1.67539 z m -11.53146,-7.91522 c 5.6541,-1.7706 10.09829,-3.40117 9.87597,-3.62349 -0.22231,-0.22231 -5.50952,0.73833 -11.74936,2.13476 -6.23983,1.39643 -15.73265,3.07575 -21.09515,3.73181 -5.3625,0.65607 -9.75,1.4645 -9.75,1.79652 0,0.33202 5.04863,0.28327 11.219177,-0.10833 8.354052,-0.53017 13.844503,-1.53413 21.499363,-3.93127 z M 192,192.03896 c 0,-1.07858 -0.88351,-2.78417 -1.96337,-3.7902 C 187.25034,185.65293 185,179.74781 185,175.03212 185,172.81445 184.53886,171 183.97525,171 c -1.72739,0 -3.07752,5.06957 -3.70027,13.89407 l -0.59419,8.41977 2.9096,-0.51745 c 1.60029,-0.2846 4.03461,-0.17507 5.40961,0.2434 3.80171,1.15701 4,1.1074 4,-1.00083 z m 28.99436,-5.8658 c 0.60734,-3.12024 1.32007,-6.80709 1.58385,-8.19301 0.40123,-2.10809 -0.0454,-2.71803 -2.73336,-3.73261 -1.76713,-0.66702 -3.24264,-1.10808 -3.27891,-0.98015 -0.0363,0.12794 0.0771,4.87488 0.2519,10.54876 0.26573,8.62508 0.54359,10.12878 1.69505,9.17315 0.75747,-0.62864 1.87413,-3.69591 2.48147,-6.81614 z M 177.38985,177.25 c 0.73362,-4.92201 -1.21256,-3.90556 -3.82937,2 l -2.32632,5.25 2.08501,4 2.08501,4 0.75063,-6 c 0.41285,-3.3 0.96862,-7.4625 1.23504,-9.25 z M 68.457295,190.0691 c 0.739541,-1.1966 -1.141625,-2.38223 -2.473607,-1.55902 C 64.86533,189.20126 65.599521,191 67,191 c 0.485081,0 1.140864,-0.41891 1.457295,-0.9309 z m -7.562487,-1.44235 c 0.626834,-0.75529 0.853643,-2.1187 0.50402,-3.0298 -0.706035,-1.8399 -3.211188,-1.41206 -7.270004,1.24159 -2.213455,1.44716 -2.246713,1.59919 -0.5,2.28558 3.017115,1.18562 6.041011,0.97863 7.265984,-0.49737 z m 22.339879,-1.05381 c 1.580406,-2.30803 0.821118,-4.72034 -1.382559,-4.39249 -2.618457,0.38956 -4.39171,2.97104 -3.549129,5.16677 0.653361,1.70263 3.546692,1.24838 4.931688,-0.77428 z M 212.51287,172.32038 c -0.74782,-5.08799 -4.3833,-10.30329 -5.62969,-8.07611 -0.44593,0.79683 -1.11264,5.0683 -1.48158,9.49215 -0.6222,7.4608 -0.52677,8.08908 1.31764,8.67447 1.09364,0.34711 2.84171,2.22221 3.8846,4.16688 l 1.89616,3.53578 0.31359,-6.80677 c 0.17247,-3.74373 0.0371,-8.68761 -0.30072,-10.9864 z M 270.5,187.4598 c 0,-2.01175 -7.12822,-4.67089 -20.75,-7.74068 -5.6473,-1.27267 -6.75,-1.29706 -6.75,-0.14929 0,0.87066 4.11023,2.67003 11.25,4.925 6.1875,1.95422 11.925,3.98501 12.75,4.51289 2.06562,1.32168 3.5,0.68731 3.5,-1.54792 z m -175.75,-0.0149 c 1.341635,-0.41009 1.749652,-6.01801 0.494303,-6.79386 -3.139269,-1.94018 -10.181602,3.46406 -8.892312,6.8239 0.533276,1.38969 3.791395,1.37804 8.398009,-0.03 z m -44.636155,-1.62899 c 3.708266,-2.08416 4.873268,-4.08776 3.036804,-5.22275 -1.189368,-0.73507 -9.283778,5.38247 -8.595448,6.49621 0.789065,1.27673 1.180915,1.18696 5.558644,-1.27346 z m 186.427045,-4.6297 c -0.99199,-4.5165 -3.09196,-5.90241 -5.55965,-3.66918 -2.58888,2.3429 -2.51108,5.29012 0.21628,8.19327 2.16206,2.30141 2.22831,2.30837 4.10517,0.43151 1.43275,-1.43275 1.74099,-2.66641 1.2382,-4.9556 z m -133.10599,4.83859 c 1.95763,-0.74429 2.5651,-1.67759 2.5651,-3.94098 0,-3.50969 -1.22671,-4.49467 -4.55684,-3.65886 C 99.36411,178.94672 99,179.63139 99,183.01905 c 0,4.24545 0.421953,4.53142 4.4349,3.0057 z m -62.407406,-1.69316 c 1.359878,-0.91762 2.657247,-1.81486 2.883042,-1.99387 C 44.516917,181.857 40.842625,178 39.778291,178 c -0.501454,0 -2.517981,1.22514 -4.48117,2.72254 l -3.569435,2.72254 2.886157,1.23236 c 3.724686,1.59039 3.528552,1.60097 6.413651,-0.34585 z M 66,183.5 c 0,-0.825 -0.675,-1.5 -1.5,-1.5 -1.561574,0 -1.983967,1.1827 -0.833333,2.33333 C 64.8173,185.48397 66,185.06157 66,183.5 Z m 47.25,0.44742 c 3.15825,-0.87709 3.74758,-1.46796 3.73469,-3.74442 -0.0256,-4.51678 -1.32959,-5.67943 -5.14841,-4.59033 -3.02582,0.86295 -3.36489,1.34398 -3.64378,5.16941 -0.33835,4.64119 -0.31328,4.65688 5.0575,3.16534 z m 84.23766,-0.93979 c 2.99941,-1.85374 3.26909,-2.48054 3.87577,-9.00819 0.35863,-3.8587 1.27263,-8.81705 2.03112,-11.01857 1.71834,-4.98754 0.39742,-6.09321 -3.22581,-2.70013 -1.46781,1.37457 -4.52574,3.42956 -6.79541,4.56664 -2.26966,1.13709 -4.41505,2.81896 -4.76753,3.7375 -1.06277,2.76953 0.53086,11.31913 2.60023,13.94991 2.33575,2.96943 2.25224,2.96314 6.28163,0.47284 z M 40,173.07882 c 0,-1.72853 -1.432242,-1.90666 -4.126784,-0.51326 C 34.292947,173.38275 33,174.70443 33,175.50263 c 0,0.79819 -1.125,2.18839 -2.5,3.08933 -1.375,0.90093 -2.5,2.03978 -2.5,2.53077 0,0.49099 2.7,-0.95029 6,-3.20285 3.3,-2.25256 6,-4.43104 6,-4.84106 z m 20.454505,7.3796 c 1.84156,-1.39257 1.856007,-1.57648 0.25,-3.18249 -1.578407,-1.5784 -1.82559,-1.58342 -3.341249,-0.0678 -0.90021,0.90021 -1.364333,2.34664 -1.031385,3.21429 0.743159,1.93664 1.59926,1.94411 4.122634,0.036 z M 121,181 c 0,-0.55 -0.47656,-1 -1.05902,-1 -0.58246,0 -0.7809,0.45 -0.44098,1 0.33992,0.55 0.81648,1 1.05902,1 0.24254,0 0.44098,-0.45 0.44098,-1 z m -41,-3 c 0,-1.65 -0.45,-3 -1,-3 -0.55,0 -1,1.35 -1,3 0,1.65 0.45,3 1,3 0.55,0 1,-1.35 1,-3 z m -53.25,0.0564 c 1.2375,-1.03236 2.25,-2.14239 2.25,-2.46673 0,-0.99548 -10.843151,-0.65251 -11.470654,0.36281 -0.574342,0.9293 3.979917,3.9607 5.970654,3.97417 0.55,0.004 2.0125,-0.83789 3.25,-1.87025 z m 22.144808,0.57031 C 50.123124,177.14672 49.397075,174 47.82727,174 c -0.527314,0 -1.866503,0.48581 -2.975976,1.07958 -1.922694,1.029 -1.935781,1.16958 -0.279271,3 2.06526,2.28209 2.805197,2.37575 4.322785,0.54717 z m 36.939857,-1.57041 c 0.392459,-2.68196 -1.375093,-4.92932 -2.757739,-3.50634 -1.245436,1.28177 -0.119524,6.62957 1.297644,6.16348 0.618986,-0.20357 1.276029,-1.39929 1.460095,-2.65714 z M 68,174.94098 c 0,-2.11431 -1.639735,-2.48598 -4,-0.90666 -1.301094,0.87059 -1.248408,1.19582 0.397322,2.45265 C 66.646336,178.20452 68,177.62363 68,174.94098 Z m 25,-0.0794 c 0,-2.12615 -2.660072,-3.63276 -3.962738,-2.24441 -0.455567,0.48553 -0.442592,1.88779 0.02883,3.11613 C 90.093161,178.40946 93,177.76533 93,174.86163 Z m 168.38499,0.67355 c 2.3273,-3.55191 2.00796,-3.88557 -1.34572,-1.40609 -1.62841,1.20393 -2.72685,2.5674 -2.44099,3.02994 0.89647,1.45051 2.11458,0.92815 3.78671,-1.62385 z m -20.88017,-3.3637 c -1.09584,-1.09583 -2.74755,1.75071 -2.03744,3.5113 0.65923,1.63448 0.82559,1.57636 1.65426,-0.57796 0.50673,-1.31735 0.67916,-2.63735 0.38318,-2.93334 z m -184.45516,2.30284 c 4.016711,-2.07712 3.838457,-3.82371 -0.29966,-2.93618 -4.303796,0.92307 -4.764788,1.25975 -4.099337,2.99389 0.696845,1.81595 0.777799,1.81488 4.398997,-0.0577 z m 46.66555,0.1438 C 103.791,173.54233 101.71934,170 100.0144,170 96.603031,170 95,171.19493 95,173.73783 c 0,2.34236 0.260601,2.48157 3.623903,1.93578 1.993147,-0.32345 3.834237,-0.79841 4.091307,-1.05549 z M 251.47158,172.75 c -0.37803,-1.7875 -1.59584,-4.74544 -2.70625,-6.5732 -2.52943,-4.16349 -3.87691,-3.071 -4.52447,3.66829 -0.50971,5.30464 -0.092,5.75603 5.5886,6.03891 2.11579,0.10536 2.26641,-0.18209 1.64212,-3.134 z M 15,174 c 0,-0.55 -0.701558,-1 -1.559017,-1 -0.857459,0 -1.280902,0.45 -0.940983,1 0.339919,0.55 1.041476,1 1.559017,1 C 14.576558,175 15,174.55 15,174 Z m 91.59078,-3.49433 c -0.35718,-1.42311 -1.06925,-2.32799 -1.58239,-2.01086 -0.56186,0.34725 -0.48558,1.55852 0.19176,3.04513 1.40031,3.07335 2.26093,2.43328 1.39063,-1.03427 z M 184.5,163.99047 c 11.06746,-5.30863 16.64978,-9.17402 15.25839,-10.56541 -0.30947,-0.30948 -6.11921,1.88975 -12.91053,4.88718 -6.79133,2.99742 -15.94786,6.92324 -20.34786,8.72403 -4.4,1.80079 -8.19215,3.43397 -8.427,3.62928 -0.23485,0.19531 0.42918,0.98116 1.47561,1.74634 2.35997,1.72565 7.20814,0.0893 24.95139,-8.42142 z m -155.038616,8.38597 c 1.495172,-0.57375 1.492887,-0.76949 -0.0286,-2.45072 -1.52249,-1.68233 -1.84298,-1.70305 -4.043171,-0.26143 C 24.075324,170.52544 23,171.62827 23,172.11501 c 0,1.01837 4.060679,1.18267 6.461384,0.26143 z m 83.309276,-1.18841 c 0.21761,-0.65284 -0.33617,-1.46781 -1.23063,-1.81104 -2.08606,-0.8005 -2.75571,-0.10262 -1.94036,2.02215 0.70046,1.82537 2.53282,1.70338 3.17099,-0.21111 z M 46.75,171.36971 C 49.491597,170.63499 49.751043,168 47.081787,168 44.10129,168 42,169.07797 42,170.60699 c 0,1.50733 1.232832,1.70529 4.75,0.76272 z M 64,171 c 0,-0.55 -0.45,-1 -1,-1 -0.55,0 -1,0.45 -1,1 0,0.55 0.45,1 1,1 0.55,0 1,-0.45 1,-1 z m 195.17726,-1.75 c 2.40838,-2.5958 4.35141,-7.25 3.02673,-7.25 -1.44347,0 -7.20399,6.5539 -7.20399,8.19617 0,2.52535 1.21085,2.25109 4.17726,-0.94617 z m -237.830066,-0.0812 c 0.911443,-1.00713 1.356188,-2.13213 0.988321,-2.5 C 21.329345,165.66268 17,165.86502 17,166.91821 c 0,0.50502 -0.273145,1.63002 -0.606989,2.5 -0.866801,2.25885 2.853759,2.07158 4.954183,-0.24936 z m 59.472357,-0.34052 C 80.348466,165.62683 78,165.28395 78,168.41667 78,170.09717 78.548528,171 79.569551,171 c 1.042339,0 1.462214,-0.72946 1.25,-2.17167 z M 236.87438,167.58705 C 243.23477,163.1793 244,160.50211 244,142.65789 c 0,-15.89112 -0.7666,-19.06515 -3.6517,-15.11954 -0.9775,1.33682 -1.3483,5.65515 -1.3483,15.70244 0,15.69729 -0.93197,18.84264 -6.11884,20.65079 -4.12806,1.43905 -10.43215,1.41588 -13.1969,-0.0485 -1.20134,-0.6363 -6.45926,-5.51241 -11.68426,-10.83581 -7.61786,-7.76131 -11.1264,-10.50972 -17.70913,-13.87244 -4.51502,-2.30645 -8.44191,-4.5702 -8.72642,-5.03054 -1.75064,-2.83261 10.802,-7.50273 25.84047,-9.61375 7.1264,-1.00037 12.30319,-2.39494 16.93339,-4.56167 3.66796,-1.71645 9.92987,-3.74655 13.91535,-4.51135 l 7.24634,-1.39055 -7.04611,0.33841 c -5.41402,0.26002 -8.88848,1.15937 -15,3.88271 -5.23828,2.33421 -10.30467,3.78258 -14.83921,4.24219 -3.78692,0.38384 -9.18692,1.37102 -12,2.19374 C 189.27376,126.83095 173,133.30911 173,134.0844 c 0,0.36112 6.0473,3.67608 13.43845,7.36659 13.84577,6.91338 15.87875,8.55575 25.93777,20.95421 5.64337,6.95585 9.01615,8.78788 15.32178,8.32251 3.59732,-0.2655 6.42309,-1.23263 9.17638,-3.14066 z M 13.814774,167.75 c 0.265896,-1.40209 -0.378522,-1.75 -3.24145,-1.75 -3.8523972,0 -3.8840845,0.0266 -2.9455769,2.47231 0.8452471,2.20268 5.7407089,1.63115 6.1870269,-0.72231 z m 22.483376,1.61852 C 37.2681,168.39857 35.109771,165 33.523833,165 c -2.079018,0 -2.868192,1.88015 -1.487478,3.5438 1.265927,1.52535 3.189016,1.8975 4.261795,0.82472 z m 59.990983,-2.45873 c 8.848267,-2.18963 10.880577,-4.07323 5.133747,-4.75814 C 98.043655,161.74892 83,164.95817 83,166.08179 c 0,2.19548 1.419808,3.92316 2.868425,3.4904 0.897366,-0.26807 5.586685,-1.46615 10.420708,-2.6624 z m -35.584489,0.23451 c 0.662555,-0.37017 0.874905,-1.20657 0.47189,-1.85866 -0.553869,-0.89618 -1.824463,-0.91715 -5.204644,-0.0859 -5.314267,1.3069 -5.372162,1.34357 -4.457505,2.82352 0.708148,1.1458 6.569566,0.5852 9.190259,-0.87898 z M 156,167.36024 c 0,-1.01383 -3.35938,-3.29345 -4.90499,-3.32844 -1.06571,-0.0241 -0.96791,0.45116 0.40499,1.9682 1.71613,1.8963 4.5,2.7378 4.5,1.36024 z M 45.253747,165.12549 c 0.41456,-0.40314 0.18956,-1.43738 -0.5,-2.2983 -0.97502,-1.21733 -1.974477,-1.36623 -4.495672,-0.66976 -2.933395,0.81034 -3.123732,1.08706 -2,2.90772 0.919878,1.49037 1.890208,1.85412 3.741925,1.40274 1.375,-0.33518 2.839186,-0.93926 3.253747,-1.3424 z m 122.569573,-3.47047 c 0.49337,-2.52541 -2.75031,-2.01151 -3.75538,0.59498 -0.73208,1.8985 -0.97147,1.99388 -1.53236,0.61051 C 161.67447,160.7367 158,161.61932 158,163.94996 c 0,0.94419 0.26469,1.9814 0.5882,2.30491 1.03518,1.03517 8.89951,-2.88191 9.23512,-4.59985 z m 100.96906,0.21842 c 0.94137,-3.48988 0.0622,-7.0613 -1.38269,-5.61647 -0.38448,0.38448 -0.91173,3.07145 -1.17166,5.97104 -0.53179,5.93201 0.91267,5.73151 2.55435,-0.35457 z m -200.984153,1.87209 c 0.225582,-1.16275 -0.243649,-1.44443 -1.75,-1.05051 -2.115265,0.55316 -2.578351,1.45152 -1.370727,2.65915 1.053609,1.05361 2.776532,0.16549 3.120727,-1.60864 z m -38.872529,0.31537 c 1.18984,-0.7529 1.211684,-1.17839 0.127555,-2.48468 -1.650794,-1.98909 -6.664205,-2.0585 -7.414731,-0.10267 -1.006133,2.62195 4.271294,4.49572 7.287176,2.58735 z m 26.270628,-1.71052 C 56.328369,161.69203 54.923675,159 53.458111,159 c -3.164525,0 -6.40891,1.96464 -5.812218,3.51959 0.458663,1.19526 1.373615,1.41951 3.730899,0.91442 1.717765,-0.36806 3.441055,-0.8557 3.829534,-1.08363 z M 18.946502,161.09996 C 20.209869,158.73934 18.661265,158 12.453396,158 9.196631,158 7.8134074,158.48013 7.0703675,159.86852 5.6683505,162.48821 6.5772246,163 12.631483,163 c 4.181782,0 5.512413,-0.40036 6.315019,-1.90004 z m 70.693419,-0.0919 c 15.835949,-3.19917 14.927079,-2.86964 13.061129,-4.7356 -1.48145,-1.48144 -2.45938,-1.46567 -12.153224,0.1959 -10.768211,1.84574 -14.405546,3.33479 -13.141584,5.37993 0.914877,1.4803 0.660572,1.49777 12.233679,-0.84023 z M 258.7337,158.75 c 5.08123,-5.20352 6.41768,-8.54861 6.14162,-15.37225 -0.21059,-5.20511 -0.24247,-5.25432 -3.04159,-4.6945 -1.70201,0.34041 -3.49036,0.0183 -4.48973,-0.80875 -2.92051,-2.41683 -5.30071,-9.11382 -5.2866,-14.8745 0.0151,-6.1771 1.52754,-9.65066 5.05267,-11.60449 1.99252,-1.10437 2.0823,-1.33053 0.53993,-1.36007 -1.0175,-0.0195 -3.33298,1.44754 -5.14552,3.26008 -2.97916,2.97916 -3.36735,4.05912 -4.04377,11.25 -0.53281,5.66422 -0.27498,11.12612 0.89552,18.97015 0.90407,6.05862 1.64377,12.62112 1.64377,14.58334 0,6.33842 2.01436,6.50799 7.7337,0.65099 z m -3.6312,-1.9804 C 253.40473,152.30412 252.7021,147 253.80834,147 c 1.65593,0 4.61602,9.97564 3.33902,11.25264 -0.76405,0.76405 -1.35288,0.337 -2.04486,-1.48304 z M 147,161 c 0,-0.55 -0.45,-1 -1,-1 -0.55,0 -1,0.45 -1,1 0,0.55 0.45,1 1,1 0.55,0 1,-0.45 1,-1 z m 36.04403,-4.25 c 6.58985,-2.8875 11.41329,-5.37078 10.71876,-5.51839 -0.69454,-0.14762 -6.43779,1.46707 -12.76279,3.58821 -7.89067,2.64619 -11.60148,4.37816 -11.82332,5.51839 -0.48107,2.47253 0.78055,2.14608 13.86735,-3.58821 z m -146.187267,3.35969 c 0.954361,-0.60472 1.025854,-1.0642 0.241051,-1.54924 C 35.71277,157.70445 32,158.80196 32,160.06739 c 0,1.16475 3.043461,1.19126 4.856763,0.0423 z m 28.003654,-0.63677 c 0.278437,-0.27844 0.0067,-1.00581 -0.603868,-1.61637 C 62.719843,156.31984 58,157.66831 58,159.64405 c 0,1.27095 0.662744,1.4734 3.177083,0.97053 1.747396,-0.34948 3.404896,-0.86323 3.683334,-1.14166 z M 152,160 c 0,-0.55 -0.19844,-1 -0.44098,-1 -0.24254,0 -0.7191,0.45 -1.05902,1 -0.33992,0.55 -0.14148,1 0.44098,1 0.58246,0 1.05902,-0.45 1.05902,-1 z m -19.10879,-2.63108 c -0.74452,-0.8971 -4.96212,-4.35712 -9.37244,-7.68894 -4.41033,-3.33183 -11.39377,-8.75315 -15.51877,-12.0474 -4.4986,-3.5926 -6.29944,-4.68068 -4.5,-2.71892 3.3072,3.60552 12.11727,10.80627 22.9523,18.75965 7.7857,5.71504 8.41433,6.07584 6.43891,3.69561 z m 18.30957,0.5243 C 156.10333,156.86928 160.00577,155 157.24085,155 153.42523,155 141,157.38818 141,158.12156 c 0,1.19018 3.81819,1.10471 10.20078,-0.22834 z m -95.711037,-2.02234 c 12.954465,-2.75533 13.018233,-2.77557 11.927474,-3.78672 C 65.405497,150.21928 41,154.78657 41,157.02793 c 0,1.46541 3.458424,1.18924 14.489743,-1.15705 z M 32,156.08286 c 0,-1.0522 -8.773908,-3.11733 -12.799221,-3.01257 -1.485428,0.0386 -3.600779,0.43485 -4.700779,0.88044 -1.656085,0.67085 -1.31217,0.92815 2,1.4963 2.2,0.37738 4.675,0.82898 5.5,1.00356 3.425794,0.72492 10,0.48317 10,-0.36773 z M 162.5,155 c 0.33992,-0.55 0.16803,-1 -0.38197,-1 -0.55,0 -1.27811,0.45 -1.61803,1 -0.33992,0.55 -0.16803,1 0.38197,1 0.55,0 1.27811,-0.45 1.61803,-1 z m -69.167093,-2.05862 c 4.510551,-0.77601 6.496334,-1.51214 5.84263,-2.16584 -0.861501,-0.8615 -11.970851,0.32863 -16.988919,1.82 -2.197096,0.65297 -0.123118,2.60427 2.172476,2.04396 1.177499,-0.2874 5.215714,-1.05155 8.973813,-1.69812 z M 142,154 c 1.11575,-0.72105 0.53938,-0.9733 -2.25,-0.98469 C 137.6875,153.00689 136,153.45 136,154 c 0,1.27369 4.02911,1.27369 6,0 z m 25.5,0 c 0.33992,-0.55 0.14148,-1 -0.44098,-1 -0.58246,0 -1.05902,0.45 -1.05902,1 0,0.55 0.19844,1 0.44098,1 0.24254,0 0.7191,-0.45 1.05902,-1 z M 222,152.69417 C 222,148.72742 217.91773,138 216.4082,138 c -1.87279,0 -1.82493,4.56742 0.10519,10.03794 2.38437,6.75804 5.48661,9.39077 5.48661,4.65623 z M 43.573795,151.8806 C 43.873126,151.39627 41.616476,151 38.559017,151 35.501558,151 33,151.42011 33,151.93358 c 0,1.86776 9.415867,1.82058 10.573795,-0.053 z M 148.25,152.33772 c -0.6875,-0.27741 -1.8125,-0.27741 -2.5,0 -0.6875,0.27741 -0.125,0.50439 1.25,0.50439 1.375,0 1.9375,-0.22698 1.25,-0.50439 z m 124.46293,-13.21656 c 0.68418,-12.96906 -0.0777,-18.38832 -2.51994,-17.92393 -2.52198,0.47955 -3.60154,10.30287 -2.56093,23.30277 0.55578,6.94305 2.06766,9.78796 3.67515,6.91554 0.45977,-0.82157 1.09234,-6.35404 1.40572,-12.29438 z m -112.94038,8.37617 C 172.02245,146.1238 182.25995,145 182.52255,145 182.78515,145 183,144.48279 183,143.85065 c 0,-0.84181 -4.21432,-0.99344 -15.75,-0.56668 -21.29023,0.78762 -40.39865,2.76654 -39.94735,4.13707 0.57713,1.75265 4.43925,3.26483 7.42348,2.9066 1.52563,-0.18314 12.79652,-1.45678 25.04642,-2.83031 z M 232,141.46862 c 0,-6.9 -0.30613,-8.64886 -1.60092,-9.14572 -2.44243,-0.93725 -3.27693,1.43936 -2.66566,7.59172 1.26198,12.70171 4.26658,13.79606 4.26658,1.554 z m -142.25,1.54007 c 2.787173,-0.0108 2.903426,-2.10737 0.25,-4.50869 -1.1,-0.99549 -2,-2.36861 -2,-3.0514 0,-0.68278 -1.619642,-2.66348 -3.599204,-4.40156 -3.894422,-3.41935 -7.962083,-3.83407 -7.817463,-0.79704 0.04583,0.9625 0.158334,4.51268 0.25,7.88929 L 77,144.27858 l 5.25,-0.6306 c 2.8875,-0.34683 6.2625,-0.63451 7.5,-0.63929 z M 151,141.02884 c 6.325,-0.54845 14.65,-1.04222 18.5,-1.09727 l 7,-0.10009 -4.49008,-2.05827 -4.49008,-2.05827 -22.20042,3.3343 c -21.67531,3.25544 -29.24039,5.34599 -13.63196,3.76709 4.2969,-0.43466 12.98754,-1.23903 19.31254,-1.78749 z M 118.3769,137.75 c -0.40763,-0.6875 -6.05918,-8.36835 -12.55902,-17.06855 C 99.318047,111.98124 94,104.21874 94,103.43145 c 0,-3.09671 3.155111,-1.10201 9.59726,6.0675 3.70599,4.12443 6.9358,7.30133 7.17734,7.05978 0.34735,-0.34735 -9.47102,-11.81675 -18.428156,-21.526984 -1.182606,-1.282037 -1.633761,-1.188873 -3.557192,0.734558 l -2.202812,2.202812 2.21355,2.765444 c 3.33195,4.16268 15.3239,21.92696 19.58013,29.00501 2.06361,3.43177 4.72242,6.91927 5.90846,7.75 2.63799,1.84772 5.12331,2.00604 4.08832,0.26043 z M 94.786122,125.3941 C 91.678224,122.31086 88.638033,119.95399 88.03014,120.15662 87.072884,120.47571 98.64133,131 99.94933,131 c 0.26813,0 -2.05531,-2.52265 -5.163208,-5.6059 z M 263,121 c 0,-2.95131 -1.28229,-3.97029 -2.50553,-1.99105 C 259.68962,120.31122 260.85213,124 262.06739,124 262.58032,124 263,122.65 263,121 Z M 76.285788,121.69763 C 77.016527,119.79336 74.329052,114 72.714941,114 c -2.544962,0 -2.64608,1.2232 -0.423011,5.11703 2.352681,4.12086 3.194162,4.66458 3.993858,2.5806 z M 98.677943,122.25 C 90.781628,108.79315 84.006306,99.600133 81.187665,98.518519 c -1.177845,-0.451981 -1.357352,0.283669 -0.95034,3.894661 0.45433,4.03081 1.294485,5.21126 8.882234,12.47993 7.293399,6.98669 11.027721,9.86092 9.558384,7.35689 z M 267,113.16052 c 0,-0.81382 -4.37675,-3.18321 -5.79705,-3.13828 -0.91279,0.0289 4.06008,3.92626 5.04705,3.95552 0.4125,0.0122 0.75,-0.35553 0.75,-0.81724 z M 76,101.5651 c 0,-4.211165 -1.671259,-8.886307 -2.904247,-8.124278 -0.499396,0.308643 -0.750043,1.348222 -0.556993,2.310174 0.193049,0.961952 0.621194,3.436504 0.951433,5.499004 C 74.242444,105.94818 76,106.16883 76,101.5651 Z m 6.409592,-8.418817 C 83.083526,92.055836 77.382446,83 76.022024,83 c -1.050783,0 -1.411881,1.367065 -1.056562,4 0.220605,1.634695 4.944075,7 6.162612,7 0.414641,0 0.991324,-0.384173 1.281518,-0.853717 z M 32.5,271.47216 c -3.96712,-1.34393 -9.465724,-2.3932 -12.690983,-2.42176 -5.653369,-0.0501 -8.000455,-1.18815 -5.575329,-2.70343 2.180016,-1.36213 11.987771,-0.52542 18.766312,1.60097 5.337501,1.67435 6.678846,1.80113 7.5,0.70888 1.812252,-2.41054 5.298365,-3.65704 10.184259,-3.64151 5.587986,0.0178 8.69103,1.42116 6.40156,2.89518 -0.7778,0.50076 -2.890871,0.67085 -4.695714,0.37796 -5.217306,-0.84665 -8.560434,0.37479 -8.197304,2.99496 0.429353,3.09799 -2.944304,3.15245 -11.692801,0.18875 z M 81,268.94468 c 0,-0.58043 2.533521,-2.21521 5.630046,-3.63285 5.078109,-2.32483 6.426078,-2.51871 13.750004,-1.97765 4.46597,0.32993 9.96677,0.89016 12.22401,1.24494 3.60956,0.56734 4.17022,0.39203 4.65323,-1.45499 0.87101,-3.33074 5.22145,-4.3997 15.24271,-3.74534 10.01292,0.65382 16.5,2.15101 16.5,3.80812 0,0.73886 -1.86269,0.88323 -5.75,0.44568 -14.47366,-1.62914 -17.91861,-1.76155 -20.42073,-0.78486 -2.01465,0.7864 -2.53951,1.54431 -2.13655,3.08523 0.79507,3.04034 -1.44226,3.38131 -10.6838,1.62822 C 98.866039,265.44741 92.76505,265.56905 88,268 c -4.322386,2.20512 -7,2.56647 -7,0.94468 z m 199.203,-6.54322 c -5.11335,-1.83977 -11.50347,-3.63774 -14.20027,-3.99549 -4.68419,-0.62138 -4.93267,-0.53328 -5.56141,1.9718 -0.79503,3.16766 -1.85284,3.23721 -8.10841,0.53312 -6.81023,-2.94385 -18.73532,-5.87992 -21.23101,-5.22729 -1.5294,0.39995 -2.1019,1.34357 -2.1019,3.46442 0,1.69713 -0.64083,3.16066 -1.53403,3.50341 -0.84371,0.32376 -6.13121,-1.04453 -11.75,-3.04065 -11.55198,-4.10395 -19.40415,-4.82302 -20.31951,-1.86078 -1.68065,5.43885 -1.30626,5.38133 -13.64518,2.09642 -7.47148,-1.98909 -9.05809,-2.13591 -10.86789,-1.00567 -2.72571,1.70223 -4.85024,0.0292 -2.91856,-2.29837 1.72159,-2.07439 7.10755,-1.9527 15.91483,0.35958 l 7.24439,1.90195 0.92004,-2.41989 c 2.01495,-5.29971 8.36502,-5.37832 23.2204,-0.28745 9.12911,3.12851 10.73551,3.10152 10.73551,-0.18034 0,-2.63255 4.43888,-4.24242 9.5,-3.44541 2.2,0.34645 7.79558,1.95292 12.43463,3.56993 8.40464,2.92956 8.44123,2.93293 10.28896,0.94963 1.29623,-1.39135 3.1217,-1.98155 6.06537,-1.96104 5.00079,0.0349 29.88743,7.99982 30.47164,9.75246 0.68566,2.05697 -4.64935,1.18463 -14.5576,-2.38034 z"
       id="path1" />
  </g>
</svg>
